<?xml version="1.0" standalone="no"?><!DOCTYPE svg PUBLIC "-//W3C//DTD SVG 1.1//EN" "http://www.w3.org/Graphics/SVG/1.1/DTD/svg11.dtd" ><svg xmlns="http://www.w3.org/2000/svg"><metadata></metadata><defs><font id="KaiGen Gothic CN Light:Version 1.002.20150501" horiz-adv-x="1000"><font-face font-family="KaiGen Gothic CN Light" font-weight="300" font-stretch="normal" units-per-em="1000" panose-1="2 11 3 2 2 2 3 2 2 7" ascent="880" descent="-120" x-height="7" bbox="-38 -277 979 892" underline-thickness="50" underline-position="-175" unicode-range="U+0000-ffe5" /><missing-glyph horiz-adv-x="1000"  /><glyph glyph-name="" unicode="  " d="" /><glyph glyph-name="" unicode="!" d="M117 742 L177 742 L169 203 L126 203 L117 742 ZM147 -13 Q127 -13 112 2 Q96 17 96 41 Q96 66 112 81 Q127 96 147 96 Q168 96 183 81 Q198 66 198 41 Q198 17 183 2 Q168 -13 147 -13 Z" /><glyph glyph-name="" unicode="&quot;" d="M92 685 L91 767 L157 767 L156 685 L145 517 L104 517 L92 685 ZM257 685 L256 767 L322 767 L321 685 L309 517 L269 517 L257 685 Z" /><glyph glyph-name="" unicode="#" d="M130 235 L40 235 L40 280 L136 280 L159 462 L62 462 L62 508 L163 508 L191 720 L234 720 L207 508 L368 508 L396 720 L439 720 L411 508 L501 508 L501 462 L407 462 L385 280 L479 280 L479 235 L378 235 L351 0 L307 0 L335 235 L174 235 L145 0 L102 0 L130 235 ZM341 280 L364 462 L202 462 L179 280 L341 280 Z" /><glyph glyph-name="" unicode="$" d="M417 604 Q353 670 276 670 Q220 670 185 635 Q151 601 151 548 Q151 487 201 446 Q224 427 310 384 Q385 346 418 310 Q468 256 468 172 Q468 95 421 45 Q374 -4 298 -12 L298 -122 L250 -122 L250 -12 Q144 -3 64 73 L94 114 Q179 37 270 37 Q337 37 374 73 Q410 108 410 168 Q410 238 360 284 Q331 311 251 352 Q172 391 142 422 Q92 471 92 545 Q92 616 137 664 Q180 712 250 720 L250 830 L298 830 L298 720 Q384 713 450 640 L417 604 Z" /><glyph glyph-name="" unicode="%" d="M201 284 Q127 284 86 344 Q43 405 43 515 Q43 623 86 683 Q128 742 201 742 Q275 742 317 683 Q359 623 359 515 Q359 405 317 344 Q275 284 201 284 ZM201 324 Q251 324 281 374 Q311 425 311 515 Q311 604 281 654 Q251 702 201 702 Q151 702 122 654 Q92 604 92 515 Q92 425 122 374 Q151 324 201 324 ZM627 742 L673 742 L267 -13 L221 -13 L627 742 ZM696 -13 Q622 -13 580 47 Q537 107 537 217 Q537 326 580 386 Q622 445 696 445 Q769 445 811 386 Q854 325 854 217 Q854 107 811 47 Q769 -13 696 -13 ZM696 27 Q746 27 775 76 Q805 127 805 217 Q805 307 775 357 Q746 405 696 405 Q645 405 616 357 Q586 307 586 217 Q586 127 616 76 Q645 27 696 27 Z" /><glyph glyph-name="" unicode="&amp;" d="M98 189 Q98 121 145 78 Q191 36 258 36 Q339 36 415 109 Q290 221 210 357 Q98 269 98 189 ZM191 579 Q191 515 230 430 Q369 529 369 605 Q369 696 291 696 Q246 696 218 662 Q191 629 191 579 ZM612 -13 Q536 11 454 76 Q363 -13 252 -13 Q160 -13 101 42 Q39 97 39 186 Q39 292 187 399 Q138 500 138 578 Q138 649 181 695 Q225 742 293 742 Q352 742 386 704 Q419 667 419 608 Q419 545 366 486 Q336 453 252 389 Q327 257 451 150 Q523 242 564 384 L619 384 Q572 225 490 117 Q567 59 630 37 L612 -13 Z" /><glyph glyph-name="" unicode="&#39;" d="M92 685 L91 767 L157 767 L156 685 L145 517 L104 517 L92 685 Z" /><glyph glyph-name="" unicode="(" d="M242 -193 Q96 43 96 308 Q96 574 242 810 L278 791 Q146 577 146 308 Q146 37 278 -175 L242 -193 Z" /><glyph glyph-name="" unicode=")" d="M37 -175 Q169 37 169 308 Q169 577 37 791 L73 810 Q219 574 219 308 Q219 43 73 -193 L37 -175 Z" /><glyph glyph-name="" unicode="*" d="M115 525 L176 625 L74 665 L86 703 L193 674 L202 789 L242 789 L249 675 L356 703 L368 665 L266 625 L328 525 L295 502 L222 594 L148 502 L115 525 Z" /><glyph glyph-name="" unicode="+" d="M242 342 L37 342 L37 389 L242 389 L242 611 L293 611 L293 389 L497 389 L497 342 L293 342 L293 120 L242 120 L242 342 Z" /><glyph glyph-name="" unicode="," d="M53 -138 Q140 -93 141 -4 Q137 -5 129 -5 Q77 -5 77 46 Q77 69 93 83 Q108 96 130 96 Q190 96 190 10 Q190 -115 70 -176 L53 -138 Z" /><glyph glyph-name="" unicode="-&#x2011;" d="M45 301 L291 301 L291 252 L45 252 L45 301 Z" /><glyph glyph-name="" unicode="." d="M125 -13 Q104 -13 89 2 Q74 17 74 41 Q74 66 89 81 Q104 96 125 96 Q146 96 161 81 Q176 66 176 41 Q176 17 161 2 Q146 -13 125 -13 Z" /><glyph glyph-name="" unicode="/" d="M339 786 L387 786 L57 -177 L10 -177 L339 786 Z" /><glyph glyph-name="" unicode="0" d="M268 -13 Q166 -13 111 81 Q53 179 53 367 Q53 553 111 649 Q166 742 268 742 Q369 742 425 649 Q482 553 482 367 Q482 179 425 81 Q369 -13 268 -13 ZM268 36 Q340 36 381 119 Q424 205 424 367 Q424 526 381 611 Q340 693 268 693 Q195 693 154 611 Q111 526 111 367 Q111 205 154 119 Q195 36 268 36 Z" /><glyph glyph-name="" unicode="1" d="M92 51 L257 51 L257 644 L130 644 L130 683 Q213 697 269 729 L316 729 L316 51 L468 51 L468 0 L92 0 L92 51 Z" /><glyph glyph-name="" unicode="2" d="M45 36 Q390 334 390 531 Q390 603 354 646 Q315 693 241 693 Q153 693 79 602 L42 637 Q137 742 247 742 Q341 742 396 685 Q449 628 449 533 Q449 337 137 46 Q217 52 257 52 L484 52 L484 0 L45 0 L45 36 Z" /><glyph glyph-name="" unicode="3" d="M258 -13 Q125 -13 31 87 L64 126 Q147 37 256 37 Q327 37 372 80 Q418 123 418 193 Q418 357 176 357 L176 406 Q392 406 392 562 Q392 621 355 657 Q317 693 254 694 Q164 693 94 617 L60 657 Q150 742 255 743 Q342 742 396 697 Q452 648 452 566 Q452 431 318 386 L318 381 Q388 366 431 319 Q478 267 478 193 Q478 100 415 42 Q353 -13 258 -13 Z" /><glyph glyph-name="" unicode="4" d="M341 257 L341 526 Q341 579 347 647 L342 647 Q315 595 284 546 L86 257 L341 257 ZM501 208 L398 208 L398 0 L341 0 L341 208 L19 208 L19 245 L341 729 L398 729 L398 257 L501 257 L501 208 Z" /><glyph glyph-name="" unicode="5" d="M253 -13 Q125 -13 28 82 L60 123 Q142 37 251 37 Q322 37 371 90 Q421 146 421 232 Q421 319 376 369 Q331 419 254 419 Q192 419 125 373 L87 396 L112 729 L445 729 L445 678 L164 678 L143 433 Q201 468 265 468 Q361 468 418 412 Q481 350 481 234 Q481 121 411 51 Q345 -13 253 -13 Z" /><glyph glyph-name="" unicode="6" d="M294 36 Q353 36 393 88 Q432 141 432 220 Q432 402 284 402 Q194 402 117 298 Q132 36 294 36 ZM441 634 Q394 692 322 692 Q232 692 179 617 Q118 531 116 354 Q193 449 292 449 Q386 449 438 391 Q490 331 490 220 Q490 119 431 52 Q374 -13 293 -13 Q185 -13 123 79 Q59 173 59 344 Q59 550 139 653 Q207 742 321 742 Q413 742 476 672 L441 634 Z" /><glyph glyph-name="" unicode="7" d="M205 0 Q222 406 417 678 L48 678 L48 729 L488 729 L488 694 Q365 533 317 369 Q277 231 268 0 L205 0 Z" /><glyph glyph-name="" unicode="8" d="M271 -13 Q173 -13 109 42 Q45 97 45 181 Q45 312 184 389 L184 393 Q84 460 84 559 Q84 638 138 689 Q192 739 272 739 Q361 739 414 685 Q465 632 465 548 Q465 447 365 367 L365 362 Q489 288 489 172 Q489 93 429 41 Q367 -13 271 -13 ZM322 383 Q411 457 411 546 Q411 608 374 649 Q335 692 271 692 Q214 692 177 654 Q140 617 140 559 Q140 493 197 447 Q234 418 322 383 ZM271 34 Q342 34 387 74 Q431 113 431 173 Q431 247 366 296 Q327 325 219 367 Q100 296 100 184 Q100 120 148 77 Q197 34 271 34 Z" /><glyph glyph-name="" unicode="9" d="M250 327 Q343 327 420 434 Q410 694 242 694 Q183 694 143 641 Q104 588 104 509 Q104 426 139 379 Q177 327 250 327 ZM96 95 Q146 37 223 37 Q307 37 358 113 Q417 200 421 377 Q341 280 243 280 Q151 280 99 339 Q46 399 46 509 Q46 610 105 677 Q162 742 243 742 Q351 742 413 656 Q478 566 478 404 Q478 189 400 80 Q333 -13 222 -13 Q128 -13 61 57 L96 95 Z" /><glyph glyph-name="" unicode=":" d="M125 405 Q104 405 89 420 Q74 435 74 459 Q74 484 89 499 Q104 514 125 514 Q146 514 161 499 Q176 484 176 459 Q176 435 161 420 Q146 405 125 405 ZM125 -13 Q104 -13 89 2 Q74 17 74 41 Q74 66 89 81 Q104 96 125 96 Q146 96 161 81 Q176 66 176 41 Q176 17 161 2 Q146 -13 125 -13 Z" /><glyph glyph-name="" unicode=";" d="M125 405 Q104 405 89 420 Q74 435 74 459 Q74 484 89 499 Q104 514 125 514 Q146 514 161 499 Q176 484 176 459 Q176 435 161 420 Q146 405 125 405 ZM53 -138 Q140 -93 141 -4 Q137 -5 129 -5 Q77 -5 77 46 Q77 69 93 83 Q108 96 130 96 Q190 96 190 10 Q190 -115 70 -176 L53 -138 Z" /><glyph glyph-name="" unicode="&lt;" d="M37 340 L37 395 L497 577 L497 523 L98 370 L98 365 L497 212 L497 158 L37 340 Z" /><glyph glyph-name="" unicode="=" d="M37 503 L497 503 L497 456 L37 456 L37 503 ZM37 274 L497 274 L497 228 L37 228 L37 274 Z" /><glyph glyph-name="" unicode="&gt;" d="M37 212 L437 365 L437 370 L37 523 L37 577 L497 395 L497 340 L37 158 L37 212 Z" /><glyph glyph-name="" unicode="?" d="M179 203 Q166 302 249 410 Q337 524 337 581 Q337 634 308 667 Q275 705 215 705 Q132 705 76 636 L41 668 Q119 755 221 755 Q301 755 349 707 Q396 660 396 585 Q396 515 306 400 Q221 291 232 203 L179 203 ZM209 -13 Q188 -13 174 2 Q159 17 159 41 Q159 66 174 81 Q188 96 209 96 Q230 96 245 81 Q261 66 261 41 Q261 17 245 2 Q230 -13 209 -13 Z" /><glyph glyph-name="" unicode="@" d="M433 -163 Q267 -163 164 -62 Q57 43 57 224 Q57 436 191 574 Q319 705 502 705 Q663 705 759 607 Q853 510 853 350 Q853 217 784 134 Q723 60 645 60 Q544 60 537 144 L535 144 Q464 67 399 67 Q344 67 309 106 Q271 147 271 220 Q271 310 326 386 Q388 470 479 470 Q539 470 570 416 L572 416 L583 461 L625 461 L585 250 Q550 105 650 105 Q708 105 755 168 Q806 238 806 346 Q806 489 725 574 Q642 660 498 660 Q341 660 226 542 Q105 417 105 227 Q105 67 198 -27 Q288 -119 437 -119 Q537 -119 621 -66 L641 -105 Q547 -163 433 -163 ZM408 112 Q462 112 524 184 L558 372 Q525 425 478 425 Q409 425 363 359 Q321 298 321 223 Q321 112 408 112 Z" /><glyph glyph-name="" unicode="a" d="M419 293 L375 425 Q337 532 295 675 L291 675 Q260 565 212 425 L167 293 L419 293 ZM435 245 L151 245 L68 0 L8 0 L263 729 L325 729 L580 0 L516 0 L435 245 Z" /><glyph glyph-name="" unicode="b" d="M106 729 L307 729 Q550 729 550 552 Q550 427 438 393 L438 388 Q594 361 594 213 Q594 110 520 54 Q448 0 322 0 L106 0 L106 729 ZM288 411 Q490 411 490 545 Q490 617 440 650 Q394 680 294 680 L166 680 L166 411 L288 411 ZM308 50 Q535 50 535 213 Q535 363 308 363 L166 363 L166 50 L308 50 Z" /><glyph glyph-name="" unicode="c" d="M368 -13 Q231 -13 147 89 Q60 192 60 365 Q60 538 148 641 Q234 742 374 742 Q491 742 566 654 L532 615 Q467 688 374 688 Q258 688 191 601 Q123 515 123 367 Q123 217 190 129 Q257 41 371 41 Q472 41 552 129 L586 91 Q496 -13 368 -13 Z" /><glyph glyph-name="" unicode="d" d="M106 729 L278 729 Q443 729 529 632 Q612 538 612 367 Q612 195 529 100 Q443 0 279 0 L106 0 L106 729 ZM272 51 Q411 51 483 138 Q549 220 549 367 Q549 514 483 594 Q412 679 272 679 L166 679 L166 51 L272 51 Z" /><glyph glyph-name="" unicode="e" d="M106 729 L509 729 L509 678 L166 678 L166 412 L455 412 L455 361 L166 361 L166 52 L520 52 L520 0 L106 0 L106 729 Z" /><glyph glyph-name="" unicode="f" d="M106 729 L508 729 L508 678 L166 678 L166 397 L455 397 L455 346 L166 346 L166 0 L106 0 L106 729 Z" /><glyph glyph-name="" unicode="g" d="M376 -13 Q234 -13 148 89 Q60 192 60 365 Q60 538 151 641 Q239 742 385 742 Q503 742 587 654 L552 615 Q484 688 386 688 Q265 688 194 601 Q123 515 123 367 Q123 216 191 129 Q260 41 382 41 Q485 41 537 93 L537 312 L368 312 L368 363 L595 363 L595 70 Q517 -13 376 -13 Z" /><glyph glyph-name="" unicode="h" d="M106 729 L166 729 L166 413 L545 413 L545 729 L604 729 L604 0 L545 0 L545 361 L166 361 L166 0 L106 0 L106 729 Z" /><glyph glyph-name="" unicode="i" d="M106 729 L166 729 L166 0 L106 0 L106 729 Z" /><glyph glyph-name="" unicode="j" d="M227 -13 Q102 -13 42 96 L87 126 Q137 41 225 41 Q353 41 353 208 L353 729 L413 729 L413 202 Q413 -13 227 -13 Z" /><glyph glyph-name="" unicode="k" d="M106 729 L166 729 L166 333 L168 333 L510 729 L581 729 L349 458 L614 0 L545 0 L309 411 L166 246 L166 0 L106 0 L106 729 Z" /><glyph glyph-name="" unicode="l" d="M106 729 L166 729 L166 52 L498 52 L498 0 L106 0 L106 729 Z" /><glyph glyph-name="" unicode="m" d="M106 729 L186 729 L393 150 L397 150 L451 310 L601 729 L681 729 L681 0 L624 0 L624 462 Q624 521 631 663 L627 663 L570 500 L417 78 L369 78 L215 500 L158 663 L154 663 Q161 521 161 462 L161 0 L106 0 L106 729 Z" /><glyph glyph-name="" unicode="n" d="M106 729 L168 729 L466 228 L547 81 L552 81 Q544 225 544 297 L544 729 L601 729 L601 0 L539 0 L242 502 L160 648 L155 648 Q163 461 163 437 L163 0 L106 0 L106 729 Z" /><glyph glyph-name="" unicode="o" d="M362 -13 Q228 -13 145 90 Q60 195 60 367 Q60 538 145 641 Q228 742 362 742 Q497 742 580 641 Q665 538 665 367 Q665 195 580 90 Q497 -13 362 -13 ZM362 41 Q471 41 537 130 Q603 219 603 367 Q603 515 537 602 Q471 688 362 688 Q253 688 189 602 Q123 515 123 367 Q123 219 189 130 Q254 41 362 41 Z" /><glyph glyph-name="" unicode="p" d="M106 729 L295 729 Q561 729 561 524 Q561 417 491 361 Q423 308 299 308 L166 308 L166 0 L106 0 L106 729 ZM287 358 Q396 358 448 397 Q500 437 500 524 Q500 610 446 646 Q396 679 283 679 L166 679 L166 358 L287 358 Z" /><glyph glyph-name="" unicode="q" d="M123 367 Q123 217 189 128 Q254 38 362 38 Q471 38 537 128 Q603 217 603 367 Q603 515 537 602 Q471 688 362 688 Q253 688 189 602 Q123 515 123 367 ZM671 -161 Q634 -174 578 -174 Q395 -174 331 -11 Q209 1 136 102 Q60 205 60 367 Q60 538 145 641 Q228 742 362 742 Q497 742 580 641 Q665 538 665 367 Q665 207 591 104 Q518 3 397 -11 Q447 -121 584 -121 Q628 -121 658 -111 L671 -161 Z" /><glyph glyph-name="" unicode="r" d="M166 379 L305 379 Q501 379 501 534 Q501 679 305 679 L166 679 L166 379 ZM509 0 L315 329 L166 329 L166 0 L106 0 L106 729 L319 729 Q562 729 562 534 Q562 362 380 334 L577 0 L509 0 Z" /><glyph glyph-name="" unicode="s" d="M299 -13 Q148 -13 51 96 L88 138 Q174 41 299 41 Q379 41 427 80 Q474 118 474 181 Q474 241 437 276 Q412 299 345 329 L236 377 Q88 443 88 559 Q88 639 150 691 Q210 742 304 742 Q429 742 510 654 L476 615 Q405 688 304 688 Q234 688 192 654 Q149 620 149 564 Q149 481 273 427 L382 379 Q456 346 490 310 Q535 261 535 185 Q535 100 471 44 Q405 -13 299 -13 Z" /><glyph glyph-name="" unicode="t" d="M261 678 L32 678 L32 729 L552 729 L552 678 L322 678 L322 0 L261 0 L261 678 Z" /><glyph glyph-name="" unicode="u" d="M352 -13 Q103 -13 103 285 L103 729 L163 729 L163 288 Q163 41 352 41 Q545 41 545 288 L545 729 L602 729 L602 285 Q602 -13 352 -13 Z" /><glyph glyph-name="" unicode="v" d="M4 729 L68 729 L274 66 L278 66 Q296 118 317 188 L485 729 L546 729 L309 0 L243 0 L4 729 Z" /><glyph glyph-name="" unicode="w" d="M30 729 L92 729 L180 307 Q200 215 229 69 L233 69 Q251 149 289 307 L400 729 L459 729 L571 307 L627 69 L632 69 Q659 216 678 307 L766 729 L825 729 L665 0 L597 0 L468 487 L430 651 L426 651 Q420 622 406 570 Q392 514 386 487 L261 0 L193 0 L30 729 Z" /><glyph glyph-name="" unicode="x" d="M236 377 L33 729 L99 729 L214 521 L273 420 L277 420 Q287 437 305 473 L446 729 L508 729 L305 374 L523 0 L458 0 L335 218 Q290 297 268 334 L264 334 Q213 236 203 218 L81 0 L19 0 L236 377 Z" /><glyph glyph-name="" unicode="y" d="M221 293 L2 729 L66 729 L211 427 Q234 378 249 348 L253 348 Q311 460 331 506 L438 729 L500 729 L281 293 L281 0 L221 0 L221 293 Z" /><glyph glyph-name="" unicode="z" d="M54 35 L466 678 L91 678 L91 729 L540 729 L540 694 L129 52 L545 52 L545 0 L54 0 L54 35 Z" /><glyph glyph-name="" unicode="[" d="M108 784 L289 784 L289 748 L153 748 L153 -132 L289 -132 L289 -168 L108 -168 L108 784 Z" /><glyph glyph-name="" unicode="\" d="M8 786 L55 786 L384 -177 L337 -177 L8 786 Z" /><glyph glyph-name="" unicode="]" d="M26 -132 L162 -132 L162 748 L26 748 L26 784 L207 784 L207 -168 L26 -168 L26 -132 Z" /><glyph glyph-name="" unicode="^" d="M239 742 L296 742 L463 319 L409 319 L270 685 L265 685 L126 319 L72 319 L239 742 Z" /><glyph glyph-name="" unicode="_" d="M13 -85 L541 -85 L541 -132 L13 -132 L13 -85 Z" /><glyph glyph-name="" unicode="a" d="M218 -13 Q150 -13 108 23 Q63 63 63 134 Q63 221 145 269 Q224 314 403 335 Q407 496 281 496 Q194 496 113 435 L87 477 Q190 547 289 547 Q461 547 461 338 L461 0 L412 0 L406 68 L404 68 Q305 -13 218 -13 ZM230 36 Q308 36 403 119 L403 292 Q250 274 183 236 Q121 200 121 137 Q121 36 230 36 Z" /><glyph glyph-name="" unicode="b" d="M314 -13 Q236 -13 156 54 L154 54 L147 0 L100 0 L100 795 L158 795 L158 567 L155 465 Q252 547 335 547 Q439 547 495 473 Q549 401 549 275 Q549 143 478 63 Q412 -13 314 -13 ZM309 38 Q388 38 437 103 Q487 169 487 275 Q487 496 324 496 Q251 496 158 411 L158 103 Q232 38 309 38 Z" /><glyph glyph-name="" unicode="c" d="M300 -13 Q193 -13 126 60 Q56 136 56 266 Q56 395 130 473 Q200 547 303 547 Q386 547 459 482 L426 442 Q369 496 304 496 Q224 496 171 432 Q117 367 117 266 Q117 164 168 101 Q219 37 303 37 Q376 37 442 96 L470 56 Q391 -13 300 -13 Z" /><glyph glyph-name="" unicode="d" d="M277 -13 Q175 -13 116 59 Q56 134 56 266 Q56 391 127 471 Q194 547 292 547 Q369 547 451 482 L447 578 L447 795 L505 795 L505 0 L457 0 L450 67 L448 67 Q368 -13 277 -13 ZM287 38 Q366 38 447 122 L447 430 Q373 496 298 496 Q221 496 170 430 Q118 364 118 266 Q118 161 162 100 Q207 38 287 38 Z" /><glyph glyph-name="" unicode="e" d="M304 -13 Q198 -13 129 61 Q56 138 56 266 Q56 391 128 471 Q195 547 290 547 Q387 547 441 482 Q496 416 496 299 Q496 277 493 257 L115 257 Q117 159 171 98 Q224 36 310 36 Q386 36 452 82 L474 39 Q391 -13 304 -13 ZM443 303 Q443 398 402 448 Q362 497 291 497 Q223 497 175 446 Q123 392 115 303 L443 303 Z" /><glyph glyph-name="" unicode="f" d="M312 744 Q279 759 249 759 Q167 759 167 642 L167 533 L288 533 L288 484 L167 484 L167 0 L109 0 L109 484 L35 484 L35 528 L109 533 L109 645 Q109 808 246 808 Q285 808 326 790 L312 744 Z" /><glyph glyph-name="" unicode="g" d="M275 -254 Q175 -254 115 -215 Q55 -175 55 -108 Q55 -35 135 19 L135 24 Q87 52 87 110 Q87 165 146 209 L146 213 Q78 269 78 358 Q78 440 134 494 Q189 547 269 547 Q306 547 340 533 L522 533 L522 485 L402 485 Q457 437 457 357 Q457 275 402 222 Q349 169 269 169 Q221 169 183 191 Q141 158 141 117 Q141 50 241 50 L353 50 Q531 50 531 -73 Q531 -146 462 -198 Q388 -254 275 -254 ZM269 213 Q323 213 361 253 Q401 294 401 358 Q401 422 362 462 Q325 500 269 500 Q213 500 175 462 Q136 422 136 358 Q136 294 176 253 Q214 213 269 213 ZM282 -210 Q365 -210 421 -169 Q473 -132 473 -81 Q473 -3 352 -3 L243 -3 Q217 -3 176 6 Q110 -40 110 -101 Q110 -150 155 -180 Q201 -210 282 -210 Z" /><glyph glyph-name="" unicode="h" d="M100 795 L158 795 L157 451 Q253 547 339 547 Q501 547 501 341 L501 0 L443 0 L443 333 Q443 495 326 495 Q251 495 158 399 L158 0 L100 0 L100 795 Z" /><glyph glyph-name="" unicode="i" d="M100 533 L158 533 L158 0 L100 0 L100 533 ZM130 658 Q109 658 95 671 Q81 684 81 704 Q81 752 130 752 Q179 752 179 704 Q179 684 164 671 Q150 658 130 658 Z" /><glyph glyph-name="" unicode="j" d="M33 -251 Q-8 -251 -38 -237 L-25 -191 Q6 -202 30 -202 Q71 -202 87 -170 Q100 -145 100 -88 L100 533 L159 533 L159 -90 Q159 -251 33 -251 ZM130 658 Q82 658 82 704 Q82 752 130 752 Q179 752 179 704 Q179 684 165 671 Q151 658 130 658 Z" /><glyph glyph-name="" unicode="k" d="M100 795 L158 795 L158 219 L160 219 L415 533 L481 533 L307 322 L509 0 L445 0 L273 280 L158 144 L158 0 L100 0 L100 795 Z" /><glyph glyph-name="" unicode="l" d="M171 -13 Q100 -13 100 79 L100 795 L158 795 L158 73 Q158 37 182 37 Q190 37 201 39 L210 -7 Q190 -13 171 -13 Z" /><glyph glyph-name="" unicode="m" d="M100 533 L148 533 L155 452 L157 452 Q243 547 325 547 Q440 547 472 439 Q572 547 652 547 Q812 547 812 341 L812 0 L754 0 L754 333 Q754 495 639 495 Q571 495 485 399 L485 0 L427 0 L427 333 Q427 495 312 495 Q242 495 158 399 L158 0 L100 0 L100 533 Z" /><glyph glyph-name="" unicode="n" d="M100 533 L148 533 L155 452 L157 452 Q254 547 339 547 Q501 547 501 341 L501 0 L443 0 L443 333 Q443 495 326 495 Q251 495 158 399 L158 0 L100 0 L100 533 Z" /><glyph glyph-name="" unicode="o" d="M297 -13 Q196 -13 128 60 Q56 138 56 266 Q56 395 128 473 Q196 547 297 547 Q398 547 466 473 Q538 395 538 266 Q538 138 466 60 Q398 -13 297 -13 ZM297 37 Q376 37 427 101 Q478 165 478 266 Q478 367 427 432 Q376 496 297 496 Q219 496 168 432 Q117 367 117 266 Q117 165 168 101 Q218 37 297 37 Z" /><glyph glyph-name="" unicode="p" d="M100 533 L148 533 L155 468 L157 468 Q260 547 335 547 Q439 547 495 473 Q549 401 549 275 Q549 143 478 63 Q412 -13 314 -13 Q241 -13 157 52 L158 -238 L100 -238 L100 533 ZM309 38 Q388 38 437 103 Q487 169 487 275 Q487 496 324 496 Q254 496 158 411 L158 103 Q235 38 309 38 Z" /><glyph glyph-name="" unicode="q" d="M447 -35 L451 69 Q367 -13 277 -13 Q175 -13 116 59 Q56 134 56 266 Q56 391 127 471 Q194 547 292 547 Q371 547 449 483 L451 483 L458 533 L505 533 L505 -238 L447 -238 L447 -35 ZM287 38 Q366 38 447 122 L447 430 Q373 496 298 496 Q221 496 170 430 Q118 364 118 266 Q118 161 162 100 Q207 38 287 38 Z" /><glyph glyph-name="" unicode="r" d="M100 533 L148 533 L155 434 L157 434 Q218 547 308 547 Q339 547 362 535 L350 483 Q327 492 301 492 Q211 492 158 358 L158 0 L100 0 L100 533 Z" /><glyph glyph-name="" unicode="s" d="M231 -13 Q123 -13 35 60 L66 102 Q145 35 234 35 Q292 35 325 65 Q356 92 356 136 Q356 204 227 250 Q147 278 114 303 Q60 342 60 403 Q60 464 106 504 Q154 547 235 547 Q319 547 390 490 L360 450 Q296 498 233 498 Q177 498 146 470 Q118 445 118 406 Q118 367 157 341 Q179 325 242 302 Q330 269 359 248 Q414 207 414 139 Q414 75 367 32 Q316 -13 231 -13 Z" /><glyph glyph-name="" unicode="t" d="M250 -13 Q113 -13 113 152 L113 484 L30 484 L30 528 L115 533 L122 687 L171 687 L171 533 L324 533 L324 484 L171 484 L171 148 Q171 37 260 37 Q289 37 325 52 L339 7 Q283 -13 250 -13 Z" /><glyph glyph-name="" unicode="u" d="M253 -13 Q92 -13 92 192 L92 533 L150 533 L150 199 Q150 39 266 39 Q345 39 432 143 L432 533 L490 533 L490 0 L441 0 L436 88 L433 88 Q345 -13 253 -13 Z" /><glyph glyph-name="" unicode="v" d="M13 533 L76 533 L191 206 Q223 107 244 52 L248 52 Q283 149 301 206 L417 533 L476 533 L280 0 L211 0 L13 533 Z" /><glyph glyph-name="" unicode="w" d="M26 533 L88 533 L181 197 L215 52 L220 52 Q228 80 258 197 L353 533 L417 533 L512 197 Q535 107 551 52 L555 52 L592 197 L683 533 L740 533 L590 0 L515 0 L425 321 Q417 348 405 397 Q392 449 385 474 L380 474 Q358 378 339 319 L252 0 L182 0 L26 533 Z" /><glyph glyph-name="" unicode="x" d="M195 279 L30 533 L94 533 L176 402 Q201 361 233 314 L237 314 L369 533 L430 533 L265 273 L445 0 L380 0 L289 141 Q263 189 228 238 L223 238 L77 0 L15 0 L195 279 Z" /><glyph glyph-name="" unicode="y" d="M85 -240 Q52 -240 28 -229 L41 -180 Q63 -188 84 -188 Q171 -188 217 -53 L231 -8 L13 533 L76 533 L256 57 L261 57 L309 207 L418 533 L477 533 L269 -62 Q207 -240 85 -240 Z" /><glyph glyph-name="" unicode="z" d="M32 31 L339 484 L65 484 L65 533 L414 533 L414 502 L107 50 L424 50 L424 0 L32 0 L32 31 Z" /><glyph glyph-name="" unicode="{" d="M249 -168 Q183 -168 156 -139 Q125 -107 125 -26 Q125 16 130 88 Q134 161 134 198 Q134 288 39 288 L39 328 Q134 328 134 415 Q134 454 130 527 Q125 600 125 641 Q125 723 156 755 Q183 784 249 784 L289 784 L289 748 L256 748 Q209 748 190 721 Q173 696 173 636 Q173 602 177 535 Q180 467 180 426 Q180 327 121 310 L121 306 Q180 288 180 189 Q180 148 177 81 Q173 14 173 -20 Q173 -79 190 -104 Q209 -132 256 -132 L289 -132 L289 -168 L249 -168 Z" /><glyph glyph-name="" unicode="|" d="M105 831 L149 831 L149 -277 L105 -277 L105 831 Z" /><glyph glyph-name="" unicode="}" d="M26 -132 L59 -132 Q106 -132 124 -104 Q141 -80 141 -20 Q141 14 138 81 Q135 148 135 189 Q135 288 194 306 L194 310 Q135 327 135 426 Q135 467 138 535 Q141 602 141 636 Q141 696 124 721 Q106 748 59 748 L26 748 L26 784 L66 784 Q131 784 159 755 Q190 723 190 641 Q190 600 186 527 Q181 454 181 415 Q181 328 276 328 L276 288 Q181 288 181 198 Q181 161 186 88 Q190 16 190 -26 Q190 -107 159 -139 Q131 -168 66 -168 L26 -168 L26 -132 Z" /><glyph glyph-name="" unicode="~" d="M366 293 Q320 293 258 342 Q195 391 166 391 Q116 391 79 322 L44 345 Q93 438 169 438 Q214 438 277 389 Q339 340 368 340 Q420 340 455 409 L491 385 Q441 293 366 293 Z" /><glyph glyph-name="" unicode="¥" d="M237 182 L54 182 L54 222 L237 222 L237 299 L54 299 L54 340 L220 340 L31 708 L94 708 L194 499 L265 347 L270 347 Q327 468 343 499 L444 708 L504 708 L313 340 L480 340 L480 299 L296 299 L296 222 L480 222 L480 182 L296 182 L296 0 L237 0 L237 182 Z" /><glyph glyph-name="" unicode="©" d="M411 -12 Q263 -12 162 89 Q56 193 56 357 Q56 520 162 624 Q263 723 411 723 Q559 723 660 624 Q766 520 766 357 Q766 193 660 89 Q559 -12 411 -12 ZM411 23 Q541 23 631 115 Q724 211 724 357 Q724 502 631 596 Q541 687 411 687 Q281 687 191 596 Q97 502 97 357 Q97 211 191 115 Q281 23 411 23 ZM417 138 Q334 138 280 196 Q222 257 222 357 Q222 450 283 509 Q340 565 422 565 Q496 565 556 503 L528 471 Q477 519 423 519 Q357 519 316 474 Q275 429 275 357 Q275 277 315 230 Q354 183 420 183 Q483 183 544 237 L568 202 Q497 138 417 138 Z" /><glyph glyph-name="" unicode="®" d="M225 358 Q140 358 82 417 Q22 478 22 573 Q22 667 82 729 Q140 789 225 789 Q309 789 368 729 Q428 667 428 573 Q428 478 368 417 Q310 358 225 358 ZM225 391 Q295 391 343 442 Q391 494 391 573 Q391 651 343 704 Q295 756 225 756 Q154 756 106 704 Q57 651 57 573 Q57 494 106 442 Q154 391 225 391 ZM148 691 L227 691 Q311 691 311 619 Q311 570 268 558 L322 463 L279 463 L236 546 L186 546 L186 463 L148 463 L148 691 ZM217 577 Q271 577 271 617 Q271 658 220 658 L186 658 L186 577 L217 577 Z" /><glyph glyph-name="" unicode="°" d="M175 491 Q122 491 85 527 Q46 565 46 624 Q46 684 85 722 Q122 758 175 758 Q228 758 265 722 Q304 684 304 624 Q304 565 265 527 Q228 491 175 491 ZM175 529 Q213 529 238 556 Q262 583 262 624 Q262 665 238 693 Q213 720 175 720 Q136 720 112 693 Q87 666 87 624 Q87 583 112 556 Q136 529 175 529 Z" /><glyph glyph-name="" unicode="±" d="M868 463 L525 463 L525 175 L475 175 L475 463 L132 463 L132 512 L475 512 L475 800 L525 800 L525 512 L868 512 L868 463 ZM870 73 L870 23 L132 23 L132 73 L870 73 Z" /><glyph glyph-name="" unicode="²" d="M62 477 Q182 588 222 637 Q273 699 273 749 Q273 795 248 823 Q223 850 180 850 Q127 850 81 782 L50 810 Q102 892 186 892 Q248 892 284 858 Q322 822 322 755 Q322 696 271 629 Q241 589 141 490 L347 490 L347 447 L62 447 L62 477 Z" /><glyph glyph-name="" unicode="·" d="M265 304 Q245 304 230 319 Q214 335 214 358 Q214 383 230 399 Q244 413 265 413 Q286 413 301 399 Q317 383 317 358 Q317 335 301 319 Q286 304 265 304 Z" /><glyph glyph-name="" unicode="º" d="M199 438 Q129 438 83 487 Q35 538 35 623 Q35 709 83 760 Q129 808 199 808 Q269 808 314 760 Q362 709 362 623 Q362 538 314 487 Q269 438 199 438 ZM199 479 Q250 479 282 520 Q313 559 313 623 Q313 688 282 728 Q251 768 199 768 Q147 768 116 728 Q85 688 85 623 Q85 559 116 520 Q148 479 199 479 Z" /><glyph glyph-name="" unicode="×" d="M783 56 L500 339 L217 56 L182 90 L466 374 L182 656 L218 691 L500 408 L783 691 L818 657 L535 374 L818 90 L783 56 Z" /><glyph glyph-name="" unicode="ñ" d="M100 533 L148 533 L155 452 L157 452 Q254 547 339 547 Q501 547 501 341 L501 0 L443 0 L443 333 Q443 495 326 495 Q251 495 158 399 L158 0 L100 0 L100 533 ZM399 641 Q355 641 307 693 Q259 744 232 744 Q178 744 175 644 L132 647 Q138 789 233 789 Q276 789 324 738 Q373 686 400 686 Q451 686 456 785 L499 782 Q491 641 399 641 Z" /><glyph glyph-name="" unicode="ø" d="M176 89 Q226 36 297 36 Q376 36 428 99 Q480 164 480 264 Q480 351 443 411 L176 89 ZM418 444 Q370 497 297 497 Q218 497 167 433 Q115 369 115 268 Q115 182 151 121 L418 444 ZM481 456 Q538 379 538 266 Q538 138 466 60 Q398 -13 297 -13 Q207 -13 142 47 L82 -25 L51 0 L114 76 Q56 152 56 266 Q56 395 128 473 Q196 547 297 547 Q389 547 453 486 L512 557 L544 532 L481 456 Z" /><glyph glyph-name="" unicode="&#x192;" d="M481 676 Q447 692 413 692 Q323 692 303 522 L295 449 L445 449 L445 402 L290 402 L259 115 Q233 -108 87 -108 Q45 -108 14 -90 L28 -46 Q52 -58 86 -58 Q184 -58 203 122 L233 402 L130 402 L130 445 L204 449 L239 449 L246 518 Q270 742 412 742 Q454 742 496 722 L481 676 Z" /><glyph glyph-name="" unicode="&#x3a6;" d="M415 132 Q529 135 596 200 Q662 263 662 367 Q662 470 596 532 Q529 595 415 598 L415 132 ZM361 598 Q247 595 180 532 Q113 470 113 367 Q113 264 180 200 Q248 135 361 132 L361 598 ZM415 646 Q556 642 639 568 Q723 493 723 367 Q723 240 639 163 Q556 87 415 83 L415 -24 L361 -24 L361 83 Q221 87 137 163 Q53 240 53 367 Q53 494 137 569 Q220 643 361 646 L361 754 L415 754 L415 646 Z" /><glyph glyph-name="" unicode="&#x3a9;" d="M51 51 L206 51 L206 55 Q65 192 65 386 Q65 542 147 641 Q231 742 368 742 Q504 742 588 641 Q670 542 670 386 Q670 190 529 55 L529 51 L685 51 L685 0 L443 0 L443 44 Q608 164 608 385 Q608 517 545 601 Q479 688 368 688 Q257 688 191 601 Q127 517 127 385 Q127 164 292 44 L292 0 L51 0 L51 51 Z" /><glyph glyph-name="" unicode="&#x3bc;" d="M100 533 L158 533 L158 199 Q158 39 271 39 Q367 39 436 158 L436 533 L494 533 Q494 479 492 303 Q490 162 490 78 Q490 37 525 37 Q537 37 557 44 L565 -2 Q543 -13 515 -13 Q475 -13 458 13 Q441 38 439 97 L437 97 Q373 -12 273 -12 Q187 -12 152 51 Q153 -117 159 -199 L100 -199 L100 533 Z" /><glyph glyph-name="" unicode="&#x420;" d="M106 729 L295 729 Q561 729 561 524 Q561 417 491 361 Q423 308 299 308 L166 308 L166 0 L106 0 L106 729 ZM287 358 Q396 358 448 397 Q500 437 500 524 Q500 610 446 646 Q396 679 283 679 L166 679 L166 358 L287 358 Z" /><glyph glyph-name="" unicode="&#x423;" d="M139 -13 Q104 -13 77 -3 L92 53 Q110 45 134 45 Q206 45 239 116 L256 162 L8 729 L71 729 L230 355 L283 225 L287 225 L336 355 L483 729 L546 729 L300 118 Q247 -13 139 -13 Z" /><glyph glyph-name="" unicode="&#x430;" d="M218 -13 Q150 -13 108 23 Q63 63 63 134 Q63 221 145 269 Q224 314 403 335 Q407 496 281 496 Q194 496 113 435 L87 477 Q190 547 289 547 Q461 547 461 338 L461 0 L412 0 L406 68 L404 68 Q305 -13 218 -13 ZM230 36 Q308 36 403 119 L403 292 Q250 274 183 236 Q121 200 121 137 Q121 36 230 36 Z" /><glyph glyph-name="" unicode="&#x438;" d="M100 533 L157 533 L157 276 Q157 242 150 76 L155 76 L230 192 L461 533 L516 533 L516 0 L459 0 L459 256 Q459 291 466 457 L461 457 Q446 433 386 342 L155 0 L100 0 L100 533 Z" /><glyph glyph-name="" unicode="&#x439;" d="M100 533 L157 533 L157 276 Q157 242 150 76 L155 76 L230 192 L461 533 L516 533 L516 0 L459 0 L459 256 Q459 291 466 457 L461 457 Q446 433 386 342 L155 0 L100 0 L100 533 ZM310 635 Q157 635 144 799 L196 799 Q200 674 310 674 Q420 674 424 799 L476 799 Q471 731 437 689 Q394 635 310 635 Z" /><glyph glyph-name="" unicode="&#x43a;" d="M510 0 L446 0 L286 254 L158 254 L158 0 L100 0 L100 533 L158 533 L158 303 L284 303 L339 432 Q388 547 465 547 Q477 547 492 542 L480 486 Q473 488 463 488 Q417 488 382 406 L329 280 L510 0 Z" /><glyph glyph-name="" unicode="&#x43d;" d="M100 533 L158 533 L158 306 L455 306 L455 533 L513 533 L513 0 L455 0 L455 253 L158 253 L158 0 L100 0 L100 533 Z" /><glyph glyph-name="" unicode="&#x440;" d="M100 533 L148 533 L155 468 L157 468 Q260 547 335 547 Q439 547 495 473 Q549 401 549 275 Q549 143 478 63 Q412 -13 314 -13 Q241 -13 157 52 L158 -238 L100 -238 L100 533 ZM309 38 Q388 38 437 103 Q487 169 487 275 Q487 496 324 496 Q254 496 158 411 L158 103 Q235 38 309 38 Z" /><glyph glyph-name="" unicode="&#x441;" d="M300 -13 Q193 -13 126 60 Q56 136 56 266 Q56 395 130 473 Q200 547 303 547 Q386 547 459 482 L426 442 Q369 496 304 496 Q224 496 171 432 Q117 367 117 266 Q117 164 168 101 Q219 37 303 37 Q376 37 442 96 L470 56 Q391 -13 300 -13 Z" /><glyph glyph-name="" unicode="&#x443;" d="M85 -240 Q52 -240 28 -229 L41 -180 Q63 -188 84 -188 Q171 -188 217 -53 L231 -8 L13 533 L76 533 L256 57 L261 57 L309 207 L418 533 L477 533 L269 -62 Q207 -240 85 -240 Z" /><glyph glyph-name="" unicode="&#x1ec7;" d="M304 -13 Q198 -13 129 61 Q56 138 56 266 Q56 391 128 471 Q195 547 290 547 Q387 547 441 482 Q496 416 496 299 Q496 277 493 257 L115 257 Q117 159 171 98 Q224 36 310 36 Q386 36 452 82 L474 39 Q391 -13 304 -13 ZM443 303 Q443 398 402 448 Q362 497 291 497 Q223 497 175 446 Q123 392 115 303 L443 303 ZM262 817 L318 817 L447 658 L419 633 L292 768 L288 768 L161 633 L133 658 L262 817 ZM287 -218 Q240 -218 240 -169 Q240 -123 287 -123 Q306 -123 319 -136 Q333 -149 333 -169 Q333 -218 287 -218 Z" /><glyph glyph-name="" unicode="&#x2012;&#x2013;" d="M45 300 L487 300 L487 255 L45 255 L45 300 Z" /><glyph glyph-name="" unicode="&#x2014;" d="M45 300 L841 300 L841 255 L45 255 L45 300 Z" /><glyph glyph-name="" unicode="&#x201c;" d="M769 810 Q682 765 682 682 Q695 693 713 693 Q771 693 771 633 Q771 611 756 594 Q739 574 710 574 Q679 574 658 598 Q636 623 636 661 Q636 720 673 772 Q706 818 753 839 L769 810 ZM954 810 Q868 765 866 682 Q881 693 898 693 Q924 693 940 676 Q956 659 956 633 Q956 611 941 594 Q923 574 894 574 Q864 574 843 598 Q821 624 821 661 Q821 721 857 772 Q890 818 938 839 L954 810 Z" /><glyph glyph-name="" unicode="&#x201d;" d="M231 601 Q318 648 318 729 Q306 719 287 719 Q261 719 245 736 Q229 753 229 778 Q229 801 244 818 Q261 838 290 838 Q321 838 342 814 Q364 789 364 751 Q364 692 327 640 Q294 594 247 572 L231 601 ZM46 601 Q132 648 134 729 Q121 719 102 719 Q76 719 60 736 Q44 753 44 778 Q44 801 59 818 Q77 838 106 838 Q136 838 157 814 Q179 788 179 751 Q179 691 143 640 Q110 594 62 572 L46 601 Z" /><glyph glyph-name="" unicode="&#x2022;&#x2027;" d="M444 380 Q444 404 460 420 Q476 436 500 436 Q524 436 540 420 Q556 404 556 380 Q556 356 540 340 Q524 324 500 324 Q476 324 460 340 Q444 356 444 380 Z" /><glyph glyph-name="" unicode="&#x2026;&#x22ef;" d="M111 380 Q111 404 127 420 Q143 436 167 436 Q191 436 207 420 Q223 404 223 380 Q223 356 207 340 Q191 324 167 324 Q143 324 127 340 Q111 356 111 380 ZM444 380 Q444 404 460 420 Q476 436 500 436 Q524 436 540 420 Q556 404 556 380 Q556 356 540 340 Q524 324 500 324 Q476 324 460 340 Q444 356 444 380 ZM777 380 Q777 404 793 420 Q809 436 833 436 Q857 436 873 420 Q889 404 889 380 Q889 356 873 340 Q857 324 833 324 Q809 324 793 340 Q777 356 777 380 Z" /><glyph glyph-name="" unicode="&#x2103;" d="M189 487 Q135 487 98 522 Q58 560 58 619 Q58 680 98 718 Q135 754 189 754 Q242 754 279 718 Q318 680 318 619 Q318 560 279 522 Q242 487 189 487 ZM189 526 Q227 526 251 552 Q276 579 276 619 Q276 661 251 688 Q227 714 189 714 Q150 714 126 688 Q102 661 102 619 Q102 578 126 552 Q150 526 189 526 ZM729 -13 Q591 -13 506 88 Q420 191 420 363 Q420 535 508 638 Q594 738 734 738 Q848 738 927 651 L889 610 Q826 681 735 681 Q620 681 554 596 Q487 510 487 364 Q487 218 553 131 Q619 45 731 45 Q832 45 908 130 L945 90 Q856 -13 729 -13 Z" /><glyph glyph-name="" unicode="&#x2122;" d="M119 705 L2 705 L2 749 L284 749 L284 705 L167 705 L167 408 L119 408 L119 705 ZM341 749 L404 749 L460 612 L494 519 L498 519 L531 612 L586 749 L649 749 L649 408 L603 408 L603 581 L609 691 L605 691 L515 461 L474 461 L385 691 L381 691 L387 581 L387 408 L341 408 L341 749 Z" /><glyph glyph-name="" unicode="&#x2192;" d="M40 405 L849 405 Q741 486 669 583 L711 610 Q815 475 965 380 Q815 285 711 150 L669 177 Q741 274 849 355 L40 355 L40 405 Z" /><glyph glyph-name="" unicode="&#x2212;&#xff0d;" d="M868 398 L868 349 L132 349 L132 398 L868 398 Z" /><glyph glyph-name="" unicode="&#x2215;&#xff0f;" d="M935 842 L962 815 L65 -82 L38 -55 L935 842 Z" /><glyph glyph-name="" unicode="&#x2264;" d="M872 26 L855 -18 L105 284 L123 328 L872 26 ZM238 481 L874 224 L855 179 L106 481 L106 485 L855 788 L874 742 L238 485 L238 481 Z" /><glyph glyph-name="" unicode="&#x2e9f;&#x6bcd;" d="M424 681 Q561 620 636 548 L606 513 Q536 583 396 651 L424 681 ZM586 175 Q506 262 355 334 L384 364 Q538 292 618 209 L586 175 ZM747 137 Q762 248 773 419 L233 419 Q214 288 187 137 L747 137 ZM280 736 Q267 636 241 465 L776 465 Q780 522 790 736 L280 736 ZM822 419 Q811 246 798 137 L904 137 L904 92 L790 92 Q774 -2 747 -35 Q721 -69 672 -72 Q619 -75 526 -67 Q524 -38 513 -22 Q589 -29 660 -29 Q689 -29 703 -11 Q724 10 740 92 L129 92 Q156 227 186 419 L64 419 L64 465 L193 465 Q223 648 237 781 L839 781 L839 751 Q829 523 825 465 L935 465 L935 419 L822 419 Z" /><glyph glyph-name="" unicode="&#x2ea0;&#x6c11;" d="M524 333 Q505 422 499 508 L210 508 L210 333 L524 333 ZM210 732 L210 554 L813 554 L813 732 L210 732 ZM586 287 Q628 150 702 67 Q777 -16 859 -15 Q884 -14 895 20 Q905 51 910 135 Q927 119 953 112 Q946 12 926 -25 Q905 -62 858 -62 Q754 -63 667 35 Q582 130 537 287 L210 287 L210 -2 L453 62 Q453 38 459 18 Q170 -63 146 -78 Q139 -54 122 -33 Q162 -12 162 33 L162 777 L861 777 L861 508 L548 508 Q554 419 574 333 L937 333 L937 287 L586 287 Z" /><glyph glyph-name="" unicode="&#x2ec1;&#x864e;" d="M198 583 L198 339 Q198 64 77 -69 Q63 -50 40 -39 Q151 82 151 339 L151 625 L447 625 L447 832 L496 832 L496 754 L825 754 L825 713 L496 713 L496 625 L872 625 L882 628 L916 617 Q880 524 860 486 L817 498 Q837 540 851 583 L198 583 ZM549 300 Q479 300 457 313 Q433 326 433 368 L433 424 L259 405 L253 444 L433 463 L433 554 L479 554 L479 469 L749 499 L755 460 L479 429 L479 368 Q479 351 491 346 Q505 340 548 340 L769 340 Q801 340 810 353 Q820 366 822 414 Q843 404 866 399 Q861 339 843 320 Q825 300 774 300 L549 300 ZM870 -16 Q896 -16 904 6 Q912 29 914 113 Q929 103 956 95 Q952 3 936 -26 Q920 -55 874 -55 L731 -55 Q679 -55 662 -42 Q644 -29 644 10 L644 191 L430 191 Q424 67 383 12 Q340 -47 225 -76 Q220 -56 200 -39 Q313 -12 350 46 Q383 97 386 233 L689 233 L689 11 Q689 -6 697 -11 Q705 -16 734 -16 L870 -16 Z" /><glyph glyph-name="" unicode="&#x2ec5;&#x89c1;" d="M804 771 L804 206 L754 206 L754 723 L241 723 L241 206 L193 206 L193 771 L804 771 ZM516 620 Q507 285 444 160 Q357 -10 83 -73 Q74 -52 55 -31 Q321 26 402 185 Q459 298 467 620 L516 620 ZM576 293 L576 28 Q576 7 588 1 Q599 -6 638 -6 L828 -6 Q866 -6 876 21 Q887 49 890 153 Q910 138 935 132 Q930 19 911 -15 Q892 -51 830 -51 L638 -51 Q573 -51 552 -36 Q529 -20 529 27 L529 293 L576 293 Z" /><glyph glyph-name="" unicode="&#x2ec6;&#x89d2;" d="M815 209 L815 363 L543 363 L543 209 L815 209 ZM496 209 L496 363 L245 363 L245 356 Q245 274 235 209 L496 209 ZM341 718 Q296 656 242 600 L551 600 Q603 652 641 718 L341 718 ZM245 407 L496 407 L496 555 L245 555 L245 407 ZM815 555 L543 555 L543 407 L815 407 L815 555 ZM863 2 Q863 -48 827 -59 Q799 -68 661 -68 Q658 -48 642 -20 Q744 -23 792 -20 Q815 -20 815 2 L815 164 L543 164 L543 -52 L496 -52 L496 164 L227 164 Q196 13 106 -82 Q94 -63 70 -46 Q197 86 197 356 L197 556 Q152 514 101 478 Q80 502 65 511 Q253 639 356 834 L410 825 Q391 792 370 761 L671 761 L679 764 L711 741 Q673 672 607 600 L863 600 L863 2 Z" /><glyph glyph-name="" unicode="&#x2ec9;&#x8d1d;" d="M526 649 L526 444 Q526 277 461 176 Q364 24 96 -72 Q85 -52 65 -32 Q327 57 419 199 Q478 290 478 444 L478 649 L526 649 ZM560 150 Q769 63 906 -30 L877 -69 Q742 27 532 118 L560 150 ZM815 778 L815 200 L767 200 L767 732 L237 732 L237 199 L189 199 L189 778 L815 778 Z" /><glyph glyph-name="" unicode="&#x2ecb;&#x8f66;" d="M933 127 L565 127 L565 -74 L515 -74 L515 127 L70 127 L70 174 L515 174 L515 351 L274 351 Q188 351 171 337 Q165 361 153 387 Q175 392 219 469 Q248 510 311 639 L82 639 L82 686 L333 686 Q369 765 393 835 L445 819 Q425 768 388 686 L917 686 L917 639 L365 639 Q300 504 228 397 L515 397 L515 562 L565 562 L565 397 L852 397 L852 351 L565 351 L565 174 L933 174 L933 127 Z" /><glyph glyph-name="" unicode="&#x2ed3;&#x957f;" d="M826 790 Q683 615 437 493 Q422 512 396 530 Q640 638 779 808 L826 790 ZM539 386 Q661 89 961 -2 Q940 -20 927 -45 Q616 59 489 386 L313 386 L313 7 L569 74 Q569 48 574 31 Q272 -54 249 -70 Q243 -43 229 -24 Q264 -11 264 29 L264 386 L60 386 L60 434 L264 434 L264 826 L313 826 L313 434 L940 434 L940 386 L539 386 Z" /><glyph glyph-name="" unicode="&#x2ed4;&#x95e8;" d="M101 643 L149 643 L149 -74 L101 -74 L101 643 ZM175 831 Q270 728 317 655 L277 627 Q228 711 138 810 L175 831 ZM904 5 Q904 -50 862 -63 Q824 -73 673 -71 Q670 -51 654 -23 Q793 -26 829 -23 Q856 -22 856 4 L856 748 L356 748 L356 794 L904 794 L904 5 Z" /><glyph glyph-name="" unicode="&#x2ed8;&#x9752;" d="M752 135 L752 224 L257 224 L257 135 L752 135 ZM257 351 L257 263 L752 263 L752 351 L257 351 ZM800 -11 Q800 -53 767 -64 Q740 -72 608 -72 Q606 -62 591 -30 Q697 -33 731 -31 Q752 -30 752 -11 L752 96 L257 96 L257 -76 L210 -76 L210 392 L800 392 L800 -11 ZM937 506 L937 465 L63 465 L63 506 L475 506 L475 595 L161 595 L161 635 L475 635 L475 715 L130 715 L130 756 L475 756 L475 832 L523 832 L523 756 L883 756 L883 715 L523 715 L523 635 L841 635 L841 595 L523 595 L523 506 L937 506 Z" /><glyph glyph-name="" unicode="&#x2eda;&#x9875;" d="M478 470 L526 470 L526 287 Q526 164 455 91 Q355 -14 85 -73 Q77 -55 58 -32 Q317 21 412 116 Q478 180 478 288 L478 470 ZM579 152 Q794 56 917 -38 L887 -76 Q764 17 551 120 L579 152 ZM929 774 L929 728 L528 728 Q490 640 464 591 L821 591 L821 125 L771 125 L771 545 L234 545 L234 125 L186 125 L186 591 L413 591 Q445 650 472 728 L79 728 L79 774 L929 774 Z" /><glyph glyph-name="" unicode="&#x2edb;&#x98ce;" d="M666 640 Q617 486 539 350 Q674 178 738 75 L693 48 Q636 143 513 306 Q403 128 278 39 Q263 58 240 76 Q367 157 482 345 Q381 476 285 584 L325 606 Q408 513 509 389 Q579 513 624 652 L666 640 ZM828 776 Q827 358 837 211 Q852 -14 902 -14 Q922 -14 926 137 Q943 118 961 109 Q956 6 945 -28 Q932 -63 898 -63 Q819 -63 797 139 Q783 267 780 730 L217 730 L217 471 Q217 105 88 -74 Q73 -54 48 -41 Q169 124 169 471 L169 776 L828 776 Z" /><glyph glyph-name="" unicode="&#x2edc;&#x98de;" d="M903 260 Q824 331 664 423 Q705 8 865 9 Q906 10 914 184 Q935 167 952 159 Q946 44 929 4 Q910 -38 863 -39 Q720 -38 660 164 Q611 330 600 719 L76 719 L76 767 L647 767 Q650 589 659 483 Q786 582 874 684 L919 659 Q798 537 689 457 Q842 376 931 298 L903 260 Z" /><glyph glyph-name="" unicode="&#x2edd;&#x2fb7;&#x98df;" d="M853 223 Q775 155 666 91 Q797 15 861 -36 L826 -70 Q681 45 442 163 L474 193 Q557 152 626 113 Q748 188 815 248 L853 223 ZM764 562 Q604 647 502 758 Q404 645 263 562 L497 562 Q468 621 437 658 L477 672 Q522 617 546 562 L764 562 ZM727 268 L727 377 L272 377 L272 268 L727 268 ZM272 520 L272 417 L727 417 L727 520 L272 520 ZM545 815 Q543 811 537 804 L529 792 Q687 613 962 534 Q943 516 929 491 Q862 512 775 556 L775 226 L272 226 L272 -4 L525 50 Q523 24 525 6 Q238 -59 214 -73 Q210 -57 193 -30 Q224 -10 224 32 L224 541 Q156 504 77 475 Q61 501 46 516 Q366 622 501 835 L545 815 Z" /><glyph glyph-name="" unicode="&#x2ee2;&#x9a6c;" d="M707 149 L62 149 L62 195 L707 195 L707 149 ZM906 381 Q906 362 904 356 Q872 2 820 -47 Q797 -69 749 -72 Q657 -72 592 -67 Q590 -42 576 -20 Q646 -27 735 -27 Q769 -27 780 -17 Q826 26 854 335 L223 335 L223 336 L206 336 Q226 470 238 632 L284 628 Q269 460 259 381 L682 381 Q701 514 721 720 L139 720 L139 767 L729 767 L738 771 L772 766 Q757 576 730 381 L906 381 Z" /><glyph glyph-name="" unicode="&#x2ee3;&#x9aa8;" d="M735 132 L735 231 L269 231 L269 132 L735 132 ZM269 366 L269 271 L735 271 L735 366 L269 366 ZM782 -13 Q782 -54 750 -65 Q724 -73 599 -73 Q596 -52 582 -31 Q673 -34 715 -31 Q735 -30 735 -12 L735 92 L269 92 L269 -73 L222 -73 L222 407 L782 407 L782 -13 ZM275 527 L512 527 L512 631 L275 631 L275 527 ZM275 747 L275 669 L556 669 L556 527 L727 527 L727 747 L275 747 ZM911 527 L911 349 L865 349 L865 483 L133 483 L133 349 L88 349 L88 527 L229 527 L229 788 L774 788 L774 527 L911 527 Z" /><glyph glyph-name="" unicode="&#x2ee5;&#x9c7c;" d="M328 699 Q268 623 211 570 L518 570 Q578 630 617 699 L328 699 ZM793 527 L523 527 L523 373 L793 373 L793 527 ZM793 332 L523 332 L523 176 L793 176 L793 332 ZM477 373 L477 527 L221 527 L221 373 L477 373 ZM221 332 L221 176 L477 176 L477 332 L221 332 ZM174 538 Q139 508 102 482 Q92 500 68 517 Q259 643 362 835 L415 825 Q392 786 363 744 L648 744 L657 746 L689 725 Q649 649 577 570 L841 570 L841 133 L174 133 L174 538 ZM936 23 L936 -23 L68 -23 L68 23 L936 23 Z" /><glyph glyph-name="" unicode="&#x2ee6;&#x9e1f;" d="M726 133 L54 133 L54 177 L726 177 L726 133 ZM909 364 Q908 346 907 340 Q881 2 835 -45 Q815 -67 773 -69 Q728 -71 647 -66 Q645 -41 633 -21 Q687 -27 758 -27 Q785 -27 795 -16 Q834 20 858 318 L200 318 L200 728 L411 728 Q444 790 462 837 L514 825 Q486 771 461 728 L800 728 L798 705 Q775 482 739 447 Q721 429 688 428 Q661 425 601 430 Q599 452 588 473 Q639 469 673 469 Q693 469 702 478 Q729 503 749 682 L246 682 L246 364 L909 364 ZM542 484 Q469 533 334 596 L361 625 Q508 559 570 518 L542 484 Z" /><glyph glyph-name="" unicode="&#x2ee8;&#x9ea6;" d="M312 281 Q376 181 504 107 Q647 182 720 281 L312 281 ZM794 306 Q718 175 552 82 Q721 0 960 -25 Q942 -47 932 -71 Q676 -38 502 56 Q322 -33 76 -73 Q69 -49 55 -29 Q283 3 455 83 Q342 154 276 255 Q197 194 96 144 Q83 164 60 177 Q265 270 380 417 L58 417 L58 461 L476 461 L476 566 L167 566 L167 607 L476 607 L476 705 L109 705 L109 748 L476 748 L476 832 L523 832 L523 748 L902 748 L902 705 L523 705 L523 607 L848 607 L848 566 L523 566 L523 461 L943 461 L943 417 L444 417 Q397 361 358 324 L753 324 L763 327 L794 306 Z" /><glyph glyph-name="" unicode="&#x2ee9;&#x9ec4;" d="M406 51 Q289 -22 100 -75 Q88 -58 67 -39 Q255 10 359 78 L406 51 ZM634 76 Q810 18 938 -41 L900 -74 Q796 -21 604 45 L634 76 ZM363 574 L640 574 L640 691 L363 691 L363 574 ZM523 403 L523 297 L785 297 L785 403 L523 403 ZM785 258 L523 258 L523 149 L785 149 L785 258 ZM219 149 L475 149 L475 258 L219 258 L219 149 ZM219 297 L475 297 L475 403 L219 403 L219 297 ZM943 574 L943 529 L523 529 L523 443 L832 443 L832 110 L173 110 L173 443 L475 443 L475 529 L59 529 L59 574 L315 574 L315 691 L132 691 L132 736 L315 736 L315 833 L363 833 L363 736 L640 736 L640 833 L688 833 L688 736 L878 736 L878 691 L688 691 L688 574 L943 574 Z" /><glyph glyph-name="" unicode="&#x2eec;&#x9f50;" d="M281 342 L328 342 L328 227 Q328 130 302 68 Q266 -18 171 -74 Q157 -52 135 -38 Q281 46 281 228 L281 342 ZM666 341 L715 341 L715 -73 L666 -73 L666 341 ZM304 680 Q372 576 499 504 Q621 576 685 680 L304 680 ZM742 680 Q675 560 545 480 Q712 398 956 373 Q939 356 928 330 Q671 361 499 454 Q340 369 76 322 Q65 349 48 366 Q297 402 454 479 Q326 559 254 680 L65 680 L65 724 L506 724 Q478 780 447 821 L490 834 Q530 783 558 724 L932 724 L932 680 L742 680 Z" /><glyph glyph-name="" unicode="&#x2ef0;&#x9f99;" d="M790 628 Q723 696 606 777 L636 804 Q755 725 822 660 L790 628 ZM853 5 Q885 5 895 27 Q905 49 908 122 Q928 106 953 101 Q948 16 930 -11 Q911 -40 855 -40 L643 -40 Q577 -40 554 -22 Q531 -3 531 51 L531 98 Q442 33 339 -15 Q324 7 305 23 Q426 75 531 156 L531 539 L403 539 Q377 316 308 183 Q231 36 78 -55 Q66 -34 42 -15 Q190 64 264 203 Q330 328 355 539 L60 539 L60 585 L360 585 Q369 681 374 833 L424 831 Q420 698 409 585 L937 585 L937 539 L579 539 L579 195 Q728 323 812 475 L854 457 Q753 274 579 134 L579 51 Q579 23 591 14 Q603 5 644 5 L853 5 Z" /><glyph glyph-name="" unicode="&#x2ef3;&#x9f9f;" d="M466 205 L466 352 L198 352 L198 205 L466 205 ZM325 722 Q266 644 204 585 L501 585 Q561 640 612 722 L325 722 ZM198 394 L466 394 L466 542 L198 542 L198 394 ZM787 542 L514 542 L514 394 L787 394 L787 542 ZM787 205 L787 352 L514 352 L514 205 L787 205 ZM831 -13 Q874 -13 887 18 Q900 46 905 145 Q922 133 951 125 Q944 14 923 -20 Q900 -59 831 -59 L590 -59 Q518 -59 492 -39 Q466 -18 466 43 L466 161 L198 161 L198 99 L150 99 L150 536 Q119 509 82 483 Q65 506 46 518 Q233 646 339 835 L394 825 Q378 798 356 766 L642 766 L651 769 L685 748 Q639 665 564 585 L836 585 L836 161 L514 161 L514 42 Q514 9 529 -2 Q544 -13 591 -13 L831 -13 Z" /><glyph glyph-name="" unicode="&#x2f00;&#x4e00;" d="M955 417 L955 364 L49 364 L49 417 L955 417 Z" /><glyph glyph-name="" unicode="&#x2f01;&#x4e28;" d="M524 832 L524 -72 L474 -72 L474 832 L524 832 Z" /><glyph glyph-name="" unicode="&#x2f02;&#x4e36;" d="M314 612 Q572 432 711 263 L669 225 Q539 392 276 580 L314 612 Z" /><glyph glyph-name="" unicode="&#x2f06;&#x4e8c;" d="M856 687 L856 637 L145 637 L145 687 L856 687 ZM942 87 L942 36 L59 36 L59 87 L942 87 Z" /><glyph glyph-name="" unicode="&#x2f08;&#x4eba;" d="M529 828 Q526 721 523 691 Q601 132 956 -26 Q935 -42 921 -65 Q607 79 503 542 Q422 100 90 -68 Q78 -51 53 -33 Q469 170 478 828 L529 828 Z" /><glyph glyph-name="" unicode="&#x2f09;&#x513f;" d="M694 793 L694 34 Q694 2 702 -8 Q710 -17 737 -17 L861 -17 Q890 -17 900 27 Q908 66 911 200 Q932 180 956 177 Q951 32 936 -12 Q917 -64 862 -64 L734 -64 Q683 -64 665 -44 Q646 -24 646 35 L646 793 L694 793 ZM317 791 L317 466 Q317 284 277 174 Q222 22 76 -75 Q58 -52 41 -40 Q180 52 232 194 Q269 296 269 466 L269 791 L317 791 Z" /><glyph glyph-name="" unicode="&#x2f0a;&#x5165;" d="M339 802 Q492 694 639 385 Q779 91 954 -10 Q934 -38 930 -62 Q778 23 674 207 Q643 260 592 368 Q540 478 511 530 Q398 107 92 -69 Q74 -51 48 -31 Q369 140 473 592 Q400 699 310 762 L339 802 Z" /><glyph glyph-name="" unicode="&#x2f0b;&#x516b;" d="M374 728 Q347 454 295 290 Q221 56 74 -67 Q62 -51 39 -33 Q276 164 323 732 L374 728 ZM639 755 Q648 572 695 402 Q781 90 966 -36 Q943 -49 926 -68 Q635 138 594 752 L639 755 Z" /><glyph glyph-name="" unicode="&#x2f0f;&#x51e0;" d="M869 -2 Q894 -2 902 36 Q909 70 912 188 Q933 170 958 165 Q953 38 938 -3 Q921 -49 871 -49 L750 -49 Q702 -49 685 -30 Q667 -11 667 45 L667 720 L316 720 L316 464 Q316 92 90 -74 Q76 -54 55 -37 Q267 119 267 465 L267 767 L716 767 L716 44 Q716 15 724 6 Q731 -2 755 -2 L869 -2 Z" /><glyph glyph-name="" unicode="&#x2f11;&#x5200;" d="M902 689 Q878 31 826 -29 Q799 -60 747 -64 Q686 -67 580 -59 Q576 -29 562 -9 Q627 -15 733 -15 Q766 -17 779 0 Q831 50 852 672 L459 672 Q447 407 391 258 Q304 25 89 -76 Q74 -53 52 -38 Q263 57 346 279 Q398 419 408 672 L89 672 L89 720 L902 720 L902 689 Z" /><glyph glyph-name="" unicode="&#x2f12;&#x529b;&#xf98a;" d="M900 608 L899 580 Q866 25 809 -37 Q783 -65 733 -68 Q678 -71 574 -63 Q570 -33 557 -15 Q629 -22 720 -22 Q752 -22 766 -8 Q820 44 849 560 L473 560 Q445 142 97 -77 Q82 -55 60 -40 Q397 169 423 560 L89 560 L89 608 L426 608 Q427 632 427 677 L427 830 L476 830 L476 677 Q476 632 475 608 L900 608 Z" /><glyph glyph-name="" unicode="&#x2f17;&#x5341;" d="M946 404 L526 404 L526 -72 L476 -72 L476 404 L60 404 L60 452 L476 452 L476 832 L526 832 L526 452 L946 452 L946 404 Z" /><glyph glyph-name="" unicode="&#x2f1a;&#x5382;" d="M929 705 L201 705 L201 461 Q201 106 89 -69 Q73 -51 47 -41 Q151 121 151 462 L151 754 L929 754 L929 705 Z" /><glyph glyph-name="" unicode="&#x2f1c;&#x53c8;" d="M230 705 Q324 419 502 238 Q704 427 785 705 L230 705 ZM844 740 Q759 420 535 205 Q710 43 960 -22 Q940 -42 930 -64 Q677 4 499 173 Q322 19 73 -66 Q63 -41 44 -24 Q293 56 466 205 Q282 398 184 705 L99 705 L99 752 L804 752 L814 755 L844 740 Z" /><glyph glyph-name="" unicode="&#x2f1d;&#x53e3;" d="M814 91 L814 677 L189 677 L189 91 L814 91 ZM864 725 L864 -39 L814 -39 L814 42 L189 42 L189 -45 L140 -45 L140 725 L864 725 Z" /><glyph glyph-name="" unicode="&#x2f1f;&#x571f;" d="M944 20 L944 -28 L58 -28 L58 20 L474 20 L474 457 L120 457 L120 504 L474 504 L474 828 L523 828 L523 504 L882 504 L882 457 L523 457 L523 20 L944 20 Z" /><glyph glyph-name="" unicode="&#x2f20;&#x58eb;" d="M523 457 L523 36 L890 36 L890 -12 L114 -12 L114 36 L474 36 L474 457 L58 457 L58 504 L474 504 L474 828 L523 828 L523 504 L944 504 L944 457 L523 457 Z" /><glyph glyph-name="" unicode="&#x2f23;&#x5915;" d="M884 663 Q806 365 598 169 Q417 -2 159 -77 Q149 -54 131 -31 Q400 39 588 230 Q484 330 319 426 L353 457 Q513 365 623 267 Q761 423 821 627 L404 627 Q289 464 135 358 Q125 372 94 393 Q339 547 464 834 L513 819 Q479 744 435 674 L841 674 L851 677 L884 663 Z" /><glyph glyph-name="" unicode="&#x2f24;&#x5927;" d="M545 488 Q664 97 951 -27 Q935 -40 915 -72 Q624 67 499 474 Q419 76 85 -73 Q70 -48 49 -34 Q372 104 453 488 L67 488 L67 536 L461 536 Q477 640 480 832 L530 832 Q528 646 511 536 L937 536 L937 488 L545 488 Z" /><glyph glyph-name="" unicode="&#x2f25;&#x5973;" d="M377 534 Q323 405 265 296 Q367 258 515 190 Q633 312 684 534 L377 534 ZM737 534 Q686 299 565 167 Q773 67 909 -32 L866 -72 Q737 28 527 130 Q372 -10 80 -61 Q73 -37 52 -13 Q330 32 475 155 Q343 217 193 273 Q253 377 323 534 L64 534 L64 584 L343 584 Q406 733 437 846 L488 838 Q459 734 398 584 L940 584 L940 534 L737 534 Z" /><glyph glyph-name="" unicode="&#x2f26;&#x5b50;" d="M948 335 L527 335 L527 0 Q527 -53 483 -65 Q448 -74 292 -74 Q286 -53 270 -24 Q386 -28 452 -25 Q478 -24 478 0 L478 335 L55 335 L55 382 L478 382 L478 531 Q636 603 763 712 L156 712 L156 759 L814 759 L826 762 L861 736 Q727 605 527 505 L527 382 L948 382 L948 335 Z" /><glyph glyph-name="" unicode="&#x2f28;&#x5bf8;" d="M223 448 Q364 303 415 192 L373 164 Q317 287 184 424 L223 448 ZM943 566 L704 566 L704 12 Q704 -53 652 -65 Q611 -75 433 -75 Q427 -51 410 -21 Q547 -24 623 -21 Q654 -20 654 11 L654 566 L58 566 L58 613 L654 613 L654 833 L704 833 L704 613 L943 613 L943 566 Z" /><glyph glyph-name="" unicode="&#x2f29;&#x5c0f;" d="M529 818 L529 4 Q529 -54 486 -65 Q451 -74 306 -74 Q299 -49 285 -23 Q394 -26 453 -23 Q479 -23 479 3 L479 818 L529 818 ZM766 587 Q925 339 968 146 L918 126 Q875 326 720 569 L766 587 ZM271 572 Q204 283 83 141 Q64 156 39 167 Q164 311 218 582 L271 572 Z" /><glyph glyph-name="" unicode="&#x2f2d;&#x5c71;" d="M881 630 L881 -67 L833 -67 L833 8 L118 8 L118 630 L167 630 L167 56 L475 56 L475 819 L524 819 L524 56 L833 56 L833 630 L881 630 Z" /><glyph glyph-name="" unicode="&#x2f2f;&#x5de5;" d="M944 56 L944 8 L58 8 L58 56 L473 56 L473 666 L108 666 L108 715 L898 715 L898 666 L524 666 L524 56 L944 56 Z" /><glyph glyph-name="" unicode="&#x2f30;&#x5df1;" d="M762 -2 Q843 -2 868 34 Q892 67 901 187 Q924 172 950 167 Q938 35 905 -6 Q869 -50 759 -50 L349 -50 Q238 -50 200 -28 Q158 -5 158 65 L158 445 L769 445 L769 724 L145 724 L145 773 L818 773 L818 331 L769 331 L769 397 L207 397 L207 64 Q207 25 233 12 Q260 -2 342 -2 L762 -2 Z" /><glyph glyph-name="" unicode="&#x2f32;&#x5e72;" d="M943 377 L523 377 L523 -73 L472 -73 L472 377 L58 377 L58 425 L472 425 L472 708 L109 708 L109 756 L897 756 L897 708 L523 708 L523 425 L943 425 L943 377 Z" /><glyph glyph-name="" unicode="&#x2f34;&#x5e7f;" d="M535 684 Q518 741 479 821 L526 833 Q560 770 584 699 L535 684 ZM939 632 L200 632 L200 405 Q200 80 85 -82 Q65 -57 47 -48 Q150 99 150 405 L150 679 L939 679 L939 632 Z" /><glyph glyph-name="" unicode="&#x2f38;&#x5f13;" d="M876 307 Q875 289 873 282 Q833 8 777 -39 Q751 -62 697 -63 Q631 -65 509 -57 Q507 -31 491 -8 Q594 -18 685 -18 Q725 -18 738 -7 Q786 28 819 261 L138 261 Q168 384 193 544 L773 544 L773 720 L145 720 L145 768 L821 768 L821 497 L233 497 Q203 338 196 307 L876 307 Z" /><glyph glyph-name="" unicode="&#x2f3c;&#x5fc3;" d="M383 786 Q561 657 650 557 L616 523 Q514 637 351 756 L383 786 ZM818 497 Q922 289 957 118 L910 102 Q877 272 775 481 L818 497 ZM195 464 Q154 216 97 84 L51 105 Q115 242 149 474 L195 464 ZM345 558 L345 46 Q345 12 360 1 Q374 -10 420 -10 L642 -10 Q692 -10 707 32 Q721 70 727 210 Q749 195 773 188 Q766 40 744 -5 Q718 -56 642 -56 L419 -56 Q347 -56 322 -35 Q296 -14 296 47 L296 558 L345 558 Z" /><glyph glyph-name="" unicode="&#x2f3e;&#x6237;" d="M783 404 L783 630 L233 630 L233 464 Q233 425 232 404 L783 404 ZM832 676 L832 285 L783 285 L783 358 L230 358 Q210 75 80 -78 Q61 -59 40 -50 Q185 120 185 464 L185 676 L511 676 Q498 730 453 825 L498 838 Q544 746 560 688 L522 676 L832 676 Z" /><glyph glyph-name="" unicode="&#x2f3f;&#x624b;" d="M946 267 L525 267 L525 8 Q525 -47 479 -59 Q443 -70 279 -68 Q273 -45 258 -20 Q399 -23 446 -21 Q476 -20 476 8 L476 267 L56 267 L56 314 L476 314 L476 503 L121 503 L121 549 L476 549 L476 724 Q292 706 137 699 Q134 719 124 741 Q627 769 805 830 L843 791 Q723 754 525 730 L525 549 L892 549 L892 503 L525 503 L525 314 L946 314 L946 267 Z" /><glyph glyph-name="" unicode="&#x2f40;&#x652f;" d="M265 397 Q344 241 503 134 Q674 241 753 397 L265 397 ZM824 425 Q740 232 547 107 Q719 8 960 -25 Q951 -34 931 -68 Q680 -30 502 79 Q325 -23 73 -72 Q66 -50 47 -27 Q290 16 458 109 Q300 219 215 395 L221 397 L127 397 L127 444 L475 444 L475 620 L83 620 L83 668 L475 668 L475 833 L523 833 L523 668 L916 668 L916 620 L523 620 L523 444 L782 444 L792 446 L824 425 Z" /><glyph glyph-name="" unicode="&#x2f42;&#x6587;" d="M511 665 Q487 734 430 822 L477 836 Q538 747 562 682 L511 665 ZM260 604 Q344 388 501 234 Q651 383 734 604 L260 604 ZM789 604 Q695 357 537 200 Q713 41 958 -23 Q948 -32 924 -67 Q680 0 501 165 Q335 18 75 -71 Q66 -51 44 -25 Q301 54 465 199 Q300 369 210 604 L55 604 L55 651 L948 651 L948 604 L789 604 Z" /><glyph glyph-name="" unicode="&#x2f43;&#x6597;" d="M485 597 Q389 667 245 730 L273 767 Q428 701 514 637 L485 597 ZM403 367 Q300 434 135 502 L163 538 Q327 476 430 409 L403 367 ZM687 227 L687 -73 L638 -73 L638 219 L75 137 L67 183 L638 266 L638 832 L687 832 L687 273 L930 308 L938 263 L687 227 Z" /><glyph glyph-name="" unicode="&#x2f44;&#x65a4;" d="M928 424 L645 424 L645 -68 L594 -68 L594 424 L234 424 Q226 92 107 -78 Q94 -61 65 -48 Q186 125 186 482 L186 744 Q624 773 797 820 L838 781 Q637 727 235 704 L235 471 L928 471 L928 424 Z" /><glyph glyph-name="" unicode="&#x2f45;&#x65b9;" d="M525 663 Q506 720 455 817 L500 834 Q552 742 572 684 L525 663 ZM414 605 Q406 483 397 423 L823 423 Q822 404 821 397 Q793 16 743 -37 Q719 -60 669 -63 Q610 -67 504 -57 Q502 -31 487 -11 Q572 -19 656 -19 Q687 -19 702 -8 Q745 31 771 376 L389 376 Q333 47 90 -75 Q78 -54 54 -38 Q232 47 303 242 Q350 370 362 605 L79 605 L79 652 L926 652 L926 605 L414 605 Z" /><glyph glyph-name="" unicode="&#x2f46;&#x65e0;" d="M837 -4 Q878 -4 890 26 Q901 55 905 162 Q926 148 952 142 Q946 24 926 -12 Q905 -51 840 -51 L631 -51 Q563 -51 540 -32 Q516 -14 516 40 L516 415 L479 415 Q406 54 80 -75 Q67 -52 47 -36 Q355 79 432 415 L58 415 L58 462 L440 462 Q458 560 462 716 L121 716 L121 763 L886 763 L886 716 L509 716 Q503 554 487 462 L944 462 L944 415 L564 415 L564 39 Q564 13 577 5 Q591 -4 633 -4 L837 -4 Z" /><glyph glyph-name="" unicode="&#x2f47;&#x65e5;" d="M769 50 L769 361 L239 361 L239 50 L769 50 ZM239 712 L239 408 L769 408 L769 712 L239 712 ZM818 760 L818 -56 L769 -56 L769 3 L239 3 L239 -62 L191 -62 L191 760 L818 760 Z" /><glyph glyph-name="" unicode="&#x2f49;&#x6708;" d="M759 292 L759 489 L268 489 L268 483 Q268 379 255 292 L759 292 ZM268 730 L268 536 L759 536 L759 730 L268 730 ZM808 12 Q808 -45 763 -58 Q730 -67 556 -67 Q552 -46 536 -17 Q581 -18 728 -18 Q759 -17 759 13 L759 246 L246 246 Q204 43 71 -75 Q55 -51 36 -40 Q220 125 220 483 L220 777 L808 777 L808 12 Z" /><glyph glyph-name="" unicode="&#x2f4c;&#x6b62;" d="M942 23 L942 -24 L55 -24 L55 23 L200 23 L200 605 L249 605 L249 23 L512 23 L512 829 L561 829 L561 485 L904 485 L904 438 L561 438 L561 23 L942 23 Z" /><glyph glyph-name="" unicode="&#x2f50;&#x6bd4;" d="M457 97 Q456 76 460 49 Q158 -42 134 -61 Q126 -37 109 -18 Q143 5 143 49 L143 824 L192 824 L192 517 L453 517 L453 470 L192 470 L192 20 L457 97 ZM817 -1 Q858 -1 870 46 Q882 87 887 236 Q906 220 933 212 Q927 58 908 10 Q885 -46 819 -46 L652 -46 Q589 -46 568 -23 Q546 0 546 69 L546 831 L594 831 L594 443 Q773 537 867 628 L910 589 Q797 496 594 394 L594 66 Q594 24 606 12 Q617 -1 655 -1 L817 -1 Z" /><glyph glyph-name="" unicode="&#x2f51;&#x6bdb;" d="M828 -8 Q873 -8 887 21 Q901 47 906 139 Q928 124 954 117 Q945 15 924 -18 Q898 -55 827 -55 L550 -55 Q470 -55 443 -32 Q414 -9 414 59 L414 230 L75 185 L67 230 L414 276 L414 458 L104 414 L96 459 L414 505 L414 680 Q290 656 96 630 Q94 650 83 671 Q573 738 772 823 L815 786 Q681 732 462 690 L462 511 L855 566 L863 522 L462 465 L462 282 L927 344 L933 299 L462 236 L462 58 Q462 18 479 6 Q496 -8 549 -8 L828 -8 Z" /><glyph glyph-name="" unicode="&#x2f52;&#x6c0f;" d="M553 442 Q536 571 533 711 Q364 691 224 680 L224 442 L553 442 ZM608 395 Q639 202 702 96 Q767 -16 856 -15 Q881 -15 893 20 Q905 54 910 142 Q929 126 951 119 Q943 13 924 -24 Q903 -63 853 -63 Q634 -63 559 395 L224 395 L224 28 L526 115 Q526 84 530 71 Q191 -32 167 -48 Q159 -26 145 -4 Q176 12 176 55 L176 720 Q622 754 823 813 L849 771 Q756 743 581 718 Q584 573 601 442 L943 442 L943 395 L608 395 Z" /><glyph glyph-name="" unicode="&#x2f53;&#x6c14;" d="M251 670 Q174 518 84 425 Q58 446 41 455 Q188 596 269 836 L316 824 Q286 745 271 713 L924 713 L924 670 L251 670 ZM251 539 L251 582 L855 582 L855 539 L251 539 ZM762 445 Q782 -27 891 -27 Q916 -27 919 111 Q938 94 955 86 Q951 -5 938 -38 Q923 -74 887 -74 Q804 -74 762 63 Q729 173 716 401 L156 401 L156 445 L762 445 Z" /><glyph glyph-name="" unicode="&#x2f54;&#x6c34;" d="M404 559 Q331 196 88 30 Q72 54 50 67 Q273 209 346 522 L80 522 L80 570 L363 570 L373 572 L404 559 ZM868 606 Q747 461 647 372 Q799 161 969 79 Q949 63 933 38 Q690 166 525 497 L525 -1 Q525 -52 490 -65 Q462 -75 349 -75 Q341 -46 329 -23 Q423 -26 453 -24 Q475 -23 475 -2 L475 830 L525 830 L525 590 Q563 499 624 407 Q743 521 825 637 L868 606 Z" /><glyph glyph-name="" unicode="&#x2f55;&#x706b;" d="M901 608 Q811 424 743 326 L703 345 Q790 476 852 629 L901 608 ZM270 616 Q221 414 135 321 L92 346 Q182 441 226 630 L270 616 ZM512 435 Q608 58 952 -27 Q930 -51 922 -69 Q602 20 489 357 Q411 41 93 -74 Q84 -56 61 -37 Q340 61 425 313 Q474 460 475 819 L526 819 Q524 549 504 433 L512 435 Z" /><glyph glyph-name="" unicode="&#x2f5a;&#x7247;" d="M240 475 Q240 401 236 342 L728 342 L728 -74 L678 -74 L678 293 L232 293 Q208 64 85 -73 Q67 -48 48 -38 Q191 125 191 474 L191 803 L240 803 L240 568 L547 568 L547 832 L597 832 L597 568 L903 568 L903 520 L240 520 L240 475 Z" /><glyph glyph-name="" unicode="&#x2f5b;&#x7259;" d="M935 385 L697 385 L697 -2 Q697 -51 659 -65 Q628 -74 495 -74 Q491 -57 477 -26 Q572 -29 625 -26 Q649 -25 649 -2 L649 385 Q435 120 89 -16 Q72 9 55 25 Q375 142 589 385 L144 385 Q180 484 224 670 L271 663 Q231 504 208 431 L649 431 L649 725 L125 725 L125 772 L886 772 L886 725 L697 725 L697 431 L935 431 L935 385 Z" /><glyph glyph-name="" unicode="&#x2f5c;&#x725b;" d="M944 288 L535 288 L535 -72 L486 -72 L486 288 L57 288 L57 335 L486 335 L486 596 L221 596 Q169 491 112 423 Q87 441 68 450 Q188 580 252 803 L300 792 Q277 718 244 643 L486 643 L486 833 L535 833 L535 643 L889 643 L889 596 L535 596 L535 335 L944 335 L944 288 Z" /><glyph glyph-name="" unicode="&#x2f5e;&#x7384;" d="M512 679 Q470 748 410 816 L452 837 Q526 754 555 703 L512 679 ZM936 628 L456 628 L473 619 Q359 452 256 354 L571 374 Q654 457 709 521 L753 491 Q514 229 250 45 L803 82 Q745 165 686 235 L727 257 Q868 90 928 -27 L885 -53 Q857 1 830 42 Q194 -2 162 -15 Q156 11 143 36 Q180 44 275 117 Q385 198 525 331 Q214 308 189 298 Q185 320 173 348 Q195 353 239 400 Q324 481 415 628 L66 628 L66 675 L936 675 L936 628 Z" /><glyph glyph-name="" unicode="&#x2f5f;&#x7389;" d="M944 17 L944 -30 L58 -30 L58 17 L471 17 L471 364 L150 364 L150 411 L471 411 L471 716 L109 716 L109 763 L892 763 L892 716 L521 716 L521 411 L858 411 L858 364 L521 364 L521 17 L944 17 ZM661 296 Q775 197 856 109 L821 78 Q757 150 627 271 L661 296 Z" /><glyph glyph-name="" unicode="&#x2f61;&#x74e6;" d="M861 -11 Q885 -11 892 24 Q899 57 901 178 Q919 163 946 157 Q942 28 928 -13 Q912 -57 864 -57 L758 -57 Q712 -57 696 -40 Q679 -23 679 27 L679 492 L336 492 Q266 99 242 -3 L612 50 Q610 37 610 5 Q182 -60 159 -72 Q152 -46 136 -16 Q184 -6 195 29 Q210 67 325 717 L73 717 L73 763 L920 763 L920 717 L377 717 L344 538 L727 538 L727 28 Q727 3 734 -4 Q740 -11 763 -11 L861 -11 ZM408 396 Q544 277 609 191 L569 163 Q492 264 368 371 L408 396 Z" /><glyph glyph-name="" unicode="&#x2f63;&#x751f;" d="M943 8 L943 -39 L60 -39 L60 8 L477 8 L477 293 L164 293 L164 340 L477 340 L477 585 L224 585 Q173 479 112 410 Q97 422 69 438 Q190 569 257 813 L306 803 Q282 719 245 631 L477 631 L477 833 L526 833 L526 631 L898 631 L898 585 L526 585 L526 340 L863 340 L863 293 L526 293 L526 8 L943 8 Z" /><glyph glyph-name="" unicode="&#x2f64;&#x7528;" d="M829 287 L829 480 L526 480 L526 287 L829 287 ZM478 287 L478 480 L209 480 L209 398 Q209 338 205 287 L478 287 ZM209 714 L209 526 L478 526 L478 714 L209 714 ZM829 714 L526 714 L526 526 L829 526 L829 714 ZM877 5 Q877 -47 836 -60 Q804 -70 653 -68 Q652 -50 636 -21 Q746 -24 803 -21 Q829 -21 829 5 L829 241 L526 241 L526 -65 L478 -65 L478 241 L201 241 Q175 34 76 -79 Q63 -58 39 -45 Q161 92 161 398 L161 760 L877 760 L877 5 Z" /><glyph glyph-name="" unicode="&#x2f65;&#x7530;" d="M849 43 L849 360 L520 360 L520 43 L849 43 ZM154 43 L472 43 L472 360 L154 360 L154 43 ZM154 715 L154 407 L472 407 L472 715 L154 715 ZM849 715 L520 715 L520 407 L849 407 L849 715 ZM897 762 L897 -66 L849 -66 L849 -5 L154 -5 L154 -66 L106 -66 L106 762 L897 762 Z" /><glyph glyph-name="" unicode="&#x2f69;&#x767d;" d="M795 51 L795 312 L205 312 L205 51 L795 51 ZM205 616 L205 359 L795 359 L795 616 L205 616 ZM844 664 L844 -67 L795 -67 L795 4 L205 4 L205 -73 L157 -73 L157 664 L397 664 Q439 750 463 836 L518 822 Q474 713 450 664 L844 664 Z" /><glyph glyph-name="" unicode="&#x2f6a;&#x76ae;" d="M351 393 Q424 236 564 129 Q713 236 778 393 L351 393 ZM503 439 L503 643 L207 643 L207 439 L503 439 ZM844 422 Q773 226 605 101 Q749 7 953 -30 Q939 -45 923 -73 Q715 -31 564 73 Q417 -23 204 -72 Q195 -50 176 -29 Q381 13 524 103 Q380 216 303 393 L206 393 Q198 88 75 -69 Q59 -49 37 -37 Q160 122 160 443 L160 690 L503 690 L503 834 L551 834 L551 690 L869 690 L879 692 L915 681 Q846 524 820 481 L776 496 Q803 539 846 643 L551 643 L551 439 L804 439 L814 441 L844 422 Z" /><glyph glyph-name="" unicode="&#x2f6c;&#x76ee;" d="M777 48 L777 242 L217 242 L217 48 L777 48 ZM217 482 L217 289 L777 289 L777 482 L217 482 ZM217 719 L217 528 L777 528 L777 719 L217 719 ZM826 766 L826 -71 L777 -71 L777 1 L217 1 L217 -71 L169 -71 L169 766 L826 766 Z" /><glyph glyph-name="" unicode="&#x2f6d;&#x77db;" d="M940 446 Q801 255 717 186 L679 209 Q767 283 859 414 L546 414 L546 -6 Q546 -55 506 -67 Q476 -75 325 -75 Q322 -59 305 -28 Q411 -32 474 -29 Q498 -29 498 -6 L498 389 Q334 162 74 47 Q55 75 40 87 Q299 189 463 414 L59 414 L59 460 L589 460 Q458 552 277 624 L309 658 Q397 626 514 564 Q634 632 741 729 L157 729 L157 775 L788 775 L800 778 L837 750 Q725 639 557 540 Q612 508 661 471 L651 460 L893 460 L903 463 L940 446 Z" /><glyph glyph-name="" unicode="&#x2f6e;&#x77e2;" d="M541 357 Q632 45 958 -30 Q942 -45 927 -72 Q609 9 505 321 Q447 52 79 -76 Q72 -63 51 -36 Q417 91 461 357 L59 357 L59 404 L467 404 Q470 442 470 478 L470 653 L246 653 Q185 533 118 460 Q80 483 73 486 Q200 614 267 837 L315 826 Q291 752 268 701 L871 701 L871 653 L519 653 L519 477 Q519 440 516 404 L942 404 L942 357 L541 357 Z" /><glyph glyph-name="" unicode="&#x2f6f;&#x77f3;" d="M300 372 L300 49 L818 49 L818 372 L300 372 ZM425 705 Q373 549 295 419 L867 419 L867 -72 L818 -72 L818 2 L300 2 L300 -73 L252 -73 L252 352 Q169 235 67 153 Q55 171 33 188 Q264 368 372 705 L72 705 L72 752 L930 752 L930 705 L425 705 Z" /><glyph glyph-name="" unicode="&#x2f70;&#x793a;" d="M850 705 L153 705 L153 752 L850 752 L850 705 ZM304 337 Q229 148 87 16 Q66 33 43 47 Q180 159 255 349 L304 337 ZM732 345 Q870 179 922 38 L876 17 Q822 166 690 327 L732 345 ZM935 509 L935 462 L524 462 L524 -2 Q524 -51 486 -63 Q452 -72 313 -72 Q307 -42 295 -22 Q411 -25 451 -23 Q475 -23 475 -1 L475 462 L63 462 L63 509 L935 509 Z" /><glyph glyph-name="" unicode="&#x2f74;&#x7acb;" d="M490 661 Q474 738 441 822 L486 835 Q522 743 538 676 L490 661 ZM901 592 L102 592 L102 640 L901 640 L901 592 ZM351 74 Q326 246 249 513 L296 523 Q372 273 400 85 L351 74 ZM940 19 L940 -28 L61 -28 L61 19 L544 19 Q635 226 705 524 L760 515 Q666 187 595 19 L940 19 Z" /><glyph glyph-name="" unicode="&#x2f76;&#x7c73;" d="M880 759 Q793 604 716 507 L677 526 Q756 629 831 780 L880 759 ZM274 515 Q231 626 130 751 L172 769 Q275 647 319 535 L274 515 ZM570 395 Q724 150 959 32 Q941 20 924 -8 Q682 128 523 386 L523 -72 L474 -72 L474 385 Q323 126 79 -19 Q58 10 45 21 Q278 144 428 395 L64 395 L64 442 L474 442 L474 832 L523 832 L523 442 L935 442 L935 395 L570 395 Z" /><glyph glyph-name="" unicode="&#x2f79;&#x7f51;" d="M460 157 Q420 234 372 311 Q306 157 209 56 Q187 75 170 86 Q275 182 342 357 Q258 483 199 557 L231 581 Q304 488 360 407 Q395 513 418 641 L464 635 Q433 473 391 361 Q462 255 495 185 L460 157 ZM759 124 Q724 202 662 304 Q599 149 497 50 Q466 74 458 78 Q567 177 633 350 Q561 465 491 556 L526 579 Q595 490 652 402 Q686 506 708 638 L752 632 Q723 470 682 356 Q759 236 796 149 L759 124 ZM908 1 Q908 -49 871 -62 Q840 -71 707 -71 Q703 -52 688 -24 Q786 -27 835 -24 Q860 -23 860 0 L860 724 L144 724 L144 -71 L96 -71 L96 770 L908 770 L908 1 Z" /><glyph glyph-name="" unicode="&#x2f7c;&#x8001;&#xf934;" d="M544 484 Q642 559 723 643 L461 643 L461 484 L544 484 ZM559 438 Q492 386 382 318 L382 183 Q644 252 766 321 L810 286 Q657 212 382 141 L382 32 Q382 5 400 -4 Q419 -14 478 -14 L776 -14 Q827 -14 843 13 Q858 39 863 133 Q884 118 909 113 Q902 8 878 -24 Q853 -58 777 -58 L480 -58 Q393 -58 364 -41 Q333 -23 333 32 L333 289 Q211 221 78 164 Q58 191 43 205 Q273 293 482 438 L58 438 L58 484 L413 484 L413 643 L143 643 L143 688 L413 688 L413 833 L461 833 L461 688 L728 688 L728 648 Q800 723 852 795 L894 771 Q774 611 618 484 L943 484 L943 438 L559 438 Z" /><glyph glyph-name="" unicode="&#x2f7d;&#x800c;" d="M520 723 Q485 594 472 556 L889 556 L889 2 Q889 -45 856 -57 Q825 -66 704 -66 Q699 -42 685 -18 Q776 -21 820 -18 Q841 -18 841 2 L841 510 L642 510 L642 -40 L594 -40 L594 510 L397 510 L397 -40 L350 -40 L350 510 L162 510 L162 -74 L113 -74 L113 556 L423 556 Q447 640 463 723 L59 723 L59 771 L945 771 L945 723 L520 723 Z" /><glyph glyph-name="" unicode="&#x2f7f;&#x8033;" d="M280 103 Q396 109 722 130 L722 279 L280 279 L280 103 ZM280 715 L280 548 L722 548 L722 715 L280 715 ZM280 324 L722 324 L722 502 L280 502 L280 324 ZM940 100 L771 88 L771 -73 L722 -73 L722 84 L63 40 L57 90 L231 100 L231 715 L70 715 L70 763 L932 763 L932 715 L771 715 L771 134 L941 146 L940 100 Z" /><glyph glyph-name="" unicode="&#x2f81;&#x8089;" d="M744 59 Q644 152 481 262 Q406 120 233 61 Q221 84 204 97 Q435 170 485 418 L535 418 Q521 350 501 303 Q689 178 777 97 L744 59 ZM896 0 Q896 -54 857 -66 Q824 -76 680 -76 Q675 -49 663 -24 Q764 -28 824 -25 Q848 -24 848 0 L848 635 L515 635 Q510 617 498 585 Q684 481 783 402 L752 363 Q640 453 479 545 Q410 409 239 349 Q225 373 210 385 Q405 451 464 635 L153 635 L153 -74 L105 -74 L105 682 L475 682 Q489 742 496 830 L547 830 Q538 739 526 682 L896 682 L896 0 Z" /><glyph glyph-name="" unicode="&#x2f83;&#x81ea;" d="M792 30 L792 205 L224 205 L224 30 L792 30 ZM224 423 L224 251 L792 251 L792 423 L224 423 ZM224 646 L224 469 L792 469 L792 646 L224 646 ZM841 693 L841 -69 L792 -69 L792 -15 L224 -15 L224 -76 L176 -76 L176 693 L425 693 Q456 773 473 835 L524 826 Q494 743 472 693 L841 693 Z" /><glyph glyph-name="" unicode="&#x2f84;&#x81f3;" d="M851 400 Q830 429 784 475 Q174 444 145 433 Q142 452 128 484 Q150 486 198 531 Q272 594 371 726 L80 726 L80 772 L911 772 L911 726 L437 726 Q317 575 220 491 L743 515 Q656 593 600 634 L638 658 Q810 535 892 429 L851 400 ZM941 16 L941 -30 L59 -30 L59 16 L475 16 L475 228 L146 228 L146 273 L475 273 L475 422 L524 422 L524 273 L863 273 L863 228 L524 228 L524 16 L941 16 Z" /><glyph glyph-name="" unicode="&#x2f86;&#x820c;" d="M779 260 L234 260 L234 15 L779 15 L779 260 ZM524 486 L524 306 L828 306 L828 -69 L779 -69 L779 -30 L234 -30 L234 -80 L186 -80 L186 306 L476 306 L476 486 L59 486 L59 532 L476 532 L476 712 Q327 696 142 689 Q141 707 130 730 Q628 749 788 824 L832 790 Q734 746 524 718 L524 532 L944 532 L944 486 L524 486 Z" /><glyph glyph-name="" unicode="&#x2f8a;&#x8272;" d="M333 695 Q279 620 212 556 L501 556 Q563 613 615 695 L333 695 ZM807 511 L533 511 L533 306 L807 306 L807 511 ZM229 306 L486 306 L486 511 L229 511 L229 306 ZM783 -12 Q856 -12 880 20 Q901 50 910 156 Q935 140 957 137 Q946 19 915 -17 Q881 -58 780 -58 L369 -58 Q261 -58 223 -34 Q183 -8 183 66 L183 529 Q141 489 76 446 Q63 475 48 490 Q262 624 364 833 L409 818 Q387 773 364 740 L648 740 L658 743 L690 721 Q640 636 560 556 L855 556 L855 208 L807 208 L807 259 L229 259 L229 64 Q229 19 255 4 Q281 -12 361 -12 L783 -12 Z" /><glyph glyph-name="" unicode="&#x2f8e;&#x8840;" d="M198 32 L371 32 L371 587 L198 587 L198 32 ZM591 587 L417 587 L417 32 L591 32 L591 587 ZM637 587 L637 32 L813 32 L813 587 L637 587 ZM954 32 L954 -15 L48 -15 L48 32 L151 32 L151 633 L382 633 Q425 719 462 834 L515 819 Q442 654 432 633 L861 633 L861 32 L954 32 Z" /><glyph glyph-name="" unicode="&#x2f8f;&#x884c;&#xfa08;" d="M920 724 L428 724 L428 770 L920 770 L920 724 ZM321 816 Q225 688 72 576 Q53 603 42 614 Q191 717 275 834 L321 816 ZM362 606 Q314 530 247 452 L247 -77 L200 -77 L200 400 Q135 332 67 278 Q48 303 32 317 Q206 443 317 622 L362 606 ZM950 450 L791 450 L791 -3 Q791 -52 753 -63 Q725 -70 569 -70 Q566 -51 551 -25 Q686 -28 717 -25 Q743 -24 743 -3 L743 450 L384 450 L384 496 L950 496 L950 450 Z" /><glyph glyph-name="" unicode="&#x2f90;&#x8863;" d="M513 671 Q494 739 444 819 L490 834 Q543 753 561 690 L513 671 ZM900 491 Q796 371 668 264 Q763 107 956 -8 Q932 -25 922 -48 Q732 70 635 227 Q547 370 505 602 Q427 495 318 405 L318 10 L620 106 Q624 79 631 63 Q276 -51 252 -69 Q243 -46 226 -28 Q270 -2 270 45 L270 368 Q171 295 67 247 Q52 275 40 288 Q314 412 456 618 L65 618 L65 665 L936 665 L936 618 L547 618 Q581 427 646 302 Q776 412 859 519 L900 491 Z" /><glyph glyph-name="" unicode="&#x2f94;&#x8a00;" d="M529 677 Q498 739 424 815 L468 832 Q543 757 576 697 L529 677 ZM248 192 L248 17 L753 17 L753 192 L248 192 ZM201 235 L801 235 L801 -70 L753 -70 L753 -26 L248 -26 L248 -73 L201 -73 L201 235 ZM209 388 L790 388 L790 345 L209 345 L209 388 ZM790 492 L209 492 L209 534 L790 534 L790 492 ZM946 674 L946 630 L60 630 L60 674 L946 674 Z" /><glyph glyph-name="" unicode="&#x2f95;&#x8c37;" d="M876 545 Q785 653 603 783 L641 809 Q826 679 916 577 L876 545 ZM396 785 Q290 647 132 543 Q112 565 93 578 Q250 670 350 803 L396 785 ZM760 318 Q602 421 500 556 Q398 420 235 318 L760 318 ZM731 13 L731 274 L277 274 L277 13 L731 13 ZM541 616 Q531 600 527 592 Q686 371 959 278 Q937 256 923 233 Q856 259 781 305 L781 -73 L731 -73 L731 -31 L277 -31 L277 -75 L229 -75 L229 314 Q148 266 78 240 Q70 261 51 286 Q185 330 310 429 Q435 528 501 641 L541 616 Z" /><glyph glyph-name="" unicode="&#x2f9b;&#x8d70;" d="M957 -13 Q941 -38 938 -60 L724 -60 Q539 -60 434 -16 Q307 37 241 172 Q184 4 78 -77 Q64 -59 43 -44 Q204 78 234 382 L285 376 Q275 296 259 235 Q321 74 475 19 L475 454 L68 454 L68 500 L474 500 L474 661 L155 661 L155 706 L474 706 L474 830 L522 830 L522 706 L859 706 L859 661 L522 661 L522 500 L930 500 L930 454 L523 454 L523 274 L865 274 L865 230 L523 230 L523 6 Q606 -13 726 -13 L957 -13 Z" /><glyph glyph-name="" unicode="&#x2f9c;&#x8db3;" d="M224 501 L797 501 L797 734 L224 734 L224 501 ZM527 6 Q600 -11 713 -11 Q920 -11 957 -10 Q944 -28 937 -57 L712 -57 Q531 -57 431 -13 Q312 39 250 171 Q194 6 86 -76 Q76 -63 52 -42 Q214 79 242 372 L293 365 Q285 298 268 237 Q328 70 479 18 L479 455 L176 455 L176 780 L846 780 L846 455 L527 455 L527 281 L871 281 L871 235 L527 235 L527 6 Z" /><glyph glyph-name="" unicode="&#x2f9d;&#x8eab;" d="M708 275 L720 285 L720 392 L267 392 L267 275 L708 275 ZM267 689 L267 583 L720 583 L720 689 L267 689 ZM267 432 L720 432 L720 543 L267 543 L267 432 ZM928 441 Q859 346 766 266 L766 10 Q766 -47 723 -59 Q686 -68 520 -68 Q512 -41 500 -18 Q621 -22 691 -19 Q720 -18 720 10 L720 228 Q472 32 73 -82 Q63 -60 44 -41 Q406 52 651 231 L84 231 L84 275 L220 275 L220 733 L423 733 Q452 783 470 836 L524 823 Q482 743 475 733 L766 733 L766 326 Q834 391 887 463 L928 441 Z" /><glyph glyph-name="" unicode="&#x2fa0;&#x8fb0;" d="M901 304 Q809 221 691 143 Q796 28 956 -13 Q939 -29 925 -54 Q619 38 515 371 L371 371 L371 4 L605 78 Q604 67 607 36 Q340 -54 319 -71 Q314 -56 293 -28 Q323 -12 323 33 L323 371 L201 371 Q187 80 85 -79 Q72 -64 43 -51 Q155 122 155 487 L155 773 L915 773 L915 726 L204 726 L204 487 Q204 441 203 417 L943 417 L943 371 L559 371 Q600 253 665 173 Q769 243 859 331 L901 304 ZM287 553 L287 599 L854 599 L854 553 L287 553 Z" /><glyph glyph-name="" unicode="&#x2fa5;&#x91cc;&#xf9e9;" d="M207 398 L478 398 L478 552 L207 552 L207 398 ZM207 595 L478 595 L478 746 L207 746 L207 595 ZM805 746 L524 746 L524 595 L805 595 L805 746 ZM805 552 L524 552 L524 398 L805 398 L805 552 ZM943 1 L943 -44 L59 -44 L59 1 L476 1 L476 174 L126 174 L126 220 L476 220 L476 354 L159 354 L159 790 L853 790 L853 354 L526 354 L526 220 L887 220 L887 174 L526 174 L526 1 L943 1 Z" /><glyph glyph-name="" unicode="&#x2fa6;&#x91d1;" d="M522 6 L932 6 L932 -39 L71 -39 L71 6 L473 6 L473 282 L114 282 L114 327 L473 327 L473 482 L249 482 L249 528 L753 528 L753 482 L522 482 L522 327 L890 327 L890 282 L522 282 L522 6 ZM251 241 Q322 138 349 54 L306 36 Q276 129 210 226 L251 241 ZM632 51 Q698 142 744 243 L791 224 Q721 102 668 33 L632 51 ZM550 821 Q534 796 527 788 Q692 593 964 502 Q946 486 929 459 Q674 557 499 753 Q335 555 71 457 Q52 490 38 502 Q357 609 507 841 L550 821 Z" /><glyph glyph-name="" unicode="&#x2fac;&#x96e8;" d="M232 246 Q368 164 423 123 L394 91 Q321 148 203 218 L232 246 ZM242 444 Q362 375 426 331 L397 299 Q315 359 215 417 L242 444 ZM760 93 Q670 157 560 219 L589 247 Q740 159 787 125 L760 93 ZM767 300 Q696 349 576 417 L604 445 Q732 374 794 333 L767 300 ZM520 720 L520 565 L894 565 L894 4 Q894 -45 857 -57 Q829 -65 690 -65 Q684 -39 672 -18 Q786 -21 824 -19 Q847 -18 847 4 L847 519 L520 519 L520 -62 L473 -62 L473 519 L154 519 L154 -72 L108 -72 L108 565 L473 565 L473 720 L57 720 L57 767 L942 767 L942 720 L520 720 Z" /><glyph glyph-name="" unicode="&#x2fae;&#x975e;" d="M371 828 L420 828 L420 -73 L371 -73 L371 179 L64 179 L64 226 L371 226 L371 404 L104 404 L104 450 L371 450 L371 623 L88 623 L88 670 L371 670 L371 828 ZM951 176 L638 176 L638 -73 L589 -73 L589 828 L638 828 L638 669 L934 669 L934 622 L638 622 L638 449 L914 449 L914 403 L638 403 L638 222 L951 222 L951 176 Z" /><glyph glyph-name="" unicode="&#x2faf;&#x9762;" d="M839 522 L664 522 L664 26 L839 26 L839 522 ZM160 26 L328 26 L328 522 L160 522 L160 26 ZM619 522 L373 522 L373 387 L619 387 L619 522 ZM373 26 L619 26 L619 167 L373 167 L373 26 ZM619 345 L373 345 L373 209 L619 209 L619 345 ZM519 714 Q468 551 474 568 L888 568 L888 -74 L839 -74 L839 -19 L160 -19 L160 -74 L112 -74 L112 568 L425 568 Q445 629 463 714 L65 714 L65 761 L938 761 L938 714 L519 714 Z" /><glyph glyph-name="" unicode="&#x2fb0;&#x9769;" d="M476 283 L476 428 L218 428 L218 283 L476 283 ZM524 428 L524 283 L788 283 L788 428 L524 428 ZM338 593 L663 593 L663 695 L338 695 L338 593 ZM944 93 L524 93 L524 -74 L476 -74 L476 93 L58 93 L58 138 L476 138 L476 241 L170 241 L170 470 L476 470 L476 552 L291 552 L291 695 L76 695 L76 738 L291 738 L291 834 L338 834 L338 738 L663 738 L663 834 L712 834 L712 738 L927 738 L927 695 L712 695 L712 552 L524 552 L524 470 L838 470 L838 241 L524 241 L524 138 L944 138 L944 93 Z" /><glyph glyph-name="" unicode="&#x2fb3;&#x97f3;" d="M891 691 L116 691 L116 736 L492 736 Q470 794 447 827 L493 839 Q523 798 545 736 L891 736 L891 691 ZM328 501 Q312 584 259 667 L303 679 Q358 598 375 516 L328 501 ZM252 308 L252 182 L756 182 L756 308 L252 308 ZM756 9 L756 140 L252 140 L252 9 L756 9 ZM204 351 L805 351 L805 -71 L756 -71 L756 -34 L252 -34 L252 -74 L204 -74 L204 351 ZM942 499 L942 454 L59 454 L59 499 L615 499 Q667 587 702 682 L752 667 Q709 575 666 499 L942 499 Z" /><glyph glyph-name="" unicode="&#x2fb8;&#x9996;" d="M284 835 Q346 773 377 716 L334 693 Q302 754 243 816 L284 835 ZM773 492 L230 492 L230 370 L773 370 L773 492 ZM773 34 L773 162 L230 162 L230 34 L773 34 ZM773 328 L230 328 L230 204 L773 204 L773 328 ZM528 647 Q511 584 495 536 L822 536 L822 -73 L773 -73 L773 -10 L230 -10 L230 -73 L182 -73 L182 536 L445 536 Q457 574 474 647 L59 647 L59 693 L619 693 Q680 765 718 834 L768 817 Q728 756 674 693 L943 693 L943 647 L528 647 Z" /><glyph glyph-name="" unicode="&#x2fb9;&#x9999;" d="M258 275 L258 163 L755 163 L755 275 L258 275 ZM755 7 L755 124 L258 124 L258 7 L755 7 ZM211 316 L803 316 L803 -71 L755 -71 L755 -34 L258 -34 L258 -73 L211 -73 L211 316 ZM590 556 Q742 396 955 319 Q935 304 922 280 Q688 376 535 556 L523 556 L523 346 L475 346 L475 556 L464 556 Q316 366 80 266 Q66 290 47 304 Q264 386 410 556 L62 556 L62 601 L475 601 L475 727 Q335 713 153 702 Q150 720 140 744 Q591 768 790 822 L830 784 Q720 756 523 732 L523 601 L940 601 L940 556 L590 556 Z" /><glyph glyph-name="" unicode="&#x2fbc;&#x9ad8;" d="M332 200 L332 85 L657 85 L657 200 L332 200 ZM701 45 L332 45 L332 -10 L286 -10 L286 239 L701 239 L701 45 ZM895 -12 Q895 -48 869 -58 Q847 -65 750 -65 Q745 -46 733 -27 Q811 -29 832 -27 Q848 -27 848 -13 L848 311 L152 311 L152 -73 L105 -73 L105 354 L895 354 L895 -12 ZM731 571 L274 571 L274 459 L731 459 L731 571 ZM780 611 L780 419 L226 419 L226 611 L780 611 ZM933 722 L933 678 L64 678 L64 722 L488 722 Q470 787 455 825 L497 834 Q512 795 535 722 L933 722 Z" /><glyph glyph-name="" unicode="&#x2fc7;&#x9ebb;" d="M160 444 Q160 107 69 -65 Q54 -48 30 -34 Q112 122 112 444 L112 710 L527 710 Q505 770 477 824 L522 836 Q558 777 580 710 L941 710 L941 664 L160 664 L160 444 ZM511 216 Q480 264 400 363 L400 -72 L355 -72 L355 357 Q283 164 186 71 Q171 94 154 105 Q272 207 342 432 L191 432 L191 476 L355 476 L355 638 L400 638 L400 476 L528 476 L528 432 L400 432 L400 417 Q479 336 541 255 L511 216 ZM785 432 Q858 212 968 110 Q947 95 934 75 Q839 178 766 380 L766 -72 L721 -72 L721 371 Q641 167 530 67 Q513 88 497 101 Q623 201 706 432 L562 432 L562 476 L721 476 L721 638 L766 638 L766 476 L940 476 L940 432 L785 432 Z" /><glyph glyph-name="" unicode="&#x2fca;&#x9ed1;" d="M583 551 Q635 630 672 718 L712 701 Q650 585 615 535 L583 551 ZM319 718 Q376 631 392 564 L354 548 Q337 621 284 705 L319 718 ZM475 516 L475 750 L208 750 L208 516 L475 516 ZM784 750 L522 750 L522 516 L784 516 L784 750 ZM942 170 L59 170 L59 214 L475 214 L475 328 L143 328 L143 370 L475 370 L475 473 L162 473 L162 792 L832 792 L832 473 L522 473 L522 370 L855 370 L855 328 L522 328 L522 214 L942 214 L942 170 ZM66 -55 Q136 5 180 113 L224 101 Q174 -17 108 -77 L66 -55 ZM394 96 Q417 8 417 -60 L370 -67 Q370 10 349 94 L394 96 ZM602 101 Q641 21 662 -55 L615 -67 Q596 9 557 93 L602 101 ZM806 112 Q894 27 943 -53 L899 -73 Q852 5 763 96 L806 112 Z" /><glyph glyph-name="" unicode="&#x2fcd;&#x9f0e;" d="M658 762 L329 762 L329 683 L658 683 L658 762 ZM658 646 L329 646 L329 565 L658 565 L658 646 ZM658 528 L329 528 L329 447 L658 447 L658 528 ZM705 408 L282 408 L282 800 L705 800 L705 408 ZM165 350 L414 350 L414 -74 L367 -74 L367 168 L211 168 Q195 -19 91 -82 Q78 -58 60 -48 Q152 6 165 168 L49 168 L49 212 L367 212 L367 308 L118 308 L118 746 L165 746 L165 350 ZM897 211 L897 -75 L849 -75 L849 166 L622 166 L622 -73 L576 -73 L576 350 L827 350 L827 748 L874 748 L874 308 L622 308 L622 211 L897 211 Z" /><glyph glyph-name="" unicode="&#x2fce;&#x9f13;" d="M253 691 L57 691 L57 734 L253 734 L253 833 L300 833 L300 734 L495 734 L495 691 L300 691 L300 585 L473 585 L473 542 L78 542 L78 585 L253 585 L253 691 ZM404 419 L146 419 L146 280 L404 280 L404 419 ZM451 239 L101 239 L101 460 L451 460 L451 239 ZM183 42 Q172 122 131 199 L172 211 Q219 134 228 56 L183 42 ZM500 25 L54 -42 L46 4 Q182 21 314 42 Q347 129 368 216 L413 204 Q379 97 361 49 L498 69 L500 25 ZM588 407 Q634 259 721 148 Q822 259 868 407 L588 407 ZM927 439 Q876 246 752 113 Q847 11 967 -30 Q947 -48 933 -71 Q810 -22 719 80 Q614 -18 472 -74 Q456 -49 438 -35 Q584 18 688 116 Q593 235 542 407 L505 407 L505 451 L699 451 L699 620 L491 620 L491 665 L699 665 L699 833 L747 833 L747 665 L950 665 L950 620 L747 620 L747 451 L888 451 L898 454 L927 439 Z" /><glyph glyph-name="" unicode="&#x3001;" d="M284 -48 Q178 82 59 176 L100 213 Q206 129 329 -10 L284 -48 Z" /><glyph glyph-name="" unicode="&#x3002;" d="M195 242 Q256 242 298 199 Q341 156 341 95 Q341 34 298 -9 Q256 -52 195 -52 Q134 -52 91 -9 Q48 34 48 95 Q48 156 91 199 Q134 242 195 242 ZM195 -13 Q240 -13 272 19 Q303 50 303 95 Q303 139 272 171 Q240 203 195 203 Q150 203 119 171 Q87 139 87 95 Q87 50 119 19 Q150 -13 195 -13 Z" /><glyph glyph-name="" unicode="&#x300a;" d="M810 -69 L773 -82 L536 380 L773 842 L810 829 L579 380 L810 -69 ZM959 -69 L922 -82 L685 380 L922 842 L959 829 L728 380 L959 -69 Z" /><glyph glyph-name="" unicode="&#x300b;" d="M190 -69 L421 380 L190 829 L227 842 L464 380 L227 -82 L190 -69 ZM41 -69 L272 380 L41 829 L78 842 L315 380 L78 -82 L41 -69 Z" /><glyph glyph-name="" unicode="&#x300c;" d="M656 842 L962 842 L962 796 L704 796 L704 191 L656 191 L656 842 Z" /><glyph glyph-name="" unicode="&#x300d;" d="M344 -82 L38 -82 L38 -36 L296 -36 L296 569 L344 569 L344 -82 Z" /><glyph glyph-name="" unicode="&#x3010;" d="M962 842 L962 837 Q764 672 764 380 Q764 88 962 -77 L962 -82 L670 -82 L670 842 L962 842 Z" /><glyph glyph-name="" unicode="&#x3011;" d="M330 -82 L38 -82 L38 -77 Q236 88 236 380 Q236 672 38 837 L38 842 L330 842 L330 -82 Z" /><glyph glyph-name="" unicode="&#x301c;&#xff5e;" d="M701 256 Q592 256 482 360 Q385 449 299 449 Q165 449 93 309 L44 335 Q140 504 299 504 Q408 504 518 400 Q613 311 701 311 Q835 311 907 451 L956 425 Q860 256 701 256 Z" /><glyph glyph-name="" unicode="&#x33a1;" d="M147 450 L195 450 L202 368 L205 368 Q288 462 372 462 Q488 462 519 356 Q620 462 699 462 Q859 462 859 257 L859 0 L802 0 L802 250 Q802 411 686 411 Q617 411 531 316 L531 0 L474 0 L474 250 Q474 411 360 411 Q288 411 205 316 L205 0 L147 0 L147 450 ZM708 572 Q817 659 839 681 Q883 724 883 762 Q883 828 811 828 Q764 828 730 779 L699 805 Q750 870 816 870 Q871 870 902 842 Q933 814 933 766 Q933 722 891 676 Q867 649 787 585 L946 585 L946 543 L708 543 L708 572 Z" /><glyph glyph-name="" unicode="&#x4e03;" d="M777 12 Q825 12 841 46 Q855 77 862 183 Q882 167 911 159 Q902 44 879 8 Q853 -35 775 -35 L489 -35 Q407 -35 378 -10 Q348 15 348 89 L348 427 L64 379 L55 427 L348 476 L348 819 L397 819 L397 483 L936 574 L945 526 L397 434 L397 87 Q397 43 414 28 Q432 12 487 12 L777 12 Z" /><glyph glyph-name="" unicode="&#x4e07;" d="M406 707 Q402 564 392 477 L838 477 L837 451 Q812 11 762 -40 Q740 -66 688 -69 Q609 -71 512 -63 Q510 -37 495 -16 Q573 -24 673 -24 Q708 -25 720 -12 Q764 28 787 431 L386 431 Q335 58 80 -77 Q66 -58 44 -43 Q236 56 307 289 Q351 433 357 707 L66 707 L66 753 L935 753 L935 707 L406 707 Z" /><glyph glyph-name="" unicode="&#x4e08;" d="M632 583 Q619 267 504 131 Q665 4 950 -30 Q931 -53 921 -75 Q632 -33 470 96 Q351 -17 104 -69 Q94 -44 76 -27 Q319 23 432 129 Q288 266 224 516 L268 528 Q327 294 465 165 Q571 290 581 583 L70 583 L70 630 L582 630 Q584 689 584 819 L635 819 Q635 690 633 630 L932 630 L932 583 L632 583 Z" /><glyph glyph-name="" unicode="&#x4e09;" d="M877 735 L877 687 L127 687 L127 735 L877 735 ZM799 407 L799 359 L187 359 L187 407 L799 407 ZM932 55 L932 7 L68 7 L68 55 L932 55 Z" /><glyph glyph-name="" unicode="&#x4e0a;" d="M944 22 L944 -26 L57 -26 L57 22 L441 22 L441 816 L491 816 L491 496 L876 496 L876 449 L491 449 L491 22 L944 22 Z" /><glyph glyph-name="" unicode="&#x4e0b;" d="M506 711 L506 519 L516 531 Q733 427 881 319 L850 277 Q708 382 506 484 L506 -72 L456 -72 L456 711 L59 711 L59 759 L942 759 L942 711 L506 711 Z" /><glyph glyph-name="" unicode="&#x4e0d;&#xf967;" d="M603 712 Q575 662 524 590 L524 -72 L474 -72 L474 528 Q307 328 85 209 Q66 235 53 248 Q376 417 544 712 L74 712 L74 760 L927 760 L927 712 L603 712 ZM600 526 Q832 384 950 265 L914 229 Q791 355 566 495 L600 526 Z" /><glyph glyph-name="" unicode="&#x4e0e;" d="M684 178 L64 178 L64 224 L684 224 L684 178 ZM875 432 Q874 414 873 407 Q832 23 770 -35 Q745 -59 691 -62 Q623 -64 517 -55 Q515 -29 500 -9 Q577 -16 679 -16 Q717 -16 730 -5 Q785 41 822 387 L170 387 Q217 547 269 808 L316 802 Q312 779 291 685 L867 685 L867 638 L281 638 Q254 513 232 432 L875 432 Z" /><glyph glyph-name="" unicode="&#x4e13;" d="M375 478 L329 350 L787 350 L795 353 L832 331 Q717 216 551 57 Q651 15 727 -30 L696 -70 Q523 36 265 118 L294 152 Q386 126 503 78 Q617 182 739 304 L259 304 Q283 362 326 478 L62 478 L62 524 L341 524 Q352 554 390 663 L141 663 L141 709 L404 709 Q428 778 442 831 L492 831 Q483 799 453 709 L848 709 L848 663 L438 663 Q418 601 391 524 L919 524 L919 478 L375 478 Z" /><glyph glyph-name="" unicode="&#x4e14;" d="M267 18 L739 18 L739 223 L267 223 L267 18 ZM267 725 L267 523 L739 523 L739 725 L267 725 ZM739 478 L267 478 L267 269 L739 269 L739 478 ZM943 18 L943 -29 L58 -29 L58 18 L220 18 L220 772 L788 772 L788 18 L943 18 Z" /><glyph glyph-name="" unicode="&#x4e16;" d="M515 531 L515 250 L738 250 L738 531 L515 531 ZM468 204 L468 531 L259 531 L259 46 L915 46 L915 -1 L208 -1 L208 531 L57 531 L57 577 L208 577 L208 807 L259 807 L259 577 L468 577 L468 830 L515 830 L515 577 L738 577 L738 818 L786 818 L786 577 L946 577 L946 531 L786 531 L786 204 L468 204 Z" /><glyph glyph-name="" unicode="&#x4e1a;" d="M909 568 Q815 363 729 234 L690 254 Q792 412 864 589 L909 568 ZM240 243 Q194 391 94 579 L139 592 Q241 403 288 261 L240 243 ZM936 29 L936 -19 L67 -19 L67 29 L358 29 L358 821 L407 821 L407 29 L596 29 L596 819 L644 819 L644 29 L936 29 Z" /><glyph glyph-name="" unicode="&#x4e1c;" d="M320 249 Q243 86 121 -25 Q99 -3 82 7 Q204 110 273 262 L320 249 ZM567 352 L567 5 Q567 -42 533 -54 Q504 -64 390 -64 Q386 -42 370 -13 Q466 -16 500 -14 Q519 -13 519 6 L519 352 L289 352 Q204 352 186 339 Q177 372 168 390 Q189 394 239 470 Q276 523 345 651 L84 651 L84 697 L368 697 Q403 765 430 836 L477 811 Q450 749 424 697 L906 697 L906 651 L401 651 Q326 507 249 399 L519 399 L519 556 L567 556 L567 399 L867 399 L866 352 L567 352 ZM706 264 Q855 124 927 11 L885 -15 Q816 101 667 242 L706 264 Z" /><glyph glyph-name="" unicode="&#x4e1d;" d="M901 229 Q897 212 897 185 Q550 167 523 157 Q518 180 507 203 Q531 209 594 277 Q647 330 732 439 Q533 427 515 417 Q507 446 498 464 Q517 468 560 529 Q656 663 724 829 L769 808 Q677 615 572 473 L766 483 Q817 555 862 626 L906 603 Q747 365 590 214 L901 229 ZM467 226 Q464 189 465 183 Q141 160 120 151 Q116 171 104 199 Q129 204 189 274 Q237 322 317 431 Q128 419 111 410 Q103 439 94 457 Q112 461 155 523 Q248 654 316 826 L362 806 Q264 597 166 465 L349 476 Q410 562 450 632 L494 609 Q340 366 187 209 L467 226 ZM939 37 L939 -9 L57 -9 L57 37 L939 37 Z" /><glyph glyph-name="" unicode="&#x4e22;" d="M938 326 L450 326 L473 315 Q349 140 239 34 L778 71 Q713 163 646 235 L691 254 Q845 87 911 -45 L863 -68 Q837 -16 805 30 Q187 -17 158 -29 Q155 -10 141 22 Q163 24 215 78 Q310 161 415 326 L63 326 L63 372 L476 372 L476 534 L149 534 L149 580 L476 580 L476 726 Q332 713 140 706 Q137 725 127 752 Q615 770 821 825 L857 781 Q727 749 524 730 L524 580 L852 580 L852 534 L524 534 L524 372 L938 372 L938 326 Z" /><glyph glyph-name="" unicode="&#x4e24;" d="M602 552 L602 713 L391 713 L391 552 L602 552 ZM649 552 L894 552 L894 -1 Q894 -53 855 -65 Q820 -74 674 -74 Q671 -54 656 -23 Q709 -25 822 -25 Q847 -24 847 -1 L847 506 L647 506 Q643 443 635 401 Q756 259 813 153 L781 117 Q736 207 625 349 Q585 188 479 82 Q462 103 444 115 Q587 254 600 506 L389 506 Q386 453 377 400 Q455 300 488 235 L457 196 Q432 251 366 345 Q324 186 221 82 Q208 100 186 115 Q329 254 341 506 L156 506 L156 -74 L109 -74 L109 552 L343 552 L343 713 L63 713 L63 760 L937 760 L937 713 L649 713 L649 552 Z" /><glyph glyph-name="" unicode="&#x4e25;" d="M416 443 L581 443 L581 728 L416 728 L416 443 ZM932 399 L172 399 L172 271 Q172 47 72 -73 Q54 -51 36 -40 Q124 65 124 271 L124 443 L369 443 L369 728 L111 728 L111 772 L899 772 L899 728 L628 728 L628 443 L932 443 L932 399 ZM252 474 Q228 568 155 666 L196 682 Q271 584 295 491 L252 474 ZM687 489 Q745 571 798 686 L846 667 Q775 541 725 472 L687 489 Z" /><glyph glyph-name="" unicode="&#x4e2a;" d="M476 556 L524 556 L524 -73 L476 -73 L476 556 ZM553 813 Q543 794 527 772 Q678 567 960 421 Q941 408 925 380 Q655 529 500 735 Q333 508 80 381 Q59 411 44 422 Q350 565 511 833 L553 813 Z" /><glyph glyph-name="" unicode="&#x4e2d;" d="M845 309 L845 604 L522 604 L522 309 L845 309 ZM473 309 L473 604 L150 604 L150 309 L473 309 ZM894 651 L894 201 L845 201 L845 262 L522 262 L522 -72 L473 -72 L473 262 L150 262 L150 196 L103 196 L103 651 L473 651 L473 832 L522 832 L522 651 L894 651 Z" /><glyph glyph-name="" unicode="&#x4e30;" d="M942 175 L524 175 L524 -72 L475 -72 L475 175 L58 175 L58 223 L475 223 L475 414 L144 414 L144 460 L475 460 L475 637 L95 637 L95 685 L475 685 L475 834 L524 834 L524 685 L902 685 L902 637 L524 637 L524 460 L857 460 L857 414 L524 414 L524 223 L942 223 L942 175 Z" /><glyph glyph-name="" unicode="&#x4e32;&#xf905;" d="M840 143 L840 317 L522 317 L522 143 L840 143 ZM473 143 L473 317 L162 317 L162 143 L473 143 ZM473 503 L473 670 L201 670 L201 503 L473 503 ZM522 670 L522 503 L795 503 L795 670 L522 670 ZM890 362 L890 57 L840 57 L840 99 L522 99 L522 -72 L473 -72 L473 99 L162 99 L162 55 L114 55 L114 362 L473 362 L473 459 L152 459 L152 714 L473 714 L473 833 L522 833 L522 714 L845 714 L845 459 L522 459 L522 362 L890 362 Z" /><glyph glyph-name="" unicode="&#x4e34;" d="M99 706 L145 706 L145 67 L99 67 L99 706 ZM261 819 L308 819 L308 -67 L261 -67 L261 819 ZM475 332 L475 30 L647 30 L647 332 L475 332 ZM866 332 L693 332 L693 30 L866 30 L866 332 ZM428 378 L915 378 L915 -68 L866 -68 L866 -16 L475 -16 L475 -73 L428 -73 L428 378 ZM750 427 Q686 497 583 583 L614 611 Q731 517 783 461 L750 427 ZM947 711 L947 665 L518 665 Q462 540 395 459 Q379 473 351 486 Q469 610 531 837 L578 828 Q563 778 538 711 L947 711 Z" /><glyph glyph-name="" unicode="&#x4e3a;" d="M291 634 Q253 703 179 784 L219 804 Q295 725 333 658 L291 634 ZM891 561 Q869 21 820 -32 Q796 -60 748 -63 Q693 -65 589 -58 Q589 -33 573 -9 Q643 -16 732 -16 Q764 -17 776 -2 Q821 42 841 541 L466 541 Q423 156 97 -62 Q86 -45 60 -28 Q373 181 418 541 L89 541 L89 589 L422 589 Q427 648 427 723 L427 831 L475 831 L475 723 Q475 652 471 589 L891 589 L891 561 ZM657 179 Q611 268 508 380 L547 401 Q654 288 698 204 L657 179 Z" /><glyph glyph-name="" unicode="&#x4e3b;" d="M569 631 Q514 704 392 800 L429 826 Q546 741 609 659 L569 631 ZM944 10 L944 -38 L61 -38 L61 10 L475 10 L475 286 L152 286 L152 333 L475 333 L475 580 L109 580 L109 627 L893 627 L893 580 L525 580 L525 333 L855 333 L855 286 L525 286 L525 10 L944 10 Z" /><glyph glyph-name="" unicode="&#x4e3d;" d="M445 -5 Q445 -46 417 -58 Q392 -68 301 -66 Q298 -49 284 -21 Q362 -23 381 -21 Q398 -21 398 -5 L398 553 L163 553 L163 -73 L118 -73 L118 598 L445 598 L445 -5 ZM305 205 Q274 290 209 406 L247 420 Q312 311 346 223 L305 205 ZM892 -8 Q892 -50 864 -61 Q839 -70 741 -70 Q738 -49 725 -25 L827 -25 Q844 -25 844 -9 L844 553 L593 553 L593 -73 L548 -73 L548 598 L892 598 L892 -8 ZM748 199 Q721 266 646 393 L684 409 Q761 282 787 216 L748 199 ZM941 766 L941 719 L59 719 L59 766 L941 766 Z" /><glyph glyph-name="" unicode="&#x4e3e;" d="M500 660 Q476 731 408 822 L450 839 Q514 754 544 680 L500 660 ZM280 636 Q246 706 171 788 L212 807 Q289 728 322 659 L280 636 ZM523 184 L911 184 L911 137 L523 137 L523 -76 L475 -76 L475 137 L97 137 L97 184 L475 184 L475 329 L228 329 L228 374 L475 374 L475 506 L523 506 L523 374 L784 374 L784 329 L523 329 L523 184 ZM685 585 Q793 426 968 355 Q946 339 936 317 Q742 406 635 585 L368 585 Q268 397 71 309 Q54 335 39 347 Q218 417 318 585 L60 585 L60 630 L644 630 Q713 707 780 819 L827 799 Q762 703 697 630 L940 630 L940 585 L685 585 Z" /><glyph glyph-name="" unicode="&#x4e43;" d="M882 405 Q882 387 881 380 Q861 21 818 -22 Q795 -47 745 -48 Q687 -51 570 -43 Q566 -14 551 5 Q639 -3 729 -3 Q764 -3 774 8 Q810 40 830 358 L554 358 Q600 489 654 712 L328 712 L328 686 Q328 192 74 -73 Q53 -50 36 -38 Q279 213 279 686 L279 712 L107 712 L107 759 L718 759 Q675 575 624 405 L882 405 Z" /><glyph glyph-name="" unicode="&#x4e45;" d="M665 651 Q633 518 576 401 Q693 81 959 -32 Q936 -53 925 -73 Q677 41 548 348 Q387 61 90 -78 Q71 -47 54 -37 Q479 150 603 617 L313 617 Q219 432 84 311 Q63 332 42 345 Q245 512 351 833 L401 821 Q374 745 337 664 L622 664 L633 667 L665 651 Z" /><glyph glyph-name="" unicode="&#x4e48;" d="M505 799 Q344 551 107 367 Q85 391 72 402 Q316 582 457 818 L505 799 ZM892 -64 Q854 4 823 49 Q155 -9 128 -18 Q120 6 107 32 Q141 40 239 131 Q451 316 663 608 L712 585 Q453 245 211 44 L793 93 Q713 205 634 295 L675 316 Q855 117 935 -38 L892 -64 Z" /><glyph glyph-name="" unicode="&#x4e49;" d="M527 580 Q500 677 431 819 L471 837 Q540 696 569 600 L527 580 ZM848 743 Q734 424 536 223 Q723 45 952 -32 Q933 -49 919 -74 Q685 10 500 189 Q325 25 70 -70 Q61 -49 43 -31 Q295 60 468 222 Q271 426 157 715 L200 728 Q307 455 503 256 Q697 453 800 759 L848 743 Z" /><glyph glyph-name="" unicode="&#x4e4b;" d="M532 646 Q502 714 429 813 L470 833 Q548 732 577 669 L532 646 ZM846 607 Q639 295 286 89 Q305 73 330 57 Q404 10 586 10 Q783 10 955 26 Q942 -3 940 -28 Q788 -38 586 -38 Q396 -38 316 15 Q228 73 225 73 Q185 73 92 -48 L55 -5 Q168 119 226 119 Q234 119 243 116 Q555 291 766 580 L107 580 L107 627 L801 627 L811 631 L846 607 Z" /><glyph glyph-name="" unicode="&#x4e4d;" d="M463 610 L463 441 L881 441 L881 395 L463 395 L463 218 L894 218 L894 171 L463 171 L463 -73 L414 -73 L414 610 L267 610 Q188 482 91 388 Q68 408 47 418 Q221 570 328 836 L376 824 Q339 735 295 657 L935 657 L935 610 L463 610 Z" /><glyph glyph-name="" unicode="&#x4e4e;" d="M942 309 L532 309 L532 1 Q532 -55 486 -68 Q458 -76 286 -76 Q278 -51 264 -27 Q398 -31 452 -29 Q483 -26 483 1 L483 309 L60 309 L60 358 L483 358 L483 715 Q304 700 139 695 Q138 712 127 738 Q617 757 818 812 L845 770 Q731 740 532 719 L532 358 L942 358 L942 309 ZM221 654 Q300 519 324 426 L280 409 Q252 511 179 640 L221 654 ZM676 427 Q747 543 795 669 L844 651 Q770 495 714 409 L676 427 Z" /><glyph glyph-name="" unicode="&#x4e4f;" d="M879 766 Q637 707 136 689 Q132 714 124 732 Q639 755 850 807 L879 766 ZM500 517 Q471 570 402 664 L443 685 Q512 597 541 544 L500 517 ZM860 466 Q653 218 316 71 Q322 66 336 56 Q410 4 595 4 Q790 4 959 20 Q945 -6 943 -34 Q768 -44 594 -44 Q401 -44 320 14 Q235 79 228 79 Q191 79 95 -54 L58 -10 Q170 126 229 126 Q248 126 279 102 Q572 221 772 441 L122 441 L122 488 L814 488 L825 491 L860 466 Z" /><glyph glyph-name="" unicode="&#x4e50;" d="M296 259 Q205 105 84 -9 Q64 11 46 24 Q169 133 250 275 L296 259 ZM543 378 L543 -4 Q543 -52 507 -64 Q480 -73 347 -73 Q341 -47 329 -26 Q424 -29 472 -26 Q495 -26 495 -4 L495 378 L245 378 Q148 378 131 366 Q128 383 115 414 Q128 417 143 477 Q179 607 182 750 Q653 765 831 818 L863 777 Q665 720 230 708 Q216 558 180 426 L495 426 L495 643 L543 643 L543 426 L922 426 L922 378 L543 378 ZM740 273 Q876 137 955 21 L911 -4 Q833 115 700 252 L740 273 Z" /><glyph glyph-name="" unicode="&#x4e5d;" d="M866 -1 Q890 -1 897 31 Q904 59 907 166 Q921 155 953 144 Q948 29 933 -7 Q917 -47 868 -47 L744 -47 Q694 -47 676 -29 Q659 -12 659 40 L659 552 L406 552 Q390 335 329 196 Q252 18 91 -74 Q72 -51 51 -38 Q323 110 357 552 L82 552 L82 599 L360 599 Q364 677 364 830 L415 830 Q413 657 409 599 L708 599 L708 40 Q708 14 715 7 Q722 -1 747 -1 L866 -1 Z" /><glyph glyph-name="" unicode="&#x4e5f;" d="M777 -8 Q847 -8 870 30 Q890 63 900 181 Q921 166 946 161 Q935 34 906 -6 Q872 -53 773 -53 L400 -53 Q299 -53 264 -26 Q226 3 226 85 L226 426 L50 372 L37 415 L226 472 L226 765 L273 765 L273 486 L512 560 L512 831 L559 831 L559 574 L819 653 L835 666 L869 650 L866 640 Q861 349 831 269 Q807 207 752 202 Q691 198 638 201 Q636 227 625 247 Q664 244 734 244 Q774 244 791 292 Q815 357 818 607 L559 527 L559 134 L512 134 L512 513 L273 440 L273 82 Q273 29 297 11 Q321 -8 394 -8 L777 -8 Z" /><glyph glyph-name="" unicode="&#x4e60;" d="M724 274 Q466 185 130 72 L113 121 Q290 177 715 319 L724 274 ZM271 603 Q453 484 548 397 L513 359 Q426 446 239 572 L271 603 ZM876 721 Q867 26 825 -30 Q800 -63 755 -66 Q708 -69 606 -63 Q604 -35 591 -16 Q658 -21 742 -21 Q768 -23 781 -6 Q820 39 829 706 L126 706 L126 751 L876 751 L876 721 Z" /><glyph glyph-name="" unicode="&#x4e61;" d="M870 434 Q777 219 578 96 Q402 -12 108 -69 Q104 -50 82 -18 Q546 58 730 298 Q192 255 157 241 Q155 261 140 292 Q181 297 285 355 Q385 407 550 524 Q212 499 187 489 Q181 514 170 541 Q196 545 256 588 Q379 670 513 823 L560 795 Q407 637 274 548 L612 570 Q682 624 744 676 L788 644 Q547 443 293 309 L762 345 Q791 388 818 451 L870 434 Z" /><glyph glyph-name="" unicode="&#x4e66;" d="M912 623 Q850 685 735 763 L765 794 Q879 718 943 659 L912 623 ZM486 384 L744 384 L744 606 L486 606 L486 384 ZM936 384 L934 359 Q913 91 876 56 Q856 34 811 33 Q774 30 663 36 Q660 62 646 83 Q711 76 796 76 Q826 76 837 85 Q866 111 884 338 L486 338 L486 -74 L438 -74 L438 338 L64 338 L64 384 L438 384 L438 606 L136 606 L136 653 L438 653 L438 829 L486 829 L486 653 L791 653 L791 384 L936 384 Z" /><glyph glyph-name="" unicode="&#x4e70;" d="M765 554 Q806 616 848 714 L118 714 L118 760 L862 760 L862 761 L872 761 L882 764 L915 750 Q843 590 803 534 L765 554 ZM426 495 Q355 555 233 606 L259 639 Q381 589 453 532 L426 495 ZM152 490 Q281 441 350 387 L324 350 Q251 410 126 457 L152 490 ZM563 172 Q776 75 921 -33 L889 -69 Q754 35 537 139 L563 172 ZM931 286 L931 240 L533 240 Q492 114 394 41 Q288 -38 90 -77 Q84 -62 64 -34 Q249 0 349 67 Q443 131 483 240 L71 240 L71 286 L498 286 Q524 389 531 638 L579 638 Q572 396 546 286 L931 286 Z" /><glyph glyph-name="" unicode="&#x4e7e;" d="M132 283 L396 283 L396 398 L132 398 L132 283 ZM132 435 L396 435 L396 547 L132 547 L132 435 ZM285 137 L469 137 L469 95 L285 95 L285 -68 L239 -68 L239 95 L49 95 L49 137 L239 137 L239 242 L88 242 L88 588 L239 588 L239 688 L59 688 L59 730 L239 730 L239 834 L286 834 L286 730 L466 730 L466 688 L286 688 L286 588 L441 588 L441 242 L285 242 L285 137 ZM588 628 Q545 543 500 490 Q480 508 461 518 Q564 636 619 828 L665 816 Q642 741 611 674 L948 674 L948 628 L588 628 ZM869 -12 Q896 -12 905 14 Q914 41 916 137 Q938 124 958 121 Q953 6 935 -27 Q919 -57 868 -57 L625 -57 Q516 -57 516 16 Q516 99 792 432 L536 432 L536 477 L838 477 L847 478 L880 466 L873 455 Q563 82 563 22 Q563 -12 623 -12 L869 -12 Z" /><glyph glyph-name="" unicode="&#x4e86;" d="M880 726 Q745 577 527 462 L527 0 Q527 -53 483 -64 Q451 -73 282 -73 Q278 -55 262 -24 Q383 -28 450 -25 Q478 -24 478 0 L478 486 Q649 568 786 702 L100 702 L100 749 L832 749 L843 752 L880 726 Z" /><glyph glyph-name="" unicode="&#x4e88;" d="M945 450 Q825 280 755 216 L716 241 Q791 312 863 419 L530 419 L530 -1 Q530 -49 491 -60 Q462 -68 318 -68 Q314 -50 300 -22 Q405 -25 458 -22 Q481 -21 481 -1 L481 419 L59 419 L59 465 L608 465 Q457 548 285 626 L312 660 Q370 635 506 570 Q632 639 737 734 L151 734 L151 780 L784 780 L796 783 L831 757 Q724 648 554 546 Q590 529 675 484 L662 465 L897 465 L907 468 L945 450 Z" /><glyph glyph-name="" unicode="&#x4e89;" d="M770 349 L518 349 L518 207 L770 207 L770 349 ZM518 394 L770 394 L770 526 L518 526 L518 394 ZM338 705 Q272 627 201 571 L526 571 Q584 622 640 705 L338 705 ZM955 349 L817 349 L817 163 L808 163 L808 162 L518 162 L518 -1 Q518 -51 477 -62 Q444 -72 301 -70 Q298 -60 280 -24 Q413 -27 444 -24 Q470 -23 470 -1 L470 162 L140 162 L140 207 L470 207 L470 349 L50 349 L50 394 L470 394 L470 526 L180 526 L180 555 Q160 540 130 520 Q109 546 93 553 Q278 668 372 835 L426 825 Q389 770 374 749 L672 749 L681 752 L715 728 Q668 650 587 571 L817 571 L817 394 L955 394 L955 349 Z" /><glyph glyph-name="" unicode="&#x4e8b;" d="M797 215 L521 215 L521 123 L797 123 L797 215 ZM521 257 L797 257 L797 343 L521 343 L521 257 ZM473 507 L473 593 L225 593 L225 507 L473 507 ZM521 593 L521 507 L782 507 L782 593 L521 593 ZM948 215 L844 215 L844 37 L797 37 L797 83 L521 83 L521 -6 Q521 -56 483 -68 Q455 -76 321 -76 Q316 -56 303 -32 Q401 -35 448 -32 Q473 -31 473 -7 L473 83 L138 83 L138 123 L473 123 L473 215 L56 215 L56 257 L473 257 L473 343 L148 343 L148 383 L473 383 L473 469 L178 469 L178 632 L473 632 L473 702 L73 702 L73 744 L473 744 L473 832 L521 832 L521 744 L931 744 L931 702 L521 702 L521 632 L830 632 L830 469 L521 469 L521 383 L844 383 L844 257 L948 257 L948 215 Z" /><glyph glyph-name="" unicode="&#x4e8e;" d="M942 380 L533 380 L533 10 Q533 -46 488 -59 Q452 -70 292 -68 Q285 -45 271 -18 Q409 -21 454 -19 Q484 -18 484 9 L484 380 L59 380 L59 427 L484 427 L484 710 L128 710 L128 757 L872 757 L872 710 L533 710 L533 427 L942 427 L942 380 Z" /><glyph glyph-name="" unicode="&#x4e91;" d="M836 696 L168 696 L168 745 L836 745 L836 696 ZM458 413 Q340 184 215 29 L776 78 Q698 195 632 284 L674 305 Q848 79 913 -49 L868 -75 Q842 -26 805 33 Q179 -24 146 -37 Q138 -4 128 17 Q152 22 202 95 Q300 215 394 413 L62 413 L62 461 L940 461 L940 413 L458 413 Z" /><glyph glyph-name="" unicode="&#x4e92;" d="M676 243 Q700 446 705 493 L321 493 Q289 322 272 243 L676 243 ZM944 16 L944 -31 L58 -31 L58 16 L645 16 Q661 125 670 197 L209 197 Q268 435 309 718 L93 718 L93 765 L914 765 L914 718 L361 718 Q341 606 330 539 L715 539 L724 542 L758 537 Q729 244 693 16 L944 16 Z" /><glyph glyph-name="" unicode="&#x4e94;" d="M427 395 Q378 107 362 33 L683 33 Q707 245 718 395 L427 395 ZM942 33 L942 -14 L58 -14 L58 33 L311 33 Q332 129 378 395 L180 395 L180 441 L386 441 Q383 424 422 685 L125 685 L125 732 L867 732 L867 685 L471 685 Q444 502 434 441 L726 441 L735 444 L771 440 Q760 279 732 33 L942 33 Z" /><glyph glyph-name="" unicode="&#x4e95;" d="M657 306 L657 569 L347 569 L347 437 Q347 359 342 306 L657 306 ZM934 259 L706 259 L706 -73 L657 -73 L657 259 L336 259 Q302 36 116 -84 Q104 -69 78 -50 Q253 62 286 259 L68 259 L68 306 L292 306 Q298 356 298 437 L298 569 L102 569 L102 617 L298 617 L298 828 L347 828 L347 617 L657 617 L657 828 L706 828 L706 617 L912 617 L912 569 L706 569 L706 306 L934 306 L934 259 Z" /><glyph glyph-name="" unicode="&#x4e9a;" d="M398 38 L585 38 L585 722 L398 722 L398 38 ZM947 38 L947 -9 L53 -9 L53 38 L348 38 L348 722 L77 722 L77 770 L926 770 L926 722 L635 722 L635 38 L947 38 ZM134 557 Q233 373 281 236 L236 217 Q197 346 93 543 L134 557 ZM686 238 Q784 385 855 555 L900 538 Q817 356 727 219 L686 238 Z" /><glyph glyph-name="" unicode="&#x4e9b;" d="M662 341 Q600 341 578 359 Q556 377 556 428 L556 832 L604 832 L604 621 Q772 679 851 733 L892 697 Q787 638 604 576 L604 427 Q604 403 615 395 Q626 387 663 387 L849 387 Q882 387 892 413 Q901 437 905 525 Q921 512 950 504 Q945 406 927 375 Q907 341 851 341 L662 341 ZM174 224 L841 224 L841 177 L174 177 L174 224 ZM501 372 Q186 329 56 312 L49 360 L121 368 L121 719 L167 719 L167 374 L274 387 L274 832 L322 832 L322 649 L494 649 L494 604 L322 604 L322 394 L500 417 L501 372 ZM63 1 L938 1 L938 -46 L63 -46 L63 1 Z" /><glyph glyph-name="" unicode="&#x4ea1;" d="M523 624 Q496 713 435 816 L481 833 Q543 732 572 644 L523 624 ZM264 573 L264 42 L884 42 L884 -7 L214 -7 L214 573 L63 573 L63 620 L937 620 L937 573 L264 573 Z" /><glyph glyph-name="" unicode="&#x4ea4;" d="M501 696 Q480 752 428 825 L473 841 Q524 770 547 714 L501 696 ZM925 641 L73 641 L73 688 L925 688 L925 641 ZM668 594 Q841 480 928 375 L888 344 Q802 452 630 568 L668 594 ZM377 578 Q280 455 120 347 Q88 380 82 384 Q238 478 332 596 L377 578 ZM711 415 Q653 261 540 152 Q703 21 955 -21 Q936 -40 924 -66 Q669 -16 504 120 Q348 -8 79 -76 Q68 -52 49 -31 Q317 27 469 152 Q358 258 297 409 L341 424 Q396 285 504 183 Q611 286 663 429 L711 415 Z" /><glyph glyph-name="" unicode="&#x4ea6;" d="M520 663 Q488 739 430 821 L475 836 Q536 752 567 682 L520 663 ZM258 476 Q206 285 115 169 Q95 187 73 195 Q163 302 211 484 L258 476 ZM776 483 Q894 301 934 158 L889 139 Q850 283 735 468 L776 483 ZM936 650 L936 603 L664 603 L664 -2 Q664 -53 626 -64 Q597 -73 458 -73 Q454 -54 440 -24 Q553 -27 592 -25 Q615 -24 615 -2 L615 603 L418 603 L418 477 Q418 306 378 194 Q319 31 163 -80 Q147 -57 127 -46 Q277 58 333 213 Q370 317 370 477 L370 603 L65 603 L65 650 L936 650 Z" /><glyph glyph-name="" unicode="&#x4ea7;" d="M893 656 L115 656 L115 702 L510 702 Q490 751 439 817 L483 832 Q536 769 563 710 L543 702 L893 702 L893 656 ZM362 473 Q335 540 274 621 L314 637 Q378 556 404 492 L362 473 ZM922 410 L182 410 L182 322 Q182 62 82 -78 Q62 -56 43 -47 Q134 83 134 323 L134 457 L610 457 Q662 538 697 633 L747 616 Q695 513 657 457 L922 457 L922 410 Z" /><glyph glyph-name="" unicode="&#x4eab;" d="M933 695 L66 695 L66 738 L491 738 Q473 782 445 829 L492 840 Q527 780 545 738 L933 738 L933 695 ZM246 468 L758 468 L758 579 L246 579 L246 468 ZM198 429 L198 619 L807 619 L807 429 L198 429 ZM943 126 L524 126 L524 -17 Q524 -60 488 -69 Q463 -76 316 -76 Q313 -63 298 -35 Q416 -38 452 -36 Q475 -35 475 -17 L475 126 L59 126 L59 170 L475 170 L475 240 Q605 264 723 313 L150 313 L150 355 L800 355 L812 358 L847 330 Q727 260 524 213 L524 170 L943 170 L943 126 Z" /><glyph glyph-name="" unicode="&#x4eac;" d="M297 187 Q215 56 96 -37 Q77 -17 60 -7 Q187 89 250 203 L297 187 ZM246 319 L764 319 L764 510 L246 510 L246 319 ZM527 275 L527 -9 Q527 -55 490 -66 Q458 -76 313 -74 Q310 -58 295 -29 Q403 -32 455 -29 Q478 -28 478 -9 L478 275 L198 275 L198 554 L813 554 L813 275 L527 275 ZM734 203 Q865 75 929 -13 L888 -42 Q818 61 696 179 L734 203 ZM934 702 L934 654 L70 654 L70 702 L494 702 Q456 776 421 824 L466 838 Q518 769 549 702 L934 702 Z" /><glyph glyph-name="" unicode="&#x4eae;" d="M842 -15 Q865 -15 872 5 Q879 25 881 99 Q899 86 924 81 Q920 -3 905 -30 Q890 -57 848 -57 L715 -57 Q664 -57 647 -43 Q629 -29 629 12 L629 196 L364 196 Q353 70 297 13 Q240 -46 94 -74 Q87 -52 68 -35 Q215 -9 266 50 Q313 103 319 239 L678 239 L678 12 Q678 -5 686 -10 Q693 -15 720 -15 L842 -15 ZM90 362 L908 362 L908 213 L860 213 L860 321 L137 321 L137 213 L90 213 L90 362 ZM750 580 L257 580 L257 477 L750 477 L750 580 ZM799 619 L799 438 L209 438 L209 619 L799 619 ZM929 728 L929 685 L68 685 L68 728 L504 728 Q477 787 449 825 L494 837 Q533 785 557 730 L550 728 L929 728 Z" /><glyph glyph-name="" unicode="&#x4eb2;" d="M874 660 L141 660 L141 704 L489 704 Q464 763 427 819 L473 831 Q514 772 543 704 L874 704 L874 660 ZM336 470 Q314 549 260 631 L303 643 Q360 560 381 488 L336 470 ZM332 194 Q262 64 139 -34 Q123 -18 99 -2 Q221 84 286 208 L332 194 ZM686 209 Q819 95 885 -1 L844 -30 Q777 70 647 184 L686 209 ZM525 421 L525 299 L910 299 L910 255 L525 255 L525 -7 Q525 -51 492 -62 Q467 -70 349 -70 Q346 -56 331 -24 Q426 -27 457 -25 Q476 -25 476 -7 L476 255 L94 255 L94 299 L476 299 L476 421 L76 421 L76 465 L590 465 Q648 553 688 645 L737 633 Q670 510 642 465 L926 465 L926 421 L525 421 Z" /><glyph glyph-name="" unicode="&#x4ebf;" d="M345 817 Q312 728 249 617 L249 -71 L202 -71 L202 541 Q140 445 71 375 Q55 404 40 419 Q204 578 300 831 L345 817 ZM809 27 Q849 27 862 67 Q874 105 879 238 Q897 225 923 221 Q916 68 894 24 Q873 -19 808 -19 L525 -19 Q377 -19 377 77 Q377 128 439 219 Q532 354 813 671 L393 671 L393 717 L863 717 L875 719 L906 703 Q902 698 897 694 Q424 167 424 80 Q424 28 520 28 L809 27 Z" /><glyph glyph-name="" unicode="&#x4ec0;&#xf9fd;" d="M357 816 Q316 712 251 601 L251 -72 L204 -72 L204 527 Q138 430 75 366 Q59 395 44 410 Q213 573 312 829 L357 816 ZM950 432 L667 432 L667 -73 L618 -73 L618 432 L325 432 L325 479 L618 479 L618 825 L667 825 L667 479 L950 479 L950 432 Z" /><glyph glyph-name="" unicode="&#x4ec5;" d="M359 812 Q310 695 245 590 L245 -71 L198 -71 L198 518 Q135 429 65 361 Q53 386 33 405 Q210 566 312 826 L359 812 ZM452 674 Q512 401 638 223 Q787 413 843 674 L452 674 ZM898 712 Q840 396 666 185 Q788 33 960 -32 Q946 -43 927 -71 Q756 -2 636 150 Q504 2 323 -73 Q316 -53 295 -33 Q471 34 608 187 Q474 374 406 674 L358 674 L358 720 L857 720 L867 723 L898 712 Z" /><glyph glyph-name="" unicode="&#x4eca;" d="M805 342 L841 322 Q700 138 520 -75 L473 -52 Q622 117 754 290 L165 290 L165 338 L796 338 L805 342 ZM585 382 Q518 455 396 548 L430 576 Q559 484 621 414 L585 382 ZM547 816 L529 791 Q699 577 957 465 Q940 452 920 423 Q676 542 500 754 Q334 547 78 420 Q61 445 42 459 Q342 597 502 837 L547 816 Z" /><glyph glyph-name="" unicode="&#x4ecb;" d="M291 450 L340 450 L340 313 Q340 188 303 109 Q252 -2 115 -74 Q101 -55 77 -39 Q208 28 257 130 Q291 201 291 313 L291 450 ZM664 451 L713 451 L713 -76 L664 -76 L664 451 ZM539 811 Q529 795 525 787 Q693 551 970 461 Q947 438 935 417 Q671 514 501 750 Q333 514 68 407 Q57 432 39 451 Q178 500 306 608 Q434 714 501 836 L539 811 Z" /><glyph glyph-name="" unicode="&#x4ecd;" d="M287 814 Q254 709 207 612 L207 -74 L161 -74 L161 524 Q117 446 62 378 Q55 394 33 423 Q166 578 242 826 L287 814 ZM910 466 Q910 446 909 440 Q885 7 839 -40 Q819 -64 772 -67 Q707 -69 619 -62 Q615 -33 603 -16 Q682 -23 757 -23 Q787 -23 799 -10 Q840 28 861 420 L672 420 Q702 539 732 713 L500 713 Q495 442 461 283 Q410 41 281 -76 Q270 -63 242 -45 Q442 128 453 713 L320 713 L320 758 L787 758 Q762 616 730 466 L910 466 Z" /><glyph glyph-name="" unicode="&#x4ece;" d="M465 162 Q417 267 295 435 Q244 99 98 -74 Q84 -60 53 -42 Q169 83 222 310 Q263 487 279 805 L330 802 Q320 626 304 498 Q447 317 502 195 L465 162 ZM711 804 Q696 601 674 473 Q746 114 948 -23 Q925 -46 914 -64 Q737 68 654 375 Q586 82 416 -69 Q400 -55 371 -37 Q517 83 584 304 Q639 484 660 807 L711 804 Z" /><glyph glyph-name="" unicode="&#x4ed4;" d="M328 820 Q282 695 219 586 L219 -74 L173 -74 L173 511 Q127 440 71 378 Q55 407 41 421 Q193 583 283 834 L328 820 ZM954 351 L654 351 L654 2 Q654 -49 616 -61 Q580 -71 440 -69 Q435 -44 422 -20 Q541 -23 583 -21 Q607 -20 607 2 L607 351 L307 351 L307 398 L607 398 L607 546 Q738 615 836 716 L369 716 L369 761 L878 761 L889 764 L923 740 Q819 621 654 525 L654 398 L954 398 L954 351 Z" /><glyph glyph-name="" unicode="&#x4ed6;" d="M327 816 Q282 703 220 598 L220 -72 L173 -72 L173 525 Q115 439 52 375 Q45 393 23 417 Q186 575 283 829 L327 816 ZM827 -17 Q873 -17 888 13 Q902 40 909 133 Q930 117 955 112 Q946 9 925 -24 Q899 -61 826 -61 L540 -61 Q459 -61 431 -38 Q402 -14 402 56 L402 410 L291 367 L273 410 L402 460 L402 740 L449 740 L449 478 L626 546 L626 832 L672 832 L672 564 L859 637 L877 652 L910 638 L907 628 Q907 296 892 242 Q880 186 831 181 Q797 176 736 178 Q732 205 722 223 Q738 222 808 222 Q839 222 848 256 Q862 304 862 588 L672 515 L672 141 L626 141 L626 496 L449 428 L449 55 Q449 12 466 -2 Q484 -17 538 -17 L827 -17 Z" /><glyph glyph-name="" unicode="&#x4ed8;" d="M358 812 Q312 694 246 583 L246 -71 L198 -71 L198 509 Q137 420 77 362 Q68 382 46 406 Q215 569 312 826 L358 812 ZM944 559 L809 559 L809 4 Q809 -55 762 -67 Q728 -77 559 -75 Q552 -52 538 -26 Q673 -30 730 -28 Q761 -25 761 3 L761 559 L342 559 L342 607 L761 607 L761 821 L809 821 L809 607 L944 607 L944 559 ZM571 158 Q515 267 415 414 L456 434 Q559 285 614 185 L571 158 Z" /><glyph glyph-name="" unicode="&#x4ed9;" d="M326 818 Q284 705 226 600 L226 -73 L180 -73 L180 522 Q127 440 69 376 Q54 404 39 420 Q193 580 281 832 L326 818 ZM913 604 L913 -72 L865 -72 L865 -6 L369 -6 L369 603 L416 603 L416 40 L613 40 L613 818 L661 818 L661 40 L865 40 L865 604 L913 604 Z" /><glyph glyph-name="" unicode="&#x4ee3;" d="M889 616 Q820 698 713 780 L746 803 Q862 717 926 642 L889 616 ZM376 806 Q325 693 260 594 L260 -72 L211 -72 L211 526 Q134 425 59 360 Q44 389 29 403 Q222 564 331 821 L376 806 ZM634 480 Q698 -5 869 -19 Q913 -20 931 163 Q949 148 972 140 Q945 -77 871 -74 Q656 -61 587 474 L322 442 L315 487 L583 519 Q567 666 560 819 L608 819 Q614 661 629 525 L939 562 L947 518 L634 480 Z" /><glyph glyph-name="" unicode="&#x4ee4;" d="M837 350 L550 60 Q623 4 665 -39 L628 -77 Q515 39 321 164 L357 197 Q433 147 510 90 Q621 194 745 322 L174 322 L174 369 L793 369 L801 373 L837 350 ZM565 414 Q516 486 407 573 L442 599 Q553 514 601 443 L565 414 ZM555 811 Q544 793 530 778 Q704 580 964 474 Q948 461 929 432 Q681 544 502 743 Q325 543 78 431 Q62 452 44 468 Q344 599 512 834 L555 811 Z" /><glyph glyph-name="" unicode="&#x4ee5;" d="M538 484 Q490 592 384 724 L425 745 Q531 617 581 509 L538 484 ZM477 247 Q477 249 490 204 Q177 63 146 37 Q139 55 119 78 Q171 107 171 155 L171 750 L221 750 L221 133 L477 247 ZM822 793 Q798 404 711 225 Q876 75 955 -41 L914 -72 Q842 39 690 184 Q592 13 378 -81 Q367 -61 343 -39 Q579 53 673 256 Q752 427 772 796 L822 793 Z" /><glyph glyph-name="" unicode="&#x4eea;" d="M666 577 Q623 679 544 787 L584 806 Q669 693 707 601 L666 577 ZM328 816 Q282 701 220 597 L220 -72 L174 -72 L174 524 Q115 437 52 374 Q44 393 23 417 Q186 575 283 829 L328 816 ZM900 768 Q827 370 657 171 Q779 29 958 -34 Q935 -54 923 -75 Q743 -7 624 134 Q495 2 298 -75 Q294 -65 269 -38 Q466 36 594 170 Q439 374 371 753 L417 760 Q479 407 628 207 Q787 401 852 777 L900 768 Z" /><glyph glyph-name="" unicode="&#x4eec;" d="M284 814 Q254 707 208 600 L208 -73 L162 -73 L162 502 Q122 426 75 361 Q58 389 44 406 Q167 562 239 826 L284 814 ZM352 643 L399 643 L399 -74 L352 -74 L352 643 ZM432 831 Q512 724 550 638 L509 616 Q473 698 394 813 L432 831 ZM914 0 Q914 -50 878 -62 Q851 -71 723 -71 Q720 -48 705 -23 Q797 -26 843 -23 Q866 -22 866 1 L866 749 L578 749 L578 794 L914 794 L914 0 Z" /><glyph glyph-name="" unicode="&#x4ef0;" d="M301 821 Q268 718 220 617 L220 -73 L174 -73 L174 528 Q129 446 67 369 Q45 405 38 414 Q176 574 256 833 L301 821 ZM606 774 Q519 732 394 700 L394 161 L570 223 Q572 198 577 183 Q357 98 339 82 Q333 100 314 123 Q350 141 350 191 L350 727 Q503 771 568 808 L606 774 ZM915 169 Q915 124 883 112 Q857 103 743 103 Q740 120 727 149 Q824 147 849 149 Q868 149 868 168 L868 686 L670 686 L670 -72 L624 -72 L624 730 L915 730 L915 169 Z" /><glyph glyph-name="" unicode="&#x4ef6;" d="M330 816 Q284 696 229 597 L229 -72 L182 -72 L182 518 Q132 439 72 374 Q54 403 42 417 Q195 576 284 829 L330 816 ZM943 279 L662 279 L662 -74 L614 -74 L614 279 L317 279 L317 326 L614 326 L614 575 L435 575 Q396 468 356 409 Q341 422 315 436 Q402 553 441 786 L487 777 Q472 697 449 622 L614 622 L614 821 L662 821 L662 622 L902 622 L902 575 L662 575 L662 326 L943 326 L943 279 Z" /><glyph glyph-name="" unicode="&#x4ef7;" d="M329 820 Q283 695 230 599 L230 -73 L182 -73 L182 517 Q133 439 78 377 Q59 409 48 421 Q196 577 283 832 L329 820 ZM448 453 L496 453 L496 317 Q496 51 317 -81 Q302 -60 282 -47 Q448 67 448 317 L448 453 ZM736 454 L784 454 L784 -71 L736 -71 L736 454 ZM659 826 L636 780 Q764 571 962 467 Q943 448 928 428 Q741 539 612 738 Q491 536 293 414 Q279 436 261 449 Q506 595 608 835 L659 826 Z" /><glyph glyph-name="" unicode="&#x4efb;" d="M358 820 Q307 703 246 605 L246 -74 L198 -74 L198 533 Q131 440 59 371 Q46 394 27 415 Q209 578 312 834 L358 820 ZM655 354 L655 14 L937 14 L937 -32 L333 -32 L333 14 L607 14 L607 354 L296 354 L296 400 L607 400 L607 690 Q525 675 346 651 Q343 669 331 691 Q713 745 870 802 L906 762 Q822 732 655 699 L655 400 L956 400 L956 354 L655 354 Z" /><glyph glyph-name="" unicode="&#x4efd;" d="M320 817 Q280 701 224 596 L224 -74 L177 -74 L177 513 Q128 434 76 374 Q65 396 46 417 Q189 574 274 829 L320 817 ZM565 797 Q489 531 321 387 Q309 407 288 426 Q450 555 518 806 L565 797 ZM842 435 Q842 416 841 410 Q819 4 779 -42 Q759 -64 720 -66 Q683 -69 606 -64 Q604 -39 592 -19 Q653 -24 704 -24 Q728 -24 738 -12 Q774 26 793 390 L587 390 Q550 57 346 -74 Q331 -52 312 -38 Q505 74 539 390 L390 390 L390 435 L842 435 ZM739 813 Q800 569 962 434 Q939 419 926 395 Q761 541 696 804 L739 813 Z" /><glyph glyph-name="" unicode="&#x4eff;" d="M645 664 Q630 730 596 817 L642 827 Q673 751 693 679 L645 664 ZM327 817 Q285 701 226 594 L226 -72 L179 -72 L179 515 Q133 442 73 374 Q55 407 43 419 Q193 576 282 830 L327 817 ZM557 608 Q556 521 548 437 L871 437 L870 411 Q852 5 813 -40 Q793 -62 751 -65 Q723 -67 621 -63 Q619 -39 606 -17 Q662 -22 734 -22 Q760 -23 771 -10 Q805 24 821 391 L544 391 Q509 54 326 -75 Q313 -57 290 -43 Q419 45 468 235 Q501 362 508 608 L324 608 L324 655 L952 655 L952 608 L557 608 Z" /><glyph glyph-name="" unicode="&#x4f01;" d="M534 3 L932 3 L932 -42 L84 -42 L84 3 L221 3 L221 386 L268 386 L268 3 L485 3 L485 569 L534 569 L534 326 L837 326 L837 281 L534 281 L534 3 ZM550 822 Q543 810 527 788 Q676 601 963 461 Q943 446 931 422 Q657 561 502 753 Q334 538 78 424 Q64 446 44 462 Q350 592 508 841 L550 822 Z" /><glyph glyph-name="" unicode="&#x4f0a;" d="M336 816 Q291 704 229 601 L229 -73 L183 -73 L183 531 Q119 440 57 378 Q43 401 26 422 Q192 577 292 830 L336 816 ZM825 477 L592 477 L592 420 Q592 336 584 282 L825 282 L825 477 ZM592 523 L825 523 L825 715 L592 715 L592 523 ZM953 477 L872 477 L872 181 L825 181 L825 237 L576 237 Q530 28 314 -74 Q298 -51 283 -36 Q483 51 528 237 L339 237 L339 282 L537 282 Q545 336 545 419 L545 477 L281 477 L281 523 L545 523 L545 715 L355 715 L355 761 L872 761 L872 523 L953 523 L953 477 Z" /><glyph glyph-name="" unicode="&#x4f0f;" d="M858 596 Q808 681 730 774 L767 795 Q854 695 896 621 L858 596 ZM338 817 Q297 709 236 605 L236 -72 L188 -72 L188 528 Q127 438 64 373 Q48 402 33 417 Q196 576 293 830 L338 817 ZM649 481 Q726 86 957 -32 Q935 -48 920 -73 Q709 48 622 394 Q573 104 333 -72 Q317 -55 293 -39 Q554 147 585 481 L311 481 L311 528 L589 528 Q591 556 591 611 L591 831 L639 831 L639 611 Q639 556 637 528 L945 528 L945 481 L649 481 Z" /><glyph glyph-name="" unicode="&#x4f11;" d="M358 812 Q312 700 245 595 L245 -71 L197 -71 L197 525 Q127 431 58 368 Q45 393 26 413 Q210 568 311 826 L358 812 ZM680 524 Q797 235 972 97 Q950 80 935 59 Q762 210 642 509 L642 -74 L595 -74 L595 492 Q482 202 306 54 Q285 77 268 91 Q448 225 560 524 L297 524 L297 571 L595 571 L595 820 L642 820 L642 571 L949 571 L949 524 L680 524 Z" /><glyph glyph-name="" unicode="&#x4f17;" d="M479 92 Q411 174 302 264 Q240 50 98 -66 Q89 -58 56 -36 Q251 109 295 479 L344 474 Q330 372 314 310 Q459 194 514 127 L479 92 ZM703 467 Q696 400 685 338 Q762 72 947 -27 Q930 -41 914 -67 Q753 27 668 257 Q610 38 469 -75 Q455 -61 428 -43 Q618 93 655 472 L703 467 ZM549 816 L523 767 Q672 550 955 474 Q936 456 920 429 Q655 511 499 732 Q354 521 87 426 Q58 465 53 469 Q379 574 503 835 L549 816 Z" /><glyph glyph-name="" unicode="&#x4f18;" d="M839 628 Q787 702 699 781 L733 804 Q827 719 873 656 L839 628 ZM335 817 Q290 696 226 584 L226 -73 L180 -73 L180 510 Q139 446 77 375 Q67 397 48 420 Q202 582 289 831 L335 817 ZM855 1 Q879 1 887 29 Q894 56 897 155 Q912 143 940 134 Q936 27 921 -7 Q905 -44 858 -44 L728 -44 Q679 -44 662 -28 Q644 -12 644 36 L644 456 L691 456 L691 36 Q691 15 699 8 Q707 1 732 1 L855 1 ZM945 592 L945 545 L574 545 Q541 92 322 -66 Q312 -52 287 -34 Q499 116 527 545 L290 545 L290 592 L530 592 Q535 688 535 822 L582 822 Q582 688 577 592 L945 592 Z" /><glyph glyph-name="" unicode="&#x4f19;" d="M947 628 Q876 448 821 353 L779 369 Q847 488 897 646 L947 628 ZM328 352 Q386 449 409 638 L453 631 Q429 433 373 333 L328 352 ZM333 816 Q284 690 231 597 L231 -73 L182 -73 L182 515 Q135 443 76 377 Q69 392 46 423 Q199 581 287 830 L333 816 ZM653 827 Q653 550 642 436 Q669 244 740 135 Q818 14 963 -29 Q940 -50 931 -71 Q694 11 624 303 Q566 28 322 -71 Q313 -56 290 -36 Q508 53 567 274 Q603 407 604 827 L653 827 Z" /><glyph glyph-name="" unicode="&#x4f1a;" d="M91 327 L915 327 L915 280 L465 280 Q346 118 235 14 L751 59 Q685 138 619 198 L659 219 Q814 81 889 -45 L846 -72 Q824 -35 786 15 Q187 -38 157 -49 Q148 -15 140 3 Q163 7 213 57 Q295 130 400 280 L91 280 L91 327 ZM743 518 L743 473 L262 473 L262 518 L743 518 ZM558 810 L531 773 Q699 582 954 490 Q938 474 920 447 Q675 545 503 738 Q350 556 88 435 Q72 459 52 474 Q378 620 509 830 L558 810 Z" /><glyph glyph-name="" unicode="&#x4f1e;" d="M523 219 L941 219 L941 173 L523 173 L523 -73 L474 -73 L474 173 L57 173 L57 219 L474 219 L474 595 L523 595 L523 219 ZM258 507 Q343 380 366 294 L322 276 Q295 374 217 491 L258 507 ZM793 489 Q714 338 669 273 L632 292 Q700 392 746 509 L793 489 ZM558 814 Q533 784 527 778 Q674 637 967 532 Q943 510 936 490 Q655 600 498 748 Q324 577 72 482 Q57 507 41 522 Q353 633 520 835 L558 814 Z" /><glyph glyph-name="" unicode="&#x4f20;" d="M328 816 Q285 705 220 596 L220 -72 L173 -72 L173 523 Q111 432 52 374 Q43 396 22 417 Q187 575 282 829 L328 816 ZM536 475 Q522 428 493 336 L833 336 L841 339 L876 318 Q764 185 656 64 Q725 10 771 -36 L734 -72 Q638 31 481 132 L517 162 Q596 109 620 91 Q705 185 792 290 L426 290 Q456 374 488 475 L291 475 L291 521 L501 521 Q534 632 543 665 L347 665 L347 710 L555 710 Q577 789 587 831 L634 824 Q631 810 603 710 L904 710 L904 665 L590 665 Q572 593 549 521 L946 521 L946 475 L536 475 Z" /><glyph glyph-name="" unicode="&#x4f24;" d="M330 818 Q284 701 219 592 L219 -71 L173 -71 L173 520 Q114 434 55 375 Q45 397 24 420 Q190 579 284 832 L330 818 ZM897 394 Q882 18 848 -23 Q827 -45 785 -48 Q714 -50 641 -44 Q637 -16 625 0 Q705 -5 769 -5 Q798 -5 807 6 Q835 34 850 374 L605 374 Q561 42 332 -74 Q320 -57 298 -39 Q516 65 558 374 L343 374 L343 420 L563 420 Q571 484 574 576 L622 576 Q616 472 611 420 L897 420 L897 394 ZM925 680 L925 634 L462 634 Q410 542 343 475 Q325 493 303 504 Q430 622 499 831 L547 820 Q522 748 488 680 L925 680 Z" /><glyph glyph-name="" unicode="&#x4f26;" d="M321 817 Q278 699 219 593 L219 -72 L173 -72 L173 515 Q125 440 67 375 Q49 404 37 418 Q186 575 276 830 L321 817 ZM785 -11 Q825 -11 837 14 Q849 38 854 126 Q870 113 898 107 Q892 8 872 -22 Q850 -56 786 -56 L546 -56 Q473 -56 448 -38 Q422 -19 422 37 L422 470 L470 470 L470 237 Q660 323 794 415 L828 376 Q685 283 470 189 L470 36 Q470 7 484 -2 Q499 -11 547 -11 L785 -11 ZM662 829 L638 782 Q765 582 966 472 Q946 457 932 435 Q747 549 613 741 Q489 542 296 424 Q281 447 263 457 Q506 601 610 839 L662 829 Z" /><glyph glyph-name="" unicode="&#x4f2a;" d="M456 609 Q427 668 353 749 L393 769 Q465 695 497 633 L456 609 ZM335 816 Q290 702 228 596 L228 -71 L181 -71 L181 523 Q122 437 63 378 Q53 400 33 422 Q197 581 289 829 L335 816 ZM914 567 L913 539 Q892 20 845 -31 Q824 -57 778 -60 Q737 -63 630 -57 Q623 -23 614 -10 Q679 -16 761 -16 Q790 -16 802 -2 Q844 38 865 520 L599 520 Q549 102 302 -61 Q288 -44 264 -29 Q501 120 551 520 L311 520 L311 567 L556 567 Q565 659 567 828 L615 828 Q613 660 604 567 L914 567 ZM740 184 Q699 263 609 362 L648 384 Q740 284 782 209 L740 184 Z" /><glyph glyph-name="" unicode="&#x4f30;" d="M327 816 Q283 704 219 594 L219 -72 L173 -72 L173 523 Q111 432 52 374 Q44 393 23 417 Q187 576 282 828 L327 816 ZM841 290 L434 290 L434 16 L841 16 L841 290 ZM658 558 L658 336 L889 336 L889 -69 L841 -69 L841 -30 L434 -30 L434 -73 L386 -73 L386 336 L610 336 L610 558 L322 558 L322 604 L610 604 L610 832 L658 832 L658 604 L953 604 L953 558 L658 558 Z" /><glyph glyph-name="" unicode="&#x4f34;" d="M848 757 Q789 626 726 527 Q711 538 684 551 Q746 636 803 770 L848 757 ZM473 527 Q435 612 345 747 L385 765 Q478 631 515 549 L473 527 ZM292 814 Q262 716 217 611 L217 -74 L171 -74 L171 516 Q127 430 72 360 Q63 380 44 406 Q172 566 247 826 L292 814 ZM941 227 L625 227 L625 -72 L577 -72 L577 227 L276 227 L276 273 L577 273 L577 446 L318 446 L318 491 L577 491 L577 833 L625 833 L625 491 L899 491 L899 446 L625 446 L625 273 L941 273 L941 227 Z" /><glyph glyph-name="" unicode="&#x4f38;" d="M345 816 Q306 713 237 595 L237 -72 L191 -72 L191 524 Q135 440 69 374 Q61 393 40 417 Q203 575 300 828 L345 816 ZM865 257 L865 434 L658 434 L658 257 L865 257 ZM610 257 L610 434 L410 434 L410 257 L610 257 ZM410 651 L410 479 L610 479 L610 651 L410 651 ZM658 651 L658 479 L865 479 L865 651 L658 651 ZM911 697 L911 159 L865 159 L865 211 L658 211 L658 -73 L610 -73 L610 211 L410 211 L410 154 L365 154 L365 697 L610 697 L610 831 L658 831 L658 697 L911 697 Z" /><glyph glyph-name="" unicode="&#x4f3c;" d="M624 416 Q590 556 491 725 L532 740 Q631 575 668 435 L624 416 ZM292 814 Q262 723 212 615 L212 -74 L166 -74 L166 527 Q112 432 51 360 Q38 388 23 405 Q163 564 247 826 L292 814 ZM620 277 Q626 251 631 233 Q392 64 368 36 Q360 51 339 78 Q369 105 369 157 L369 764 L416 764 L416 137 L620 277 ZM914 -40 Q875 84 785 262 Q718 49 563 -67 Q549 -46 526 -30 Q682 78 745 294 Q794 464 806 805 L856 804 Q843 491 803 328 Q909 137 959 -14 L914 -40 Z" /><glyph glyph-name="" unicode="&#x4f46;" d="M819 711 L444 711 L444 485 L819 485 L819 711 ZM819 440 L444 440 L444 209 L819 209 L819 440 ZM869 163 L396 163 L396 757 L869 757 L869 163 ZM341 815 Q301 709 233 597 L233 -72 L185 -72 L185 522 Q125 434 63 373 Q54 398 33 417 Q198 576 295 829 L341 815 ZM961 17 L961 -29 L303 -29 L303 17 L961 17 Z" /><glyph glyph-name="" unicode="&#x4f4d;" d="M629 664 Q616 723 581 823 L625 836 Q666 720 675 678 L629 664 ZM907 597 L373 597 L373 644 L907 644 L907 597 ZM517 73 Q497 284 443 509 L487 518 Q544 285 565 87 L517 73 ZM349 816 Q308 710 242 599 L242 -72 L194 -72 L194 523 Q132 432 73 374 Q63 399 43 417 Q209 578 303 829 L349 816 ZM952 15 L952 -31 L326 -31 L326 15 L679 15 Q738 221 784 529 L834 519 Q783 224 725 15 L952 15 Z" /><glyph glyph-name="" unicode="&#x4f4e;" d="M326 816 Q280 696 222 598 L222 -72 L176 -72 L176 523 Q117 434 54 370 Q37 402 24 414 Q187 574 282 829 L326 816 ZM622 138 Q686 38 715 -40 L676 -56 Q650 23 584 126 L622 138 ZM674 442 Q660 582 654 729 Q558 708 427 689 L427 442 L674 442 ZM725 396 Q772 -4 876 -8 Q907 -9 921 149 Q937 134 958 126 Q936 -66 876 -64 Q731 -60 678 396 L427 396 L427 -3 L590 40 Q590 20 592 0 Q378 -63 361 -77 Q355 -54 340 -33 Q381 -19 381 24 L381 723 L382 723 L381 724 Q700 772 846 828 L891 791 Q819 766 699 739 Q705 578 720 442 L947 442 L947 396 L725 396 Z" /><glyph glyph-name="" unicode="&#x4f4f;" d="M639 650 Q613 727 549 819 L592 837 Q657 745 685 671 L639 650 ZM352 815 Q308 702 245 598 L245 -71 L196 -71 L196 520 Q136 433 76 373 Q63 402 46 417 Q209 575 306 829 L352 815 ZM955 10 L955 -37 L308 -37 L308 10 L612 10 L612 294 L370 294 L370 340 L612 340 L612 587 L336 587 L336 633 L940 633 L940 587 L660 587 L660 340 L910 340 L910 294 L660 294 L660 10 L955 10 Z" /><glyph glyph-name="" unicode="&#x4f50;" d="M334 822 Q289 690 228 577 L228 -73 L182 -73 L182 497 Q128 413 72 351 Q55 379 41 392 Q200 559 289 834 L334 822 ZM952 14 L952 -32 L351 -32 L351 14 L641 14 L641 321 L427 321 L427 346 Q362 223 280 142 Q254 168 243 177 Q389 312 469 576 L306 576 L306 622 L483 622 Q508 711 527 827 L574 820 Q555 710 530 622 L941 622 L941 576 L517 576 Q485 465 437 366 L921 366 L921 321 L689 321 L689 14 L952 14 Z" /><glyph glyph-name="" unicode="&#x4f53;" d="M314 817 Q276 706 219 594 L219 -72 L173 -72 L173 513 Q130 442 73 374 Q65 390 43 417 Q184 573 269 829 L314 817 ZM676 571 Q780 271 962 137 Q948 125 925 98 Q744 246 636 561 L636 168 L812 168 L812 123 L636 123 L636 -69 L589 -69 L589 123 L405 123 L405 168 L589 168 L589 560 Q477 246 295 96 Q282 116 260 131 Q439 268 551 571 L290 571 L290 617 L589 617 L589 831 L636 831 L636 617 L948 617 L948 571 L676 571 Z" /><glyph glyph-name="" unicode="&#x4f55;" d="M324 818 Q289 715 230 604 L230 -73 L183 -73 L183 523 Q133 441 77 379 Q62 407 47 423 Q192 575 279 831 L324 818 ZM419 478 L419 233 L628 233 L628 478 L419 478 ZM419 189 L419 116 L373 116 L373 522 L673 522 L673 189 L419 189 ZM956 683 L875 683 L875 7 Q875 -49 830 -62 Q798 -71 632 -71 Q628 -53 612 -20 Q730 -24 800 -21 Q828 -20 828 6 L828 683 L333 683 L333 729 L956 729 L956 683 Z" /><glyph glyph-name="" unicode="&#x4f59;" d="M334 191 Q240 61 104 -32 Q81 -9 65 -1 Q202 85 289 207 L334 191 ZM530 286 L530 -7 Q530 -53 495 -65 Q463 -75 339 -73 Q334 -51 319 -27 Q416 -30 459 -27 Q481 -26 481 -7 L481 286 L91 286 L91 331 L481 331 L481 480 L240 480 L240 525 L762 525 L762 480 L530 480 L530 331 L916 331 L916 286 L530 286 ZM695 211 Q841 98 917 2 L877 -28 Q804 70 657 186 L695 211 ZM545 821 L528 799 Q672 622 968 499 Q948 479 936 458 Q651 588 500 767 Q319 565 67 445 Q52 466 34 482 Q338 618 506 842 L545 821 Z" /><glyph glyph-name="" unicode="&#x4f5b;" d="M327 816 Q282 702 219 596 L219 -71 L173 -71 L173 524 Q120 445 51 374 Q43 395 22 418 Q185 574 282 829 L327 816 ZM676 288 L676 444 L534 444 L534 389 Q534 331 530 288 L676 288 ZM485 288 Q489 331 489 389 L489 444 L371 444 Q353 338 342 288 L485 288 ZM534 487 L676 487 L676 641 L534 641 L534 487 ZM721 641 L721 487 L863 487 L863 641 L721 641 ZM938 288 Q938 273 937 266 Q929 60 907 34 Q891 16 861 15 Q825 13 771 16 Q769 38 759 59 Q796 55 843 55 Q863 55 869 62 Q885 81 893 244 L721 244 L721 -72 L676 -72 L676 244 L525 244 Q495 32 306 -74 Q289 -52 273 -41 Q449 57 479 244 L287 244 Q313 351 333 487 L489 487 L489 641 L312 641 L312 685 L489 685 L489 822 L534 822 L534 685 L676 685 L676 822 L721 822 L721 685 L908 685 L908 444 L721 444 L721 288 L938 288 Z" /><glyph glyph-name="" unicode="&#x4f5c;" d="M352 815 Q306 699 245 597 L245 -72 L196 -72 L196 520 Q134 432 76 374 Q62 402 46 418 Q209 574 306 829 L352 815 ZM629 617 L629 449 L933 449 L933 404 L629 404 L629 229 L947 229 L947 183 L629 183 L629 -73 L581 -73 L581 617 L494 617 Q425 488 345 399 Q320 421 307 430 Q446 576 532 819 L577 807 Q547 724 516 663 L953 663 L953 617 L629 617 Z" /><glyph glyph-name="" unicode="&#x4f60;" d="M327 816 Q282 702 219 596 L219 -72 L173 -72 L173 524 Q117 440 51 374 Q42 397 22 417 Q185 575 282 829 L327 816 ZM511 408 Q457 195 359 63 Q346 73 317 90 Q411 206 464 417 L511 408 ZM672 587 L672 -8 Q672 -53 642 -65 Q616 -74 518 -74 Q513 -51 501 -25 Q571 -28 608 -25 Q625 -25 625 -8 L625 587 L450 587 Q410 485 352 403 Q318 429 312 432 Q418 571 474 828 L521 818 Q501 729 467 633 L909 633 L919 635 L950 625 Q927 503 906 425 L865 433 Q883 510 894 587 L672 587 ZM809 423 Q912 240 943 82 L897 67 Q868 225 767 409 L809 423 Z" /><glyph glyph-name="" unicode="&#x4f63;" d="M327 816 Q284 707 219 595 L219 -72 L173 -72 L173 524 Q117 440 51 374 Q42 397 22 417 Q185 575 282 829 L327 816 ZM876 292 L876 478 L663 478 L663 292 L876 292 ZM617 292 L617 478 L414 478 L414 396 Q414 346 411 292 L617 292 ZM414 712 L414 522 L617 522 L617 712 L414 712 ZM876 712 L663 712 L663 522 L876 522 L876 712 ZM923 -4 Q923 -49 891 -62 Q864 -71 755 -71 Q749 -47 738 -24 Q826 -27 856 -25 Q876 -24 876 -4 L876 247 L663 247 L663 -64 L617 -64 L617 247 L407 247 Q387 39 297 -76 Q283 -56 261 -44 Q368 95 368 396 L368 757 L923 757 L923 -4 Z" /><glyph glyph-name="" unicode="&#x4f69;" d="M277 815 Q242 695 206 611 L206 -71 L162 -71 L162 516 Q119 431 67 364 Q62 377 39 409 Q164 567 233 826 L277 815 ZM420 618 L770 618 L770 576 L620 576 L620 456 L756 456 L756 110 Q756 79 737 70 Q724 62 665 62 Q662 79 651 99 L709 99 Q718 99 718 109 L718 420 L617 420 L617 -61 L579 -61 L579 420 L473 420 L473 57 L435 57 L435 456 L576 456 L576 576 L420 576 L420 618 ZM866 781 Q863 351 867 218 Q874 -24 907 -25 Q925 -25 925 158 Q937 146 957 131 Q954 9 945 -27 Q934 -69 902 -69 Q843 -69 829 153 Q824 240 822 738 L370 738 L370 497 Q370 116 283 -74 Q270 -59 245 -50 Q327 128 327 496 L327 781 L866 781 Z" /><glyph glyph-name="" unicode="&#x4f70;" d="M332 819 Q290 676 229 561 L229 -77 L183 -77 L183 483 Q136 409 72 345 Q56 375 43 389 Q207 544 287 830 L332 819 ZM824 515 L440 515 L440 304 L824 304 L824 515 ZM824 41 L824 258 L440 258 L440 41 L824 41 ZM643 736 Q621 644 598 561 L871 561 L871 -66 L824 -66 L824 -4 L440 -4 L440 -72 L394 -72 L394 561 L551 561 Q578 669 589 736 L343 736 L343 782 L918 782 L918 736 L643 736 Z" /><glyph glyph-name="" unicode="&#x4f73;" d="M604 644 L377 644 L377 690 L604 690 L604 833 L652 833 L652 690 L887 690 L887 644 L652 644 L652 478 L932 478 L932 432 L327 432 L327 478 L604 478 L604 644 ZM329 817 Q290 704 230 592 L230 -74 L182 -74 L182 509 Q138 439 82 374 Q71 396 52 417 Q197 573 284 829 L329 817 ZM953 14 L953 -33 L292 -33 L292 14 L604 14 L604 210 L356 210 L356 257 L604 257 L604 387 L652 387 L652 257 L902 257 L902 210 L652 210 L652 14 L953 14 Z" /><glyph glyph-name="" unicode="&#x4f7f;" d="M336 821 Q294 714 229 605 L229 -78 L183 -78 L183 534 Q123 448 58 383 Q44 406 27 427 Q194 583 292 835 L336 821 ZM606 332 Q607 354 607 398 L607 512 L394 512 L394 332 L606 332 ZM654 512 L654 398 Q654 354 653 332 L873 332 L873 512 L654 512 ZM649 289 Q637 165 577 86 Q732 -4 962 -32 Q949 -45 932 -77 Q704 -43 548 52 Q466 -32 310 -78 Q294 -50 282 -39 Q433 2 509 78 Q407 149 351 248 L392 264 Q442 177 538 112 Q591 182 603 289 L349 289 L349 555 L607 555 L607 669 L315 669 L315 714 L607 714 L607 830 L654 830 L654 714 L955 714 L955 669 L654 669 L654 555 L919 555 L919 289 L649 289 Z" /><glyph glyph-name="" unicode="&#x4f8b;" d="M277 820 Q246 712 205 619 L205 -71 L159 -71 L159 524 Q120 450 71 387 Q59 414 43 433 Q163 577 232 832 L277 820 ZM299 772 L649 772 L649 726 L472 726 Q456 644 429 550 L581 550 L590 552 L619 544 Q566 85 320 -76 Q306 -51 287 -39 Q407 33 484 201 Q437 250 363 302 L390 337 Q463 285 505 247 Q550 368 570 505 L414 505 Q366 363 301 269 Q290 282 262 298 Q368 441 426 726 L299 726 L299 772 ZM747 163 L703 163 L703 711 L747 711 L747 163 ZM914 831 L914 4 Q914 -45 880 -56 Q852 -67 738 -65 Q732 -41 721 -18 Q751 -19 847 -19 Q869 -18 869 3 L869 831 L914 831 Z" /><glyph glyph-name="" unicode="&#x4f98;" d="M358 523 L312 523 L312 701 L598 701 Q577 760 552 824 L596 832 Q635 738 648 701 L920 701 L920 523 L873 523 L873 657 L358 657 L358 523 ZM292 814 Q264 720 215 608 L215 -74 L169 -74 L169 514 Q123 427 70 360 Q57 388 42 405 Q170 562 247 825 L292 814 ZM831 -9 Q863 -9 873 16 Q882 40 886 127 Q905 113 931 107 Q926 9 908 -22 Q889 -55 833 -55 L643 -55 Q581 -55 559 -38 Q537 -20 537 33 L537 258 L293 221 L286 265 L537 303 L537 460 Q492 449 380 427 Q378 444 365 465 Q648 518 763 586 L803 549 Q720 506 584 472 L584 310 L925 361 L932 318 L584 265 L584 32 Q584 6 595 -1 Q607 -9 645 -9 L831 -9 Z" /><glyph glyph-name="" unicode="&#x4f9b;" d="M331 816 Q285 700 224 597 L224 -72 L176 -72 L176 522 Q113 431 56 374 Q44 400 26 418 Q190 577 286 829 L331 816 ZM535 161 Q461 28 348 -72 Q336 -59 308 -40 Q421 48 489 175 L535 161 ZM757 171 Q881 53 940 -48 L900 -75 Q839 32 720 149 L757 171 ZM519 288 L743 288 L743 561 L519 561 L519 288 ZM954 288 L954 241 L306 241 L306 288 L472 288 L472 561 L332 561 L332 608 L472 608 L472 820 L519 820 L519 608 L743 608 L743 820 L790 820 L790 608 L941 608 L941 561 L790 561 L790 288 L954 288 Z" /><glyph glyph-name="" unicode="&#x4f9d;" d="M627 649 Q603 722 551 811 L593 825 Q648 739 672 667 L627 649 ZM328 819 Q283 698 219 585 L219 -74 L173 -74 L173 510 Q127 439 71 377 Q56 404 41 421 Q193 581 283 833 L328 819 ZM946 451 Q842 355 718 273 Q820 72 964 -6 Q942 -23 928 -45 Q685 98 580 528 Q528 455 465 389 L465 7 L655 78 Q659 59 665 37 Q427 -56 401 -75 L401 -76 Q394 -57 375 -36 Q418 -12 418 35 L418 343 Q352 281 276 229 Q262 249 241 268 Q446 394 565 591 L293 591 L293 637 L936 637 L936 591 L620 591 L610 575 Q648 421 700 308 Q822 394 910 483 L946 451 Z" /><glyph glyph-name="" unicode="&#x4fa3;" d="M804 746 L444 746 L444 508 L804 508 L804 746 ZM851 464 L398 464 L398 790 L851 790 L851 464 ZM306 815 Q277 723 226 615 L226 -74 L179 -74 L179 526 Q125 431 65 360 Q52 389 36 405 Q178 566 261 826 L306 815 ZM839 29 L839 287 L404 287 L404 29 L839 29 ZM887 332 L887 -63 L839 -63 L839 -16 L404 -16 L404 -71 L356 -71 L356 332 L887 332 Z" /><glyph glyph-name="" unicode="&#x4fa7;" d="M346 159 L304 159 L304 766 L626 766 L626 160 L583 160 L583 726 L346 726 L346 159 ZM273 821 Q243 719 197 612 L197 -70 L155 -70 L155 522 Q111 436 61 369 Q50 391 32 411 Q156 568 229 832 L273 821 ZM444 648 L485 648 L485 327 Q485 47 299 -72 Q292 -61 270 -42 Q444 70 444 327 L444 648 ZM516 129 Q598 43 648 -34 L615 -60 Q576 11 486 108 L516 129 ZM765 149 L724 149 L724 737 L765 737 L765 149 ZM914 827 L914 -6 Q914 -49 883 -61 Q859 -70 758 -70 Q753 -50 742 -26 Q769 -27 852 -27 Q871 -26 871 -7 L871 827 L914 827 Z" /><glyph glyph-name="" unicode="&#x4fb5;" d="M859 496 L376 496 L376 536 L813 536 L813 625 L405 625 L405 666 L813 666 L813 754 L376 754 L376 795 L859 795 L859 496 ZM328 816 Q282 700 221 597 L221 -71 L174 -71 L174 523 Q112 432 53 374 Q44 396 23 417 Q187 575 283 828 L328 816 ZM472 259 Q524 159 626 88 Q738 159 791 259 L472 259 ZM854 288 Q799 154 665 61 Q777 -6 926 -34 Q907 -55 896 -75 Q741 -43 624 36 Q492 -41 318 -73 Q312 -56 295 -32 Q465 -3 585 63 Q478 146 424 259 L384 259 L384 301 L817 301 L826 303 L854 288 ZM939 421 L939 284 L895 284 L895 381 L350 381 L350 282 L307 282 L307 421 L939 421 Z" /><glyph glyph-name="" unicode="&#x4fbf;&#xf965;" d="M317 817 Q277 701 219 590 L219 -72 L173 -72 L173 509 Q125 431 75 374 Q67 390 45 417 Q187 575 272 829 L317 817 ZM611 304 Q612 325 612 367 L612 427 L404 427 L404 304 L611 304 ZM404 466 L612 466 L612 587 L404 587 L404 466 ZM659 587 L659 466 L854 466 L854 587 L659 587 ZM854 427 L659 427 L659 368 Q659 326 657 304 L854 304 L854 427 ZM653 263 Q638 143 568 67 Q719 -5 959 -24 Q941 -42 930 -68 Q688 -44 534 35 Q447 -37 294 -78 Q284 -54 266 -38 Q412 -3 491 59 Q389 122 335 215 L376 231 Q426 146 527 89 Q591 155 607 263 L358 263 L358 628 L612 628 L612 727 L323 727 L323 771 L942 771 L942 727 L659 727 L659 628 L901 628 L901 263 L653 263 Z" /><glyph glyph-name="" unicode="&#x4fc3;" d="M292 816 Q259 716 213 620 L213 -74 L166 -74 L166 530 Q112 435 51 363 Q42 382 23 408 Q164 568 247 828 L292 816 ZM428 504 L833 504 L833 740 L428 740 L428 504 ZM959 -5 Q946 -28 942 -51 L790 -51 Q652 -51 571 -13 Q472 34 419 152 Q377 9 294 -76 Q279 -59 255 -47 Q380 71 409 348 L457 343 Q450 277 436 217 Q483 71 605 22 L605 459 L382 459 L382 784 L881 784 L881 459 L653 459 L653 286 L901 286 L901 240 L653 240 L653 8 Q709 -5 793 -5 L959 -5 Z" /><glyph glyph-name="" unicode="&#x4fd7;" d="M890 568 Q821 668 683 795 L721 821 Q864 689 928 599 L890 568 ZM557 806 Q469 656 349 554 Q333 568 307 582 Q432 678 512 821 L557 806 ZM318 816 Q278 705 217 596 L217 -72 L171 -72 L171 519 Q120 442 60 374 Q41 406 30 418 Q183 575 272 829 L318 816 ZM425 252 L425 13 L798 13 L798 252 L425 252 ZM379 297 L845 297 L845 -68 L798 -68 L798 -32 L425 -32 L425 -75 L379 -75 L379 297 ZM643 640 L636 625 Q632 615 629 610 Q737 416 964 292 Q942 275 931 254 Q718 378 605 566 Q489 362 300 255 Q290 274 266 292 Q494 416 600 656 L643 640 Z" /><glyph glyph-name="" unicode="&#x4fdd;" d="M336 816 Q289 700 229 602 L229 -71 L183 -71 L183 531 Q121 441 58 378 Q41 407 27 422 Q195 580 292 830 L336 816 ZM424 527 L841 527 L841 739 L424 739 L424 527 ZM690 292 Q801 101 973 11 Q951 -11 939 -27 Q771 74 655 272 L655 -74 L606 -74 L606 272 Q487 71 308 -26 Q293 -4 274 12 Q453 99 571 292 L299 292 L299 338 L606 338 L606 482 L378 482 L378 784 L889 784 L889 482 L655 482 L655 338 L948 338 L948 292 L690 292 Z" /><glyph glyph-name="" unicode="&#x4fe1;" d="M613 683 Q591 742 542 814 L585 832 Q632 763 659 703 L613 683 ZM313 817 Q275 707 222 605 L222 -76 L177 -76 L177 525 Q127 442 69 375 Q55 402 39 417 Q184 575 269 829 L313 817 ZM414 198 L414 12 L820 12 L820 198 L414 198 ZM370 240 L865 240 L865 -72 L820 -72 L820 -30 L414 -30 L414 -75 L370 -75 L370 240 ZM383 384 L856 384 L856 342 L383 342 L383 384 ZM856 481 L383 481 L383 523 L856 523 L856 481 ZM938 662 L938 619 L309 619 L309 662 L938 662 Z" /><glyph glyph-name="" unicode="&#x4fee;" d="M294 813 Q263 717 213 613 L213 -74 L167 -74 L167 525 Q112 430 53 360 Q44 379 25 405 Q166 567 249 826 L294 813 ZM310 557 L353 557 L353 77 L310 77 L310 557 ZM536 672 Q590 579 693 510 Q804 578 859 677 L539 677 L536 672 ZM921 706 Q864 574 731 486 Q837 427 964 402 Q949 387 936 363 Q801 394 691 462 Q564 389 391 357 Q381 378 368 395 Q534 424 653 487 Q563 552 511 636 Q462 567 406 515 Q382 536 368 545 Q498 656 571 834 L616 822 Q597 778 565 719 L884 719 L893 722 L921 706 ZM834 267 Q730 150 496 84 Q472 114 467 119 Q691 173 795 283 L834 267 ZM740 368 Q653 275 479 217 Q470 232 450 248 Q620 302 701 384 L740 368 ZM943 158 Q806 -7 437 -70 Q427 -48 411 -29 Q768 23 900 177 L943 158 Z" /><glyph glyph-name="" unicode="&#x4fef;" d="M278 814 Q243 696 208 611 L208 -72 L162 -72 L162 511 Q123 431 73 362 Q57 390 43 406 Q161 561 235 826 L278 814 ZM362 676 L362 418 Q362 92 289 -67 Q275 -53 250 -44 Q318 106 318 418 L318 721 L623 721 Q603 772 574 828 L615 840 Q652 772 672 721 L943 721 L943 676 L362 676 ZM579 637 Q553 544 527 484 L527 -71 L484 -71 L484 391 Q452 329 416 284 Q404 304 390 318 Q487 442 535 647 L579 637 ZM946 446 L852 446 L852 -11 Q852 -53 823 -63 Q798 -72 699 -72 Q694 -54 683 -29 Q770 -31 789 -29 Q808 -29 808 -12 L808 446 L582 446 L582 490 L808 490 L808 640 L852 640 L852 490 L946 490 L946 446 ZM714 142 Q682 230 616 351 L654 367 Q723 241 752 160 L714 142 Z" /><glyph glyph-name="" unicode="&#x4ff1;" d="M329 818 Q283 702 222 599 L222 -72 L176 -72 L176 527 Q118 440 54 376 Q40 404 24 420 Q189 579 284 831 L329 818 ZM544 110 Q466 9 314 -75 Q300 -57 282 -43 Q427 33 504 136 L544 110 ZM729 133 Q863 46 949 -40 L916 -75 Q836 11 697 103 L729 133 ZM440 209 L802 209 L802 318 L440 318 L440 209 ZM440 751 L440 649 L802 649 L802 751 L440 751 ZM440 465 L440 358 L802 358 L802 465 L440 465 ZM802 609 L440 609 L440 505 L802 505 L802 609 ZM953 209 L953 165 L288 165 L288 209 L393 209 L393 794 L850 794 L850 209 L953 209 Z" /><glyph glyph-name="" unicode="&#x500d;" d="M927 675 L349 675 L349 720 L620 720 Q609 772 587 832 L631 840 Q654 785 668 720 L927 720 L927 675 ZM493 455 Q478 542 424 641 L464 654 Q517 561 535 468 L493 455 ZM325 818 Q274 685 219 590 L219 -74 L173 -74 L173 514 Q129 446 67 377 Q55 401 38 420 Q193 583 280 832 L325 818 ZM444 242 L444 20 L816 20 L816 242 L444 242 ZM398 287 L863 287 L863 -70 L816 -70 L816 -24 L444 -24 L444 -73 L398 -73 L398 287 ZM953 434 L953 389 L308 389 L308 434 L697 434 Q751 537 790 660 L837 646 Q774 493 743 434 L953 434 Z" /><glyph glyph-name="" unicode="&#x5012;" d="M767 170 L723 170 L723 753 L767 753 L767 170 ZM287 815 Q256 717 208 615 L208 -73 L163 -73 L163 528 Q114 436 51 361 Q40 385 23 406 Q162 569 243 827 L287 815 ZM484 103 Q522 110 670 141 L674 101 Q484 59 263 12 L254 57 Q304 66 438 93 L438 268 L280 268 L280 311 L438 311 L438 434 L484 434 L484 311 L651 311 L651 268 L484 268 L484 103 ZM559 647 Q638 545 680 451 L643 432 Q625 472 610 498 Q320 459 301 449 Q291 486 285 495 Q301 497 326 538 Q376 612 413 713 L296 713 L296 756 L667 756 L667 713 L463 713 Q416 596 356 506 L589 534 Q560 582 524 631 L559 647 ZM909 805 L909 23 Q909 -26 870 -38 Q842 -47 717 -47 Q712 -25 697 -1 Q805 -4 840 -2 Q864 -1 864 22 L864 805 L909 805 Z" /><glyph glyph-name="" unicode="&#x5019;" d="M945 550 L391 550 L391 594 L771 594 Q786 679 794 738 L453 738 L453 781 L805 781 L814 784 L846 779 Q835 684 819 594 L945 594 L945 550 ZM289 813 Q254 695 202 583 L202 -75 L156 -75 L156 492 Q122 428 71 361 Q60 384 41 406 Q169 562 245 826 L289 813 ZM300 608 L343 608 L343 120 L300 120 L300 608 ZM699 195 Q753 26 955 -27 Q936 -44 924 -68 Q740 -15 671 150 Q620 4 401 -75 Q390 -54 370 -38 Q603 39 636 195 L393 195 L393 239 L642 239 Q643 250 643 270 L643 390 L513 390 Q473 317 432 270 Q417 283 393 297 Q480 388 522 538 L568 528 Q552 477 533 433 L908 433 L908 390 L689 390 L689 270 Q689 250 688 239 L944 239 L944 195 L699 195 Z" /><glyph glyph-name="" unicode="&#x501a;" d="M604 725 Q612 765 617 828 L667 828 Q662 766 654 725 L926 725 L926 682 L643 682 Q638 665 626 635 Q813 554 922 484 L889 447 Q782 519 605 597 Q536 484 324 442 Q317 461 297 481 Q432 506 500 554 Q565 599 592 682 L326 682 L326 725 L604 725 ZM327 816 Q281 699 219 595 L219 -72 L173 -72 L173 523 Q111 432 52 374 Q39 400 22 417 Q185 575 282 829 L327 816 ZM419 253 L419 106 L624 106 L624 253 L419 253 ZM419 66 L419 7 L375 7 L375 293 L669 293 L669 66 L419 66 ZM954 381 L856 381 L856 -10 Q856 -56 819 -67 Q791 -75 647 -75 Q644 -58 630 -31 Q737 -34 785 -31 Q809 -30 809 -10 L809 381 L284 381 L284 426 L954 426 L954 381 Z" /><glyph glyph-name="" unicode="&#x501f;" d="M342 816 Q299 707 234 596 L234 -72 L187 -72 L187 522 Q123 431 66 374 Q57 397 37 417 Q201 578 297 829 L342 816 ZM484 312 L484 188 L822 188 L822 312 L484 312 ZM822 18 L822 146 L484 146 L484 18 L822 18 ZM437 355 L870 355 L870 -70 L822 -70 L822 -24 L484 -24 L484 -73 L437 -73 L437 355 ZM556 495 L742 495 L742 648 L556 648 L556 495 ZM947 495 L947 450 L346 450 L346 495 L509 495 L509 648 L376 648 L376 692 L509 692 L509 833 L556 833 L556 692 L742 692 L742 833 L789 833 L789 692 L928 692 L928 648 L789 648 L789 495 L947 495 Z" /><glyph glyph-name="" unicode="&#x5026;" d="M836 787 Q791 707 743 648 Q721 662 705 669 Q758 730 793 799 L836 787 ZM466 656 Q429 719 377 786 L412 806 Q474 731 502 681 L466 656 ZM316 817 Q279 708 219 594 L219 -69 L173 -69 L173 513 Q124 434 72 374 Q61 396 42 417 Q187 576 271 829 L316 817 ZM758 422 Q834 298 945 244 Q931 232 913 208 Q787 280 713 422 L512 422 Q483 371 435 314 L780 314 L780 147 Q780 112 755 102 Q734 95 638 95 Q636 108 623 134 Q703 132 721 134 Q735 135 735 148 L735 271 L469 271 L469 14 Q469 -8 481 -15 Q494 -22 538 -22 L756 -22 Q792 -22 803 -1 Q813 20 816 98 Q834 86 860 80 Q855 -9 836 -36 Q816 -65 758 -65 L538 -65 Q470 -65 448 -50 Q424 -34 424 15 L424 302 Q370 242 299 196 Q281 219 264 233 Q381 304 457 422 L291 422 L291 464 L483 464 Q513 520 536 585 L354 585 L354 627 L550 627 Q579 713 598 834 L646 827 Q625 708 600 627 L886 627 L886 585 L586 585 Q564 521 536 464 L943 464 L943 422 L758 422 Z" /><glyph glyph-name="" unicode="&#x503c;" d="M325 819 Q280 695 218 586 L218 -73 L172 -73 L172 510 Q125 437 70 377 Q65 388 41 421 Q193 580 281 833 L325 819 ZM430 6 L809 6 L809 104 L430 104 L430 6 ZM430 530 L430 429 L809 429 L809 530 L430 530 ZM809 389 L430 389 L430 286 L809 286 L809 389 ZM430 144 L809 144 L809 247 L430 247 L430 144 ZM951 6 L951 -38 L284 -38 L284 6 L385 6 L385 571 L557 571 Q566 604 581 680 L326 680 L326 724 L589 724 Q600 787 606 834 L658 828 Q647 767 637 724 L917 724 L917 680 L628 680 Q609 594 602 571 L854 571 L854 6 L951 6 Z" /><glyph glyph-name="" unicode="&#x503e;" d="M672 602 Q692 653 711 722 L508 722 L508 765 L949 765 L949 722 L764 722 L719 602 L899 602 L899 147 L854 147 L854 558 L592 558 L592 146 L548 146 L548 602 L672 602 ZM280 819 Q246 711 206 625 L206 -74 L161 -74 L161 534 Q110 438 50 364 Q37 389 22 408 Q156 567 235 831 L280 819 ZM493 257 Q499 221 500 218 Q329 117 316 101 Q309 123 292 146 Q321 161 321 207 L321 725 L364 725 L364 531 L508 531 L508 487 L364 487 L364 188 L493 257 ZM739 282 Q739 166 701 94 Q643 -14 491 -75 Q482 -54 465 -41 Q697 45 697 283 L697 494 L739 494 L739 282 ZM760 113 Q885 30 951 -38 L921 -75 Q852 -1 729 82 L760 113 Z" /><glyph glyph-name="" unicode="&#x5047;" d="M905 494 L630 494 L630 538 L860 538 L860 742 L630 742 L630 785 L905 785 L905 494 ZM270 816 Q239 698 201 603 L201 -73 L154 -73 L154 495 Q111 411 76 362 Q59 391 45 406 Q158 560 225 826 L270 816 ZM362 742 L362 536 L540 536 L540 742 L362 742 ZM362 133 L362 -70 L317 -70 L317 785 L584 785 L584 493 L362 493 L362 367 L560 367 L560 325 L362 325 L362 176 L569 176 L569 133 L362 133 ZM917 392 Q880 218 788 103 Q862 9 959 -32 Q941 -45 927 -71 Q830 -25 759 68 Q669 -25 545 -75 Q534 -53 518 -39 Q643 7 732 105 Q664 208 627 348 L666 358 Q696 240 761 140 Q832 231 864 358 L599 358 L599 400 L881 400 L888 402 L917 392 Z" /><glyph glyph-name="" unicode="&#x504f;" d="M346 816 Q305 707 238 597 L238 -72 L191 -72 L191 524 Q130 433 70 374 Q59 398 40 417 Q205 577 301 829 L346 816 ZM410 678 L410 546 L862 546 L862 678 L410 678 ZM410 503 Q408 134 333 -61 Q319 -45 295 -33 Q364 151 364 516 L364 720 L625 720 Q607 771 575 824 L617 837 Q653 781 675 720 L908 720 L908 503 L410 503 ZM884 204 L884 380 L767 380 L767 204 L884 204 ZM729 204 L729 380 L617 380 L617 204 L729 204 ZM579 204 L579 380 L473 380 L473 204 L579 204 ZM925 -15 Q925 -49 904 -60 Q886 -68 809 -68 Q803 -46 794 -28 Q855 -30 870 -28 Q884 -28 884 -15 L884 162 L767 162 L767 -37 L729 -37 L729 162 L617 162 L617 -42 L579 -42 L579 162 L473 162 L473 -68 L432 -68 L432 421 L925 421 L925 -15 Z" /><glyph glyph-name="" unicode="&#x505a;" d="M292 814 Q261 721 212 617 L212 -74 L166 -74 L166 530 Q112 435 52 364 Q31 399 23 408 Q163 567 247 826 L292 814 ZM346 336 L346 81 L542 81 L542 336 L346 336 ZM346 37 L346 -26 L302 -26 L302 380 L422 380 L422 586 L269 586 L269 631 L422 631 L422 822 L468 822 L468 631 L613 631 L613 586 L468 586 L468 380 L587 380 L587 37 L346 37 ZM688 577 Q711 355 769 215 Q835 355 862 590 L692 590 L688 577 ZM907 590 Q874 319 793 164 Q861 30 968 -37 Q947 -56 936 -76 Q833 -5 766 119 Q691 0 566 -77 Q550 -55 533 -42 Q669 36 744 166 Q684 302 659 494 Q632 426 603 378 Q585 399 566 409 Q656 550 700 833 L744 826 Q730 738 704 634 L953 634 L953 590 L907 590 Z" /><glyph glyph-name="" unicode="&#x505c;" d="M325 818 Q278 693 218 586 L218 -73 L172 -73 L172 511 Q124 437 70 376 Q59 400 41 420 Q193 579 281 832 L325 818 ZM392 242 L859 242 L859 200 L650 200 L650 -11 Q650 -53 618 -63 Q591 -70 463 -70 Q461 -56 446 -28 Q556 -30 582 -28 Q602 -27 602 -11 L602 200 L392 200 L392 242 ZM312 373 L941 373 L941 221 L896 221 L896 330 L356 330 L356 221 L312 221 L312 373 ZM807 589 L449 589 L449 488 L807 488 L807 589 ZM854 628 L854 449 L404 449 L404 628 L854 628 ZM946 735 L946 692 L325 692 L325 735 L617 735 Q599 774 568 823 L611 837 Q648 785 668 735 L946 735 Z" /><glyph glyph-name="" unicode="&#x5065;" d="M717 608 L833 608 L833 704 L717 704 L717 608 ZM833 567 L717 567 L717 471 L833 471 L833 567 ZM674 567 L482 567 L482 608 L674 608 L674 704 L529 704 L529 744 L674 744 L674 833 L717 833 L717 744 L875 744 L875 608 L952 608 L952 567 L875 567 L875 430 L717 430 L717 340 L900 340 L900 298 L717 298 L717 200 L936 200 L936 158 L717 158 L717 20 L674 20 L674 158 L479 158 L479 200 L674 200 L674 298 L509 298 L509 340 L674 340 L674 430 L529 430 L529 471 L674 471 L674 567 ZM278 819 Q249 717 206 619 L206 -71 L162 -71 L162 528 Q121 450 72 388 Q62 410 43 433 Q166 580 234 831 L278 819 ZM955 -20 Q941 -41 938 -62 L803 -62 Q516 -62 387 77 Q338 -18 262 -74 Q253 -59 229 -41 Q307 14 357 115 Q299 192 266 303 L303 319 Q328 230 375 159 Q416 259 435 420 L281 420 Q329 511 410 711 L285 711 L285 755 L473 755 Q400 572 347 462 L456 462 L483 455 Q462 247 407 119 Q528 -20 804 -20 L955 -20 Z" /><glyph glyph-name="" unicode="&#x5076;" d="M324 816 Q278 694 219 588 L219 -75 L173 -75 L173 512 Q126 437 67 374 Q49 403 37 417 Q190 576 279 829 L324 816 ZM602 463 L602 583 L416 583 L416 463 L602 463 ZM416 623 L602 623 L602 741 L416 741 L416 623 ZM840 741 L646 741 L646 623 L840 623 L840 741 ZM840 583 L646 583 L646 463 L840 463 L840 583 ZM931 -14 Q931 -57 899 -67 Q873 -75 746 -75 Q741 -55 729 -32 Q823 -35 865 -32 Q885 -32 885 -14 L885 288 L646 288 L646 144 L767 155 Q748 193 722 232 L756 246 Q830 132 857 48 L820 33 Q806 78 786 116 L425 80 L415 125 L602 140 L602 288 L371 288 L371 -74 L325 -74 L325 331 L602 331 L602 422 L371 422 L371 782 L887 782 L887 422 L646 422 L646 331 L931 331 L931 -14 Z" /><glyph glyph-name="" unicode="&#x507f;" d="M882 791 Q820 700 774 652 L738 669 Q794 737 835 812 L882 791 ZM471 648 Q438 711 371 787 L412 807 Q480 734 514 671 L471 648 ZM366 458 L319 458 L319 642 L595 642 L595 835 L644 835 L644 642 L929 642 L929 458 L881 458 L881 599 L366 599 L366 458 ZM408 420 L408 466 L847 466 L847 420 L408 420 ZM290 814 Q254 704 213 614 L213 -74 L166 -74 L166 519 Q122 438 67 367 Q58 386 37 412 Q167 568 244 826 L290 814 ZM580 263 Q491 112 407 20 L815 58 Q758 137 716 184 L758 204 Q883 62 937 -40 L893 -64 Q879 -38 844 17 Q369 -30 340 -41 Q332 -10 323 10 Q343 14 382 61 Q459 153 521 263 L286 263 L286 309 L950 309 L950 263 L580 263 Z" /><glyph glyph-name="" unicode="&#x50a8;" d="M409 613 Q371 680 298 753 L332 777 Q415 696 445 642 L409 613 ZM277 822 Q250 727 198 608 L198 -71 L154 -71 L154 519 Q112 437 60 370 Q49 392 31 412 Q160 571 234 833 L277 822 ZM508 122 Q514 98 521 81 Q364 -19 350 -36 Q343 -17 325 8 Q355 24 355 74 L355 463 L248 463 L248 509 L400 509 L400 57 L508 122 ZM860 315 L611 315 L611 196 L860 196 L860 315 ZM860 30 L860 155 L611 155 L611 30 L860 30 ZM741 475 Q679 405 623 358 L904 358 L904 -65 L860 -65 L860 -12 L611 -12 L611 -69 L568 -69 L568 313 Q515 274 476 249 Q460 272 444 288 Q570 359 681 475 L478 475 L478 520 L649 520 L649 667 L503 667 L503 710 L649 710 L649 833 L694 833 L694 710 L826 710 L826 667 L694 667 L694 520 L722 520 Q829 642 896 790 L940 777 Q876 639 779 520 L951 520 L951 475 L741 475 Z" /><glyph glyph-name="" unicode="&#x50ac;" d="M905 576 L370 576 L370 787 L415 787 L415 621 L619 621 L619 831 L665 831 L665 621 L858 621 L858 787 L905 787 L905 576 ZM287 814 Q260 722 215 617 L215 -74 L168 -74 L168 517 Q121 426 71 360 Q56 388 42 405 Q166 562 241 826 L287 814 ZM425 20 L645 20 L645 119 L425 119 L425 20 ZM645 394 L425 394 L425 299 L645 299 L645 394 ZM645 259 L425 259 L425 160 L645 160 L645 259 ZM951 -24 L425 -24 L425 -74 L380 -74 L380 340 Q340 275 287 221 Q273 242 255 260 Q373 372 436 560 L480 549 Q463 499 434 437 L662 437 Q643 493 610 546 L651 559 Q696 489 709 440 L701 437 L937 437 L937 394 L691 394 L691 299 L911 299 L911 259 L691 259 L691 160 L911 160 L911 119 L691 119 L691 20 L951 20 L951 -24 Z" /><glyph glyph-name="" unicode="&#x50b2;" d="M292 820 Q259 712 212 609 L212 -73 L166 -73 L166 517 Q126 443 71 371 Q50 407 42 416 Q171 573 247 833 L292 820 ZM719 604 L708 567 Q728 348 786 204 Q838 347 846 604 L719 604 ZM892 604 Q878 300 812 150 Q870 30 964 -34 Q946 -48 931 -73 Q844 -6 787 102 Q728 -5 619 -75 Q607 -50 590 -37 Q705 31 764 150 Q706 279 677 490 Q653 434 631 400 L637 400 L637 357 L419 357 Q415 287 411 252 L599 252 Q599 236 598 229 Q585 -10 558 -40 Q542 -59 510 -60 Q472 -62 418 -59 Q414 -31 405 -17 Q444 -20 494 -20 Q514 -20 521 -11 Q541 11 552 210 L405 210 Q376 22 270 -71 Q256 -51 237 -37 Q360 61 373 357 L257 357 L257 400 L434 400 L434 522 L291 522 L291 564 L434 564 L434 672 L276 672 L276 714 L434 714 L434 823 L479 823 L479 714 L627 714 L627 672 L479 672 L479 564 L610 564 L610 522 L479 522 L479 400 L629 400 Q608 419 592 428 Q681 563 725 833 L772 826 Q758 740 732 647 L951 647 L951 604 L892 604 Z" /><glyph glyph-name="" unicode="&#x50cf;" d="M326 816 Q279 690 219 585 L219 -70 L172 -70 L172 507 Q128 440 69 374 Q59 393 40 417 Q192 577 281 829 L326 816 ZM563 458 Q602 516 608 582 L404 582 L404 458 L563 458 ZM480 720 Q447 673 401 622 L609 622 Q645 662 678 720 L480 720 ZM844 582 L651 582 Q647 516 615 458 L844 458 L844 582 ZM893 332 Q847 300 773 260 Q835 84 962 21 Q946 9 928 -16 Q797 59 736 241 Q702 223 678 213 Q705 134 699 59 Q692 -14 657 -44 Q626 -72 578 -72 Q549 -72 514 -69 Q512 -47 501 -26 Q537 -30 569 -30 Q607 -30 623 -13 Q675 30 648 160 Q509 26 307 -41 Q286 -12 278 -5 Q506 62 637 201 Q627 236 607 271 Q488 166 313 101 Q303 118 285 135 Q473 193 587 301 Q567 330 532 362 Q452 298 321 252 Q306 272 291 285 Q447 336 528 417 L359 417 L359 580 Q321 546 291 523 Q278 542 259 552 Q413 664 496 832 L543 824 Q524 788 507 761 L705 761 L714 764 L743 743 Q715 687 660 622 L890 622 L890 417 L586 417 Q575 402 560 388 Q630 330 666 246 Q781 306 859 363 L893 332 Z" /><glyph glyph-name="" unicode="&#x50f5;" d="M943 740 L312 740 L312 780 L943 780 L943 740 ZM410 483 L604 483 L604 553 L410 553 L410 483 ZM410 587 L604 587 L604 655 L410 655 L410 587 ZM834 655 L649 655 L649 587 L834 587 L834 655 ZM834 553 L649 553 L649 483 L834 483 L834 553 ZM365 447 L365 690 L881 690 L881 447 L365 447 ZM947 359 L306 359 L306 398 L947 398 L947 359 ZM403 87 L604 87 L604 161 L403 161 L403 87 ZM403 195 L604 195 L604 267 L403 267 L403 195 ZM836 267 L649 267 L649 195 L836 195 L836 267 ZM836 161 L649 161 L649 87 L836 87 L836 161 ZM358 51 L358 302 L883 302 L883 51 L358 51 ZM290 814 Q263 721 215 613 L215 -74 L170 -74 L170 520 Q121 429 70 363 Q63 377 42 406 Q171 564 247 825 L290 814 ZM948 -8 L948 -49 L273 -49 L273 -8 L948 -8 Z" /><glyph glyph-name="" unicode="&#x5140;&#xfa0c;" d="M862 -13 Q889 -13 898 20 Q906 49 909 151 Q929 135 957 128 Q952 16 936 -20 Q917 -61 863 -61 L709 -61 Q653 -61 634 -41 Q614 -21 614 37 L614 680 L347 680 L347 502 Q347 318 304 201 Q242 33 78 -78 Q69 -59 43 -40 Q200 63 258 222 Q298 330 298 502 L298 680 L75 680 L75 727 L929 727 L929 680 L664 680 L664 36 Q664 6 673 -3 Q682 -13 713 -13 L862 -13 Z" /><glyph glyph-name="" unicode="&#x5141;" d="M852 -9 Q888 -9 898 25 Q908 58 912 182 Q932 167 958 161 Q953 29 934 -12 Q914 -56 854 -56 L687 -56 Q628 -56 607 -38 Q586 -20 586 33 L586 442 L409 427 Q397 203 337 101 Q264 -23 71 -77 Q60 -55 42 -37 Q226 11 294 124 Q349 215 360 423 Q180 408 157 399 Q148 430 140 448 Q163 453 218 516 Q344 652 447 838 L496 817 Q362 602 228 460 L748 498 Q678 591 605 677 L643 699 Q799 517 884 396 L841 367 Q820 401 779 456 L634 445 L634 32 Q634 6 644 -1 Q655 -9 689 -9 L852 -9 Z" /><glyph glyph-name="" unicode="&#x5143;" d="M856 703 L150 703 L150 750 L856 750 L856 703 ZM849 -9 Q882 -9 892 24 Q901 56 904 177 Q926 160 950 155 Q945 28 928 -12 Q908 -55 851 -55 L693 -55 Q636 -55 616 -37 Q596 -20 596 31 L596 419 L385 419 Q368 228 315 125 Q246 -10 90 -71 Q78 -49 59 -35 Q207 21 272 147 Q320 242 335 419 L65 419 L65 465 L937 465 L937 419 L644 419 L644 31 Q644 7 654 -1 Q664 -9 696 -9 L849 -9 Z" /><glyph glyph-name="" unicode="&#x5145;" d="M524 675 Q500 733 439 817 L483 834 Q545 749 571 695 L524 675 ZM846 0 Q878 0 887 29 Q897 57 900 160 Q918 145 946 137 Q941 25 923 -9 Q904 -46 849 -46 L683 -46 Q625 -46 605 -29 Q584 -12 584 36 L584 349 L412 339 Q396 165 335 77 Q263 -26 96 -74 Q85 -52 66 -33 Q225 9 291 101 Q346 179 360 336 Q174 325 151 316 Q141 350 134 367 Q155 369 203 416 Q290 500 375 620 L70 620 L70 667 L932 667 L932 620 L439 620 Q329 470 226 376 L762 404 Q686 477 602 540 L639 564 Q809 440 905 322 L865 294 Q844 321 804 362 L633 352 L633 36 Q633 14 643 7 Q653 0 686 0 L846 0 Z" /><glyph glyph-name="" unicode="&#x5146;" d="M902 724 Q799 563 722 477 L686 498 Q785 613 855 748 L902 724 ZM255 480 Q205 593 96 717 L135 739 Q251 606 297 505 L255 480 ZM363 819 L410 819 L410 442 Q410 254 357 148 Q286 5 94 -80 Q85 -60 64 -40 Q329 74 358 330 L213 259 L82 197 L58 242 Q118 265 362 378 Q363 400 363 442 L363 819 ZM864 -16 Q891 -16 900 10 Q908 33 912 111 Q932 97 957 90 Q952 1 935 -29 Q916 -62 863 -62 L680 -62 Q621 -62 601 -42 Q579 -21 579 40 L579 819 L627 819 L627 395 L647 417 Q846 314 946 220 L915 182 Q812 279 627 378 L627 39 Q627 5 637 -5 Q648 -16 683 -16 L864 -16 Z" /><glyph glyph-name="" unicode="&#x5148;" d="M855 -11 Q886 -11 894 17 Q903 44 906 148 Q921 137 951 126 Q946 15 929 -20 Q911 -57 858 -57 L702 -57 Q646 -57 626 -40 Q607 -24 607 24 L607 347 L391 347 Q373 176 315 85 Q243 -27 85 -79 Q75 -59 55 -39 Q206 6 273 109 Q326 191 342 347 L67 347 L67 394 L476 394 L476 618 L250 618 Q204 516 156 457 Q132 472 115 480 Q215 603 263 803 L311 793 Q297 738 269 665 L476 665 L476 833 L524 833 L524 665 L868 665 L868 618 L524 618 L524 394 L935 394 L935 347 L654 347 L654 23 Q654 2 664 -4 Q674 -11 705 -11 L855 -11 Z" /><glyph glyph-name="" unicode="&#x5149;" d="M856 740 Q768 601 703 528 L663 546 Q746 643 809 760 L856 740 ZM298 528 Q247 623 152 741 L191 761 Q290 640 339 552 L298 528 ZM848 -7 Q871 -7 879 8 Q886 22 888 73 Q906 61 933 55 Q928 -10 913 -31 Q896 -53 851 -53 L679 -53 Q621 -53 601 -37 Q581 -22 581 26 L581 412 L414 412 Q399 209 342 108 Q271 -17 98 -76 Q87 -54 66 -35 Q232 16 299 133 Q351 224 364 412 L72 412 L72 459 L474 459 L474 833 L523 833 L523 459 L921 459 L921 412 L629 412 L629 26 Q629 6 639 -1 Q648 -7 681 -7 L848 -7 Z" /><glyph glyph-name="" unicode="&#x514b;" d="M234 312 L768 312 L768 504 L234 504 L234 312 ZM851 -18 Q885 -18 894 9 Q904 36 907 136 Q930 120 953 115 Q948 5 930 -29 Q911 -64 855 -64 L679 -64 Q619 -64 598 -48 Q576 -32 576 15 L576 267 L407 267 Q387 125 322 51 Q247 -36 82 -75 Q74 -50 54 -32 Q208 1 279 77 Q338 143 356 267 L187 267 L187 548 L474 548 L474 679 L73 679 L73 724 L474 724 L474 834 L522 834 L522 724 L930 724 L930 679 L522 679 L522 548 L816 548 L816 267 L625 267 L625 15 Q625 -5 635 -12 Q646 -18 681 -18 L851 -18 Z" /><glyph glyph-name="" unicode="&#x514d;" d="M531 535 Q521 413 503 333 L821 333 L821 535 L531 535 ZM454 333 Q470 404 481 535 L212 535 L212 333 L454 333 ZM324 707 Q268 636 209 580 L508 580 Q559 632 604 707 L324 707 ZM844 -7 Q879 -7 889 18 Q899 43 902 139 Q924 125 948 119 Q942 14 924 -18 Q904 -52 846 -52 L661 -52 Q598 -52 577 -37 Q555 -21 555 26 L555 288 L491 288 Q412 22 90 -62 Q79 -37 62 -21 Q365 53 441 288 L164 288 L164 540 Q137 516 90 482 Q75 503 54 515 Q244 641 349 833 L402 824 Q375 778 355 750 L631 750 L640 753 L671 731 Q627 652 563 580 L870 580 L870 288 L603 288 L603 26 Q603 5 614 -1 Q625 -7 663 -7 L844 -7 Z" /><glyph glyph-name="" unicode="&#x5154;" d="M532 528 Q522 401 501 313 L823 313 L823 528 L532 528 ZM451 313 Q472 392 483 528 L200 528 L200 313 L451 313 ZM318 707 Q266 636 203 573 L497 573 Q551 630 596 707 L318 707 ZM847 -23 Q884 -23 895 2 Q906 28 909 119 Q928 105 954 99 Q949 -3 930 -35 Q909 -68 848 -68 L646 -68 Q579 -68 557 -52 Q534 -36 534 12 L534 269 L488 269 Q403 10 83 -76 Q77 -58 56 -35 Q355 41 437 269 L153 269 L153 527 Q112 491 79 467 Q65 486 43 501 Q237 633 340 833 L393 825 Q374 791 349 751 L624 751 L633 754 L665 731 Q623 652 553 573 L872 573 L872 269 L581 269 L581 13 Q581 -9 593 -16 Q606 -23 647 -23 L847 -23 ZM679 234 Q785 158 840 85 L805 55 Q750 130 646 208 L679 234 Z" /><glyph glyph-name="" unicode="&#x515a;" d="M283 650 Q245 721 181 795 L221 815 Q297 732 326 673 L283 650 ZM134 434 L87 434 L87 640 L476 640 L476 833 L524 833 L524 640 L674 640 Q736 727 779 819 L827 800 Q759 687 724 640 L914 640 L914 434 L866 434 L866 595 L134 595 L134 434 ZM284 280 L714 280 L714 456 L284 456 L284 280 ZM852 -19 Q884 -19 894 4 Q903 26 906 112 Q925 100 951 92 Q946 -4 928 -34 Q910 -65 856 -65 L672 -65 Q610 -65 589 -49 Q567 -33 567 13 L567 236 L427 236 Q405 104 333 36 Q254 -38 81 -72 Q74 -51 55 -30 Q218 -2 291 63 Q357 121 377 236 L236 236 L236 500 L763 500 L763 236 L615 236 L615 13 Q615 -6 626 -12 Q637 -19 673 -19 L852 -19 Z" /><glyph glyph-name="" unicode="&#x5167;" d="M888 0 Q888 -52 851 -64 Q822 -73 684 -73 Q681 -53 667 -22 Q777 -25 817 -23 Q840 -22 840 0 L840 562 L538 562 Q606 391 624 361 Q687 256 803 207 Q785 187 778 162 Q660 211 595 320 Q573 357 505 528 Q445 269 229 159 Q216 180 194 196 Q417 306 466 562 L166 562 L166 -74 L118 -74 L118 609 L470 609 Q414 719 321 780 L353 810 Q457 740 519 609 L888 609 L888 0 Z" /><glyph glyph-name="" unicode="&#x5168;" d="M524 2 L926 2 L926 -43 L76 -43 L76 2 L475 2 L475 192 L201 192 L201 236 L475 236 L475 416 L199 416 L199 461 L807 461 L807 416 L524 416 L524 236 L812 236 L812 192 L524 192 L524 2 ZM543 825 Q534 811 526 800 Q689 600 969 439 Q944 420 935 399 Q670 563 500 763 Q326 533 67 403 Q54 426 33 440 Q341 587 500 844 L543 825 Z" /><glyph glyph-name="" unicode="&#x516c;" d="M390 785 Q284 532 104 376 Q83 395 60 409 Q242 553 340 799 L390 785 ZM664 298 Q834 102 911 -37 L866 -62 Q832 -3 796 48 Q200 12 169 2 Q161 31 150 53 Q178 59 237 139 Q355 272 482 524 L532 502 Q375 220 241 64 L765 93 Q687 199 621 277 L664 298 ZM649 807 Q771 558 958 415 Q939 401 918 375 Q734 531 603 788 L649 807 Z" /><glyph glyph-name="" unicode="&#x516d;" d="M939 560 L939 511 L64 511 L64 560 L939 560 ZM371 362 Q253 111 97 -69 Q82 -54 51 -34 Q209 133 320 379 L371 362 ZM667 388 Q861 119 948 -35 L901 -61 Q810 108 623 367 L667 388 ZM468 827 Q537 686 564 617 L514 597 Q479 695 420 811 L468 827 Z" /><glyph glyph-name="" unicode="&#x5170;" d="M339 628 Q297 713 216 808 L255 828 Q343 727 380 652 L339 628 ZM895 553 L106 553 L106 600 L586 600 Q665 701 733 832 L781 815 Q712 695 638 600 L895 600 L895 553 ZM157 280 L157 327 L830 327 L830 280 L157 280 ZM937 32 L937 -15 L61 -15 L61 32 L937 32 Z" /><glyph glyph-name="" unicode="&#x5171;" d="M393 166 Q283 27 106 -74 Q80 -48 70 -39 Q255 63 344 184 L393 166 ZM636 184 Q816 58 923 -41 L880 -72 Q775 30 597 159 L636 184 ZM342 301 L659 301 L659 563 L342 563 L342 301 ZM953 301 L953 254 L52 254 L52 301 L293 301 L293 563 L96 563 L96 610 L293 610 L293 823 L342 823 L342 610 L659 610 L659 823 L708 823 L708 610 L914 610 L914 563 L708 563 L708 301 L953 301 Z" /><glyph glyph-name="" unicode="&#x5173;" d="M337 627 Q307 707 237 798 L276 819 Q347 733 379 651 L337 627 ZM544 315 Q660 55 947 -22 Q929 -40 914 -66 Q631 22 507 288 Q443 59 94 -73 Q80 -50 60 -31 Q408 95 461 315 L74 315 L74 362 L470 362 Q475 398 475 447 L475 566 L130 566 L130 614 L605 614 Q675 714 723 828 L773 808 Q703 679 657 614 L875 614 L875 566 L526 566 L526 446 Q526 401 522 362 L930 362 L930 315 L544 315 Z" /><glyph glyph-name="" unicode="&#x5174;" d="M941 345 L941 298 L59 298 L59 345 L941 345 ZM666 228 Q841 75 936 -39 L895 -65 Q797 56 625 206 L666 228 ZM368 214 Q264 56 92 -64 Q71 -41 55 -29 Q231 89 318 232 L368 214 ZM112 736 Q218 594 270 450 L224 429 Q179 563 69 718 L112 736 ZM411 811 Q500 645 528 510 L480 494 Q452 633 366 796 L411 811 ZM920 767 Q796 528 685 381 L641 398 Q772 575 868 784 L920 767 Z" /><glyph glyph-name="" unicode="&#x5175;" d="M401 134 Q272 16 99 -73 Q85 -57 63 -39 Q251 53 353 160 L401 134 ZM633 160 Q817 57 921 -31 L884 -68 Q776 27 598 129 L633 160 ZM280 249 L652 249 L652 516 L280 516 L280 249 ZM947 249 L947 203 L57 203 L57 249 L232 249 L232 768 Q629 788 807 827 L834 784 Q636 744 280 727 L280 561 L891 561 L891 516 L700 516 L700 249 L947 249 Z" /><glyph glyph-name="" unicode="&#x5176;" d="M298 185 L703 185 L703 317 L298 317 L298 185 ZM298 660 L298 538 L703 538 L703 660 L298 660 ZM298 361 L703 361 L703 494 L298 494 L298 361 ZM942 140 L59 140 L59 185 L250 185 L250 660 L85 660 L85 705 L250 705 L250 831 L298 831 L298 705 L703 705 L703 831 L751 831 L751 705 L920 705 L920 660 L751 660 L751 185 L942 185 L942 140 ZM416 83 Q290 1 82 -71 Q71 -51 50 -32 Q256 30 369 112 L416 83 ZM617 108 Q797 46 943 -34 L904 -69 Q784 3 586 76 L617 108 Z" /><glyph glyph-name="" unicode="&#x5177;" d="M262 196 L747 196 L747 306 L262 306 L262 196 ZM262 741 L262 637 L747 637 L747 741 L262 741 ZM262 452 L262 346 L747 346 L747 452 L262 452 ZM747 596 L262 596 L262 493 L747 493 L747 596 ZM945 151 L58 151 L58 196 L215 196 L215 784 L796 784 L796 196 L945 196 L945 151 ZM384 103 Q267 1 83 -72 Q72 -57 49 -37 Q243 38 337 129 L384 103 ZM650 130 Q831 49 948 -30 L911 -67 Q798 12 620 97 L650 130 Z" /><glyph glyph-name="" unicode="&#x5178;" d="M395 103 Q285 6 95 -76 Q84 -60 61 -40 Q251 37 347 129 L395 103 ZM641 131 Q813 48 934 -37 L893 -70 Q783 10 609 99 L641 131 ZM194 209 L366 209 L366 424 L194 424 L194 209 ZM194 663 L194 470 L366 470 L366 663 L194 663 ZM411 663 L411 470 L588 470 L588 663 L411 663 ZM634 663 L634 470 L814 470 L814 663 L634 663 ZM588 424 L411 424 L411 209 L588 209 L588 424 ZM634 209 L814 209 L814 424 L634 424 L634 209 ZM954 209 L954 163 L45 163 L45 209 L147 209 L147 709 L366 709 L366 833 L411 833 L411 709 L588 709 L588 834 L634 834 L634 709 L862 709 L862 209 L954 209 Z" /><glyph glyph-name="" unicode="&#x5179;" d="M373 195 Q457 69 482 -41 L439 -57 Q430 -19 415 20 Q98 -15 75 -26 Q68 -1 58 21 Q78 25 147 97 Q206 156 307 294 Q98 274 82 266 Q77 293 67 312 Q84 315 124 366 Q219 490 277 618 L321 598 Q228 428 141 323 L339 339 Q380 395 418 458 L462 435 Q301 192 144 35 L398 59 Q370 123 332 181 L373 195 ZM895 -62 Q887 -33 863 24 Q517 -12 488 -24 Q486 -13 473 23 Q494 27 561 99 Q624 162 722 296 Q517 276 496 267 Q491 294 481 314 Q500 316 538 367 Q621 467 692 620 L736 600 Q649 436 557 325 L754 341 Q802 409 831 459 L875 437 Q710 188 559 37 L843 64 Q804 139 771 183 L812 199 Q905 72 938 -44 L895 -62 ZM943 620 L68 620 L68 665 L316 665 Q285 734 226 808 L269 826 Q337 741 363 680 L331 665 L615 665 Q677 745 721 832 L769 812 Q701 710 667 665 L943 665 L943 620 Z" /><glyph glyph-name="" unicode="&#x517c;" d="M580 236 L580 353 L413 353 L413 236 L580 236 ZM413 396 L580 396 L580 501 L413 501 L413 396 ZM413 542 L580 542 L580 650 L413 650 L413 542 ZM626 501 L626 396 L790 396 L790 501 L626 501 ZM790 353 L626 353 L626 236 L790 236 L790 353 ZM655 195 Q786 56 959 -11 Q941 -27 927 -48 Q757 28 626 169 L626 -74 L580 -74 L580 195 L413 195 L413 -74 L367 -74 L367 162 Q247 20 77 -54 Q62 -32 44 -17 Q223 54 340 195 L135 195 L135 236 L367 236 L367 353 L63 353 L63 396 L367 396 L367 501 L143 501 L143 542 L367 542 L367 650 L79 650 L79 693 L328 693 Q296 744 221 815 L261 835 Q335 771 373 713 L338 693 L634 693 Q692 762 736 835 L785 816 Q744 755 691 693 L922 693 L922 650 L626 650 L626 542 L836 542 L836 396 L938 396 L938 353 L836 353 L836 195 L655 195 Z" /><glyph glyph-name="" unicode="&#x517d;" d="M806 664 L522 664 L522 565 L806 565 L806 664 ZM806 527 L522 527 L522 426 L806 426 L806 527 ZM186 426 L477 426 L477 527 L186 527 L186 426 ZM186 565 L477 565 L477 664 L186 664 L186 565 ZM853 387 L140 387 L140 703 L352 703 Q333 753 284 813 L325 831 Q379 767 395 722 L361 703 L595 703 Q647 766 685 830 L729 812 Q678 740 645 703 L853 703 L853 387 ZM222 150 L222 23 L780 23 L780 150 L222 150 ZM175 193 L828 193 L828 -69 L780 -69 L780 -17 L222 -17 L222 -73 L175 -73 L175 193 ZM945 310 L945 269 L58 269 L58 310 L945 310 Z" /><glyph glyph-name="" unicode="&#x5185;" d="M895 3 Q895 -51 856 -63 Q825 -72 674 -72 Q670 -50 656 -21 Q762 -25 823 -22 Q848 -21 848 3 L848 612 L524 612 Q520 531 503 470 Q703 298 807 173 L767 142 Q679 256 490 425 Q425 247 229 135 Q217 155 196 170 Q464 317 475 612 L154 612 L154 -75 L106 -75 L106 659 L476 659 L476 832 L525 832 L525 659 L895 659 L895 3 Z" /><glyph glyph-name="" unicode="&#x518c;" d="M790 433 L790 720 L598 720 L598 433 L790 433 ZM382 433 L382 720 L210 720 L210 433 L382 433 ZM953 387 L837 387 L837 -7 Q837 -54 804 -65 Q780 -74 662 -74 Q657 -54 644 -28 Q737 -31 769 -29 Q790 -28 790 -6 L790 387 L597 387 Q585 85 481 -74 Q466 -51 445 -41 Q540 109 550 387 L429 387 L429 2 Q429 -43 397 -55 Q370 -64 260 -64 Q257 -45 243 -19 Q339 -21 362 -19 Q382 -18 382 1 L382 387 L208 387 Q196 81 84 -78 Q73 -60 47 -44 Q153 105 163 387 L48 387 L48 433 L164 433 L164 765 L429 765 L429 433 L551 433 L551 765 L837 765 L837 433 L953 433 L953 387 Z" /><glyph glyph-name="" unicode="&#x518d;" d="M784 221 L784 371 L520 371 L520 221 L784 221 ZM215 221 L473 221 L473 371 L215 371 L215 221 ZM215 560 L215 415 L473 415 L473 560 L215 560 ZM520 560 L520 415 L784 415 L784 560 L520 560 ZM955 176 L831 176 L831 -4 Q831 -54 794 -66 Q761 -75 626 -75 Q619 -49 606 -27 Q709 -30 760 -27 Q784 -26 784 -4 L784 176 L215 176 L215 -76 L168 -76 L168 176 L47 176 L47 221 L168 221 L168 605 L473 605 L473 722 L81 722 L81 768 L921 768 L921 722 L520 722 L520 605 L831 605 L831 221 L955 221 L955 176 Z" /><glyph glyph-name="" unicode="&#x5192;" d="M247 365 L247 278 L752 278 L752 365 L247 365 ZM752 150 L752 238 L247 238 L247 150 L752 150 ZM752 19 L752 111 L247 111 L247 19 L752 19 ZM201 406 L799 406 L799 -67 L752 -67 L752 -22 L247 -22 L247 -71 L201 -71 L201 406 ZM755 625 L245 625 L245 664 L755 664 L755 625 ZM248 498 L248 537 L754 537 L754 498 L248 498 ZM868 786 L868 463 L820 463 L820 746 L174 746 L174 460 L127 460 L127 786 L868 786 Z" /><glyph glyph-name="" unicode="&#x5197;" d="M137 524 L89 524 L89 761 L917 761 L917 524 L867 524 L867 714 L137 714 L137 524 ZM866 -15 Q891 -15 899 18 Q907 50 909 162 Q927 150 956 140 Q952 19 936 -20 Q919 -62 868 -62 L742 -62 Q693 -62 675 -45 Q657 -27 657 24 L657 485 L339 485 L339 322 Q339 44 74 -76 Q62 -47 45 -35 Q290 75 290 323 L290 531 L706 531 L706 24 Q706 0 714 -7 Q722 -15 747 -15 L866 -15 Z" /><glyph glyph-name="" unicode="&#x5199;" d="M813 378 Q812 360 810 353 Q777 19 725 -34 Q699 -57 652 -57 Q601 -60 492 -52 Q488 -24 475 -7 Q559 -14 639 -14 Q674 -14 684 -4 Q731 35 760 333 L222 333 Q255 441 311 703 L359 699 L346 639 Q336 596 332 575 L796 575 L796 531 L321 531 Q307 459 285 378 L813 378 ZM668 157 L95 157 L95 203 L668 203 L668 157 ZM914 774 L914 598 L865 598 L865 728 L134 728 L134 598 L87 598 L87 774 L914 774 Z" /><glyph glyph-name="" unicode="&#x519c;" d="M858 428 Q767 343 639 257 Q761 63 958 -14 Q941 -28 923 -54 Q588 89 468 557 Q406 442 315 363 L315 5 L558 80 Q558 61 563 36 Q270 -60 250 -74 Q243 -51 227 -28 Q267 -15 267 28 L267 324 Q185 265 80 221 Q72 235 45 259 Q349 373 464 659 L151 659 L151 509 L104 509 L104 705 L482 705 Q502 768 517 835 L564 826 Q549 763 531 705 L897 705 L897 509 L849 509 L849 659 L514 659 Q507 640 498 620 Q541 432 618 293 Q747 383 821 459 L858 428 Z" /><glyph glyph-name="" unicode="&#x51b0;" d="M220 588 Q159 655 47 726 L76 759 Q193 688 251 626 L220 588 ZM263 358 Q179 184 89 44 L47 74 Q136 206 226 388 L263 358 ZM538 559 Q477 200 270 42 Q259 61 239 80 Q419 206 485 519 L284 519 L284 566 L501 566 L509 568 L538 559 ZM928 598 Q836 491 714 385 Q810 169 965 84 Q947 70 931 45 Q729 168 628 511 L628 0 Q628 -50 593 -63 Q565 -73 448 -73 Q443 -49 428 -23 Q489 -24 558 -24 Q580 -23 580 -1 L580 831 L628 831 L628 661 Q655 532 697 427 Q827 545 889 625 L928 598 Z" /><glyph glyph-name="" unicode="&#x51b2;" d="M230 577 Q181 664 74 769 L111 794 Q223 684 268 606 L230 577 ZM62 3 Q149 139 241 332 L275 302 Q189 114 104 -28 L62 3 ZM883 303 L883 581 L651 581 L651 303 L883 303 ZM603 303 L603 581 L377 581 L377 303 L603 303 ZM931 627 L931 198 L883 198 L883 257 L651 257 L651 -71 L603 -71 L603 257 L377 257 L377 193 L331 193 L331 627 L603 627 L603 823 L651 823 L651 627 L931 627 Z" /><glyph glyph-name="" unicode="&#x51b3;" d="M214 576 Q167 662 60 769 L98 792 Q204 688 254 604 L214 576 ZM257 301 Q169 108 89 -28 L48 2 Q135 141 222 332 L257 301 ZM619 508 Q619 422 612 365 L799 365 L799 623 L619 623 L619 508 ZM651 319 Q729 46 957 -31 Q936 -52 924 -73 Q685 22 605 319 Q557 57 283 -76 Q273 -59 251 -38 Q511 81 557 319 L303 319 L303 365 L564 365 Q571 422 571 507 L571 623 L359 623 L359 669 L571 669 L571 830 L619 830 L619 669 L845 669 L845 365 L956 365 L956 319 L651 319 Z" /><glyph glyph-name="" unicode="&#x51b5;" d="M214 577 Q166 665 60 769 L96 794 Q201 695 255 608 L214 577 ZM259 301 Q166 101 88 -29 L47 3 Q138 146 224 332 L259 301 ZM427 436 L845 436 L845 741 L427 741 L427 436 ZM875 -19 Q898 -19 905 10 Q912 38 914 138 Q932 123 957 118 Q952 9 938 -25 Q923 -61 879 -61 L769 -61 Q722 -61 706 -45 Q690 -30 690 16 L690 390 L549 390 Q537 197 490 102 Q432 -16 290 -71 Q278 -48 258 -33 Q394 17 448 125 Q491 212 501 390 L380 390 L380 786 L894 786 L894 390 L738 390 L738 15 Q738 -6 745 -12 Q752 -19 774 -19 L875 -19 Z" /><glyph glyph-name="" unicode="&#x51b6;" d="M221 582 Q167 671 60 769 L97 794 Q207 693 259 612 L221 582 ZM48 2 Q145 149 234 329 L269 297 Q166 93 89 -30 L48 2 ZM415 273 L415 16 L810 16 L810 273 L415 273 ZM368 318 L857 318 L857 -73 L810 -73 L810 -29 L415 -29 L415 -76 L368 -76 L368 318 ZM717 695 Q871 538 943 408 L900 382 Q877 422 855 454 Q352 420 325 410 Q322 429 309 458 Q330 462 379 525 Q483 650 572 833 L622 818 Q495 590 392 471 L825 496 Q755 592 677 674 L717 695 Z" /><glyph glyph-name="" unicode="&#x51b7;" d="M47 1 Q130 155 198 335 L238 310 Q169 127 92 -24 L47 1 ZM99 791 Q195 683 239 589 L195 565 Q154 658 59 772 L99 791 ZM851 349 Q774 210 619 55 Q690 4 734 -42 L700 -73 Q595 32 438 135 L471 161 Q513 134 581 85 Q688 180 779 321 L361 321 L361 367 L809 367 L818 370 L851 349 ZM571 554 Q635 496 679 439 L639 414 Q605 463 534 535 L571 554 ZM645 818 Q637 801 626 783 Q749 581 942 475 Q926 462 906 435 Q731 544 602 743 Q477 553 289 431 Q268 455 254 464 Q489 612 598 832 L645 818 Z" /><glyph glyph-name="" unicode="&#x51bb;" d="M207 544 Q163 643 58 770 L98 792 Q205 662 249 570 L207 544 ZM48 3 Q127 136 210 331 L250 305 Q171 121 92 -24 L48 3 ZM478 230 Q415 84 319 -18 Q307 -6 282 10 Q375 107 429 244 L478 230 ZM666 340 L666 -3 Q666 -49 633 -61 Q608 -69 490 -69 Q488 -55 473 -23 Q574 -25 599 -23 Q619 -22 619 -3 L619 340 L444 340 Q372 340 354 326 Q344 361 337 375 Q355 379 393 461 Q429 536 469 648 L290 648 L290 694 L485 694 Q512 778 527 840 L575 821 L537 694 L938 694 L938 648 L521 648 Q469 502 408 385 L619 385 L619 549 L666 549 L666 385 L900 385 L900 340 L666 340 ZM793 245 Q899 98 946 11 L903 -11 Q850 92 752 226 L793 245 Z" /><glyph glyph-name="" unicode="&#x51c0;" d="M202 552 Q158 642 58 766 L98 786 Q198 667 246 577 L202 552 ZM58 0 Q140 145 213 331 L254 305 Q177 116 104 -26 L58 0 ZM819 358 L611 358 L611 227 L819 227 L819 358 ZM611 403 L819 403 L819 529 L611 529 L611 403 ZM461 702 Q421 636 370 574 L604 574 Q653 626 691 702 L461 702 ZM951 358 L865 358 L865 140 L819 140 L819 182 L611 182 L611 -7 Q611 -53 577 -64 Q548 -73 427 -73 Q422 -51 409 -27 Q498 -30 543 -27 Q564 -26 564 -7 L564 182 L325 182 L325 227 L564 227 L564 358 L268 358 L268 403 L564 403 L564 529 L352 529 L352 553 L300 498 Q280 521 262 531 Q397 647 476 833 L522 820 Q508 789 486 746 L718 746 L726 749 L757 727 Q720 649 659 574 L865 574 L865 403 L951 403 L951 358 Z" /><glyph glyph-name="" unicode="&#x51c6;" d="M683 664 Q666 720 611 806 L651 822 Q705 744 727 685 L683 664 ZM201 551 Q157 641 58 766 L99 786 Q194 671 244 577 L201 551 ZM58 1 Q133 129 213 331 L254 306 Q177 114 105 -25 L58 1 ZM421 47 L650 47 L650 207 L421 207 L421 47 ZM650 606 L421 606 L421 451 L650 451 L650 606 ZM650 407 L421 407 L421 251 L650 251 L650 407 ZM943 2 L421 2 L421 -72 L376 -72 L376 551 Q322 461 260 398 Q248 417 223 431 Q368 575 453 822 L498 812 Q472 735 431 650 L920 650 L920 606 L697 606 L697 451 L899 451 L899 407 L697 407 L697 251 L899 251 L899 207 L697 207 L697 47 L943 47 L943 2 Z" /><glyph glyph-name="" unicode="&#x51cf;" d="M897 683 Q848 744 763 802 L793 828 Q879 771 928 712 L897 683 ZM196 568 Q156 655 59 772 L96 790 Q187 687 236 591 L196 568 ZM240 309 Q165 120 89 -25 L47 -1 Q130 147 203 333 L240 309 ZM457 351 L457 169 L607 169 L607 351 L457 351 ZM457 127 L457 63 L416 63 L416 393 L646 393 L646 127 L457 127 ZM660 486 L401 486 L401 526 L660 526 L660 486 ZM918 510 Q871 309 783 168 Q823 -18 884 -21 Q914 -22 928 141 Q944 125 965 119 Q942 -78 885 -76 Q799 -73 749 118 Q665 6 552 -67 Q540 -54 516 -34 Q647 43 735 174 Q701 332 684 620 L355 620 L355 403 Q355 82 239 -79 Q226 -62 202 -51 Q310 97 310 403 L310 664 L682 664 Q679 719 675 826 L719 826 Q721 744 725 664 L943 664 L943 620 L728 620 Q740 401 770 231 Q838 356 875 519 L918 510 Z" /><glyph glyph-name="" unicode="&#x51d1;" d="M197 551 Q144 654 52 766 L92 787 Q193 665 240 577 L197 551 ZM52 1 Q131 143 202 331 L244 307 Q175 127 99 -25 L52 1 ZM583 146 Q507 -8 305 -66 Q298 -50 278 -28 Q460 20 531 146 L350 146 L350 188 L552 188 Q569 232 581 294 L446 294 L446 336 L754 336 L754 294 L629 294 Q618 234 601 188 L886 188 L886 146 L583 146 ZM622 115 Q790 52 908 -27 L881 -66 Q764 20 595 81 L622 115 ZM742 425 Q826 326 965 280 Q948 266 934 244 Q779 301 688 425 L494 425 Q418 311 300 238 Q279 265 265 275 Q370 334 437 425 L275 425 L275 468 L466 468 Q492 510 511 558 L340 558 L340 600 L527 600 Q544 650 553 689 L310 689 L310 731 L562 731 Q572 777 580 834 L628 829 Q620 777 610 731 L913 731 L913 689 L602 689 Q588 635 576 600 L883 600 L883 558 L561 558 Q543 510 519 468 L938 468 L938 425 L742 425 Z" /><glyph glyph-name="" unicode="&#x51dd;" d="M656 686 Q696 665 752 629 Q812 680 866 755 L589 755 L589 797 L900 797 L908 800 L940 779 Q884 691 787 605 Q833 574 863 546 L834 511 Q754 587 627 656 L656 686 ZM347 530 Q296 530 279 543 Q262 557 262 598 L262 832 L308 832 L308 708 Q450 749 509 781 L539 747 Q445 702 308 671 L308 597 Q308 582 316 577 Q324 572 350 572 L485 572 Q506 572 513 586 Q520 600 521 650 Q532 641 562 634 Q559 572 544 551 Q530 530 490 530 L347 530 ZM177 552 Q144 642 59 772 L99 788 Q186 664 220 573 L177 552 ZM211 313 Q160 141 91 -20 L46 1 Q110 131 172 333 L211 313 ZM510 6 Q475 57 400 125 Q355 2 235 -76 Q228 -65 204 -43 Q348 42 373 202 L229 202 L229 246 L378 246 Q379 262 379 289 L379 384 L309 384 Q290 322 261 270 Q246 283 222 293 Q272 374 300 522 L344 513 Q335 468 323 427 L551 427 L551 384 L423 384 L423 289 Q423 261 422 246 L564 246 L564 202 L417 202 Q416 191 412 171 Q507 90 543 37 L510 6 ZM959 -19 Q950 -33 943 -62 L861 -62 Q775 -62 724 -28 Q661 14 628 121 Q599 -10 534 -73 Q522 -55 502 -44 Q601 48 612 360 L653 360 Q650 267 640 197 Q668 66 737 15 L737 455 L571 455 L571 499 L916 499 L924 501 L952 492 Q930 397 907 343 L872 356 Q889 399 901 455 L780 455 L780 265 L939 265 L939 222 L780 222 L780 -7 Q815 -19 864 -19 L959 -19 Z" /><glyph glyph-name="" unicode="&#x51e1;" d="M381 530 Q524 394 600 306 L562 273 Q479 377 345 504 L381 530 ZM870 -1 Q895 -1 903 37 Q910 70 913 189 Q931 174 958 166 Q954 39 939 -2 Q922 -48 873 -48 L754 -48 Q706 -48 689 -29 Q672 -10 672 46 L672 720 L297 720 L297 498 Q297 107 80 -74 Q67 -52 45 -38 Q248 133 248 498 L248 767 L720 767 L720 45 Q720 16 728 7 Q735 -1 759 -1 L870 -1 Z" /><glyph glyph-name="" unicode="&#x51ed;" d="M590 734 Q455 719 350 712 Q346 734 338 749 Q703 780 847 820 L886 784 Q773 757 637 740 L637 602 L940 602 L940 559 L637 559 L637 416 L920 416 L920 373 L331 373 L331 416 L590 416 L590 559 L296 559 L296 602 L590 602 L590 734 ZM186 612 Q123 546 66 505 Q55 521 31 538 Q198 651 290 834 L334 822 Q290 736 233 667 L233 338 L186 338 L186 612 ZM879 -11 Q903 -11 910 11 Q917 34 919 120 Q934 109 963 101 Q959 5 944 -25 Q928 -56 883 -56 L755 -56 Q706 -56 689 -42 Q672 -27 672 17 L672 239 L324 239 L324 179 Q324 2 76 -75 Q63 -46 49 -34 Q276 32 276 180 L276 283 L719 283 L719 16 Q719 -1 726 -6 Q733 -11 759 -11 L879 -11 Z" /><glyph glyph-name="" unicode="&#x51ef;" d="M487 554 L95 554 L95 766 L138 766 L138 596 L269 596 L269 828 L312 828 L312 596 L444 596 L444 766 L487 766 L487 554 ZM441 97 Q443 69 446 55 Q136 -25 113 -39 Q106 -15 93 5 Q112 13 112 54 L112 271 L418 271 L418 410 L93 410 L93 455 L464 455 L464 227 L155 227 L155 27 L441 97 ZM893 -20 Q906 -20 910 6 Q913 30 915 113 Q930 100 954 94 Q952 6 940 -25 Q928 -58 896 -58 L836 -58 Q800 -58 789 -42 Q777 -27 777 19 L777 729 L617 729 L617 487 Q617 111 491 -73 Q478 -57 453 -43 Q572 128 572 488 L572 773 L822 773 L822 18 Q822 -8 825 -14 Q829 -20 842 -20 L893 -20 Z" /><glyph glyph-name="" unicode="&#x51f8;" d="M837 62 L837 407 L623 407 L623 720 L369 720 L369 405 L160 405 L160 62 L837 62 ZM884 452 L884 -56 L837 -56 L837 16 L160 16 L160 -63 L113 -63 L113 451 L323 451 L323 766 L670 766 L670 452 L884 452 Z" /><glyph glyph-name="" unicode="&#x51f9;" d="M829 71 L829 695 L646 695 L646 323 L351 323 L351 694 L157 694 L157 71 L829 71 ZM877 741 L877 -68 L829 -68 L829 25 L157 25 L157 -58 L110 -58 L110 740 L399 740 L399 369 L599 369 L599 741 L877 741 Z" /><glyph glyph-name="" unicode="&#x51fa;" d="M886 336 L886 -71 L835 -71 L835 -12 L117 -12 L117 337 L169 337 L169 35 L475 35 L475 406 L158 406 L158 738 L207 738 L207 453 L475 453 L475 831 L525 831 L525 453 L796 453 L796 738 L846 738 L846 406 L525 406 L525 35 L835 35 L835 336 L886 336 Z" /><glyph glyph-name="" unicode="&#x51fb;" d="M525 37 L792 37 L792 303 L840 303 L840 -74 L792 -74 L792 -10 L158 -10 L158 304 L208 304 L208 37 L476 37 L476 392 L76 392 L76 439 L476 439 L476 621 L151 621 L151 668 L476 668 L476 832 L525 832 L525 668 L856 668 L856 621 L525 621 L525 439 L927 439 L927 392 L525 392 L525 37 Z" /><glyph glyph-name="" unicode="&#x5203;" d="M866 689 Q845 20 794 -39 Q769 -70 720 -73 Q677 -77 562 -69 Q558 -38 546 -19 Q629 -26 706 -26 Q736 -26 750 -10 Q797 38 817 672 L503 672 Q487 414 427 266 Q331 28 98 -74 Q86 -53 63 -37 Q291 59 383 287 Q440 429 452 672 L93 672 L93 720 L866 720 L866 689 ZM241 526 Q183 326 111 240 L70 263 Q153 359 200 541 L241 526 Z" /><glyph glyph-name="" unicode="&#x5206;" d="M385 795 Q283 544 94 395 Q75 417 52 429 Q242 567 336 809 L385 795 ZM805 449 Q805 430 804 423 Q781 10 738 -37 Q715 -62 668 -63 Q608 -67 507 -59 Q503 -29 490 -11 Q571 -19 651 -19 Q683 -19 695 -7 Q735 32 755 402 L445 402 Q421 225 357 120 Q273 -16 100 -76 Q87 -52 70 -38 Q235 17 314 144 Q374 239 395 402 L184 402 L184 449 L805 449 ZM664 811 Q771 572 953 443 Q934 430 914 404 Q738 544 621 793 L664 811 Z" /><glyph glyph-name="" unicode="&#x5207;" d="M432 263 Q435 246 442 222 Q178 103 158 85 Q150 108 133 129 Q171 149 171 194 L171 498 L43 469 L34 513 L171 543 L171 794 L218 794 L218 554 L422 600 L431 557 L218 509 L218 172 L432 263 ZM932 707 Q911 33 863 -26 Q840 -56 794 -61 Q738 -63 654 -58 Q652 -28 639 -9 Q701 -14 779 -14 Q808 -14 819 2 Q864 54 883 691 L646 691 Q639 398 596 252 Q531 32 351 -69 Q331 -43 313 -33 Q489 60 552 272 Q593 410 599 691 L426 691 L426 737 L932 737 L932 707 Z" /><glyph glyph-name="" unicode="&#x5212;" d="M464 635 Q410 703 317 777 L350 802 Q449 729 498 665 L464 635 ZM272 506 Q294 350 334 223 Q424 332 481 476 L526 462 Q459 300 352 173 Q425 -24 500 -24 Q536 -24 544 137 Q561 120 585 112 Q577 7 559 -32 Q540 -72 498 -72 Q398 -72 318 134 Q212 22 80 -53 Q71 -36 46 -15 Q190 61 299 182 Q251 325 225 501 L49 481 L43 526 L220 546 Q202 682 199 832 L248 832 Q248 694 266 552 L594 590 L599 544 L272 506 ZM709 175 L662 175 L662 721 L709 721 L709 175 ZM903 823 L903 -1 Q903 -50 866 -62 Q836 -72 706 -72 Q704 -56 688 -25 Q786 -28 831 -25 Q856 -24 856 -1 L856 823 L903 823 Z" /><glyph glyph-name="" unicode="&#x5217;" d="M70 774 L569 774 L569 728 L297 728 Q279 643 246 551 L495 551 L504 553 L534 543 Q463 74 121 -78 Q110 -54 92 -38 Q256 28 358 184 Q289 249 188 312 L214 347 Q306 293 384 226 Q452 344 481 506 L230 506 Q174 368 107 284 Q86 303 68 313 Q188 456 248 728 L70 728 L70 774 ZM656 710 L703 710 L703 162 L656 162 L656 710 ZM910 831 L910 0 Q910 -48 875 -61 Q848 -70 734 -70 Q727 -39 717 -23 Q816 -25 840 -23 Q862 -22 862 -1 L862 831 L910 831 Z" /><glyph glyph-name="" unicode="&#x5219;" d="M363 151 Q486 54 540 -9 L508 -45 Q443 30 332 120 L363 151 ZM531 775 L531 176 L484 176 L484 731 L168 731 L168 175 L122 175 L122 775 L531 775 ZM896 828 L896 6 Q896 -45 857 -59 Q826 -68 688 -68 Q683 -44 669 -20 Q706 -21 823 -21 Q849 -20 849 5 L849 828 L896 828 ZM710 744 L710 156 L664 156 L664 744 L710 744 ZM347 656 L347 375 Q347 59 90 -75 Q79 -54 58 -40 Q204 36 261 156 Q301 242 301 376 L301 656 L347 656 Z" /><glyph glyph-name="" unicode="&#x521a;" d="M449 119 Q411 214 354 320 Q281 149 200 39 Q203 36 163 64 Q251 182 328 367 Q266 484 188 606 L223 623 Q283 534 349 417 Q399 548 435 684 L478 675 Q439 532 375 370 Q452 229 487 140 L449 119 ZM579 12 Q579 -33 546 -44 Q519 -53 406 -53 Q402 -34 388 -9 Q418 -10 512 -10 Q534 -9 534 12 L534 737 L142 737 L142 -69 L96 -69 L96 782 L579 782 L579 12 ZM740 174 L696 174 L696 722 L740 722 L740 174 ZM909 814 L909 2 Q909 -44 874 -58 Q846 -67 721 -67 Q718 -46 705 -22 Q797 -25 840 -22 Q864 -21 864 1 L864 814 L909 814 Z" /><glyph glyph-name="" unicode="&#x521b;" d="M458 -16 Q494 -16 505 11 Q515 38 518 133 Q538 119 563 114 Q558 9 539 -24 Q518 -60 459 -60 L259 -60 Q194 -60 172 -43 Q149 -26 149 27 L149 466 L495 466 Q495 450 494 443 Q480 211 451 178 Q434 161 400 158 Q331 158 306 160 Q304 183 293 204 Q343 199 384 199 Q405 199 413 208 Q434 232 447 422 L195 422 L195 27 Q195 1 207 -8 Q219 -16 259 -16 L458 -16 ZM369 816 L348 773 Q509 614 590 497 L555 467 Q488 566 328 735 Q227 556 72 433 Q54 451 35 463 Q233 611 324 829 L369 816 ZM704 169 L658 169 L658 715 L704 715 L704 169 ZM903 819 L903 3 Q903 -47 864 -61 Q831 -70 694 -69 Q689 -49 676 -23 Q791 -26 829 -24 Q856 -23 856 2 L856 819 L903 819 Z" /><glyph glyph-name="" unicode="&#x521d;" d="M256 671 Q228 733 171 810 L207 830 Q270 754 294 695 L256 671 ZM379 199 Q341 255 263 351 L263 -72 L214 -72 L214 342 Q144 258 74 199 Q61 228 43 244 Q229 386 328 606 L58 606 L58 651 L353 651 L353 650 L362 653 L391 633 Q349 525 265 408 L306 362 Q360 418 390 462 L428 434 Q384 382 330 336 Q379 277 411 240 L379 199 ZM916 713 Q895 29 844 -32 Q820 -63 772 -66 Q717 -69 624 -63 Q622 -36 610 -16 Q675 -22 759 -22 Q787 -22 800 -6 Q848 46 868 696 L643 696 Q627 395 578 233 Q519 38 383 -76 Q372 -60 345 -40 Q478 62 535 252 Q581 406 593 696 L407 696 L407 743 L916 743 L916 713 Z" /><glyph glyph-name="" unicode="&#x5220;" d="M566 440 L566 756 L449 756 L449 440 L566 440 ZM279 440 L279 757 L161 757 L161 440 L279 440 ZM609 440 L667 440 L667 395 L609 395 L609 -3 Q609 -43 584 -53 Q565 -62 480 -62 Q476 -39 466 -19 L551 -19 Q566 -19 566 -3 L566 395 L449 395 L449 345 Q449 56 378 -70 Q369 -59 342 -46 Q406 68 406 345 L406 395 L321 395 L321 -2 Q321 -42 296 -53 Q275 -62 192 -62 Q188 -35 178 -18 Q198 -19 263 -19 Q279 -18 279 -2 L279 395 L161 395 L161 343 Q161 55 83 -70 Q66 -53 46 -44 Q119 71 119 343 L119 395 L49 395 L49 440 L119 440 L119 801 L321 801 L321 440 L406 440 L406 800 L609 800 L609 440 ZM761 167 L719 167 L719 717 L761 717 L761 167 ZM909 815 L909 -12 Q909 -54 880 -65 Q856 -74 764 -74 Q761 -56 747 -30 Q771 -31 847 -31 Q865 -30 865 -12 L865 815 L909 815 Z" /><glyph glyph-name="" unicode="&#x5224;" d="M562 765 Q498 625 450 554 Q417 573 409 576 Q473 668 517 778 L562 765 ZM189 559 Q152 647 81 755 L123 771 Q200 653 231 580 L189 559 ZM344 429 Q344 352 337 288 L567 288 L567 242 L330 242 Q293 34 120 -79 Q99 -55 82 -46 Q243 58 281 242 L50 242 L50 288 L289 288 Q297 349 297 429 L297 483 L89 483 L89 529 L297 529 L297 828 L344 828 L344 529 L545 529 L545 483 L344 483 L344 429 ZM691 167 L644 167 L644 713 L691 713 L691 167 ZM903 814 L903 -1 Q903 -52 864 -66 Q836 -75 695 -75 Q686 -47 675 -27 Q712 -28 829 -28 Q856 -27 856 -2 L856 814 L903 814 Z" /><glyph glyph-name="" unicode="&#x5229;" d="M330 530 L553 530 L553 484 L330 484 L330 462 Q375 419 535 249 L506 211 Q443 287 330 406 L330 -72 L282 -72 L282 407 Q186 185 69 73 Q54 100 40 116 Q186 255 271 484 L60 484 L60 530 L282 530 L282 726 Q176 706 73 694 Q71 708 59 733 Q353 771 480 826 L517 789 Q444 760 330 736 L330 530 ZM689 171 L642 171 L642 716 L689 716 L689 171 ZM903 824 L903 5 Q903 -45 864 -59 Q833 -68 695 -68 Q689 -43 676 -20 Q713 -21 829 -21 Q856 -18 856 5 L856 824 L903 824 Z" /><glyph glyph-name="" unicode="&#x522b;" d="M442 744 L147 744 L147 518 L442 518 L442 744 ZM488 473 L102 473 L102 788 L488 788 L488 473 ZM501 345 L500 320 Q484 -5 452 -42 Q433 -64 397 -65 Q348 -67 287 -63 Q285 -38 273 -16 Q320 -21 379 -21 Q403 -21 412 -11 Q438 19 451 300 L287 300 Q253 21 75 -77 Q62 -54 41 -42 Q211 47 241 300 L59 300 L59 345 L246 345 Q249 380 253 445 L300 445 Q296 380 293 345 L501 345 ZM688 167 L641 167 L641 714 L688 714 L688 167 ZM903 814 L903 -1 Q903 -52 865 -66 Q832 -75 698 -74 Q692 -50 679 -27 Q781 -30 829 -27 Q856 -27 856 -2 L856 814 L903 814 Z" /><glyph glyph-name="" unicode="&#x522e;" d="M493 268 L143 268 L143 33 L493 33 L493 268 ZM341 549 L589 549 L589 503 L341 503 L341 313 L540 313 L540 -58 L493 -58 L493 -12 L143 -12 L143 -61 L97 -61 L97 313 L294 313 L294 503 L46 503 L46 549 L294 549 L294 730 Q174 709 72 696 Q71 713 58 736 Q384 779 508 834 L547 797 Q484 770 341 739 L341 549 ZM710 179 L663 179 L663 725 L710 725 L710 179 ZM905 823 L905 6 Q905 -44 868 -57 Q841 -66 710 -66 Q703 -43 691 -18 Q788 -21 833 -18 Q858 -18 858 6 L858 823 L905 823 Z" /><glyph glyph-name="" unicode="&#x5230;" d="M355 85 L577 127 L579 84 Q322 34 82 -15 L70 32 L309 76 L309 265 L105 265 L105 309 L309 309 L309 428 L355 428 L355 309 L567 309 L567 265 L355 265 L355 85 ZM430 665 Q542 532 587 450 L550 426 Q527 465 506 496 Q143 458 121 447 Q113 480 104 495 Q121 497 153 540 Q208 612 258 719 L78 719 L78 763 L586 763 L586 719 L312 719 Q247 590 180 505 L479 534 Q430 603 394 644 L430 665 ZM697 147 L652 147 L652 750 L697 750 L697 147 ZM900 813 L900 25 Q900 -26 864 -39 Q834 -48 717 -48 Q712 -25 697 3 Q796 0 832 2 Q853 3 853 24 L853 813 L900 813 Z" /><glyph glyph-name="" unicode="&#x5236;" d="M351 514 L607 514 L607 469 L351 469 L351 351 L565 351 L565 66 Q565 27 539 17 Q518 9 421 9 Q415 34 404 52 Q485 50 505 52 Q520 52 520 67 L520 306 L351 306 L351 -73 L305 -73 L305 306 L146 306 L146 10 L101 10 L101 351 L305 351 L305 469 L51 469 L51 514 L305 514 L305 637 L156 637 Q124 560 98 522 Q91 527 54 541 Q122 638 160 806 L207 797 Q189 729 173 683 L305 683 L305 830 L351 830 L351 683 L568 683 L568 637 L351 637 L351 514 ZM741 191 L696 191 L696 736 L741 736 L741 191 ZM919 827 L919 9 Q919 -44 881 -58 Q852 -68 730 -68 Q720 -34 712 -14 Q812 -17 851 -15 Q872 -15 872 7 L872 827 L919 827 Z" /><glyph glyph-name="" unicode="&#x5237;" d="M164 748 L164 593 L531 593 L531 748 L164 748 ZM164 548 L164 447 Q164 116 77 -42 Q58 -23 40 -14 Q120 133 120 447 L120 792 L577 792 L577 548 L164 548 ZM578 102 Q578 68 556 56 Q536 47 461 47 Q460 63 445 90 Q504 87 523 89 Q535 90 535 102 L535 366 L403 366 L403 -76 L360 -76 L360 366 L237 366 L237 34 L196 34 L196 409 L360 409 L360 524 L403 524 L403 409 L578 409 L578 102 ZM735 175 L690 175 L690 724 L735 724 L735 175 ZM907 817 L907 12 Q907 -40 871 -53 Q844 -62 720 -62 Q707 -21 702 -11 Q734 -12 841 -12 Q861 -11 861 12 L861 817 L907 817 Z" /><glyph glyph-name="" unicode="&#x5238;" d="M309 655 Q284 710 220 785 L257 805 Q321 737 348 677 L309 655 ZM745 297 Q662 359 614 432 L367 432 Q307 356 230 297 L745 297 ZM669 432 Q773 294 967 236 Q946 220 934 196 Q839 230 756 289 L755 280 Q755 274 754 272 Q734 -4 698 -40 Q676 -62 637 -63 Q591 -67 501 -60 Q497 -31 486 -15 Q573 -22 620 -20 Q646 -21 658 -11 Q686 15 704 252 L436 252 Q412 124 348 51 Q275 -34 128 -74 Q116 -50 98 -34 Q237 0 307 77 Q365 141 386 252 L215 252 L215 286 Q150 237 72 200 Q64 217 41 237 Q199 310 305 432 L68 432 L68 477 L343 477 Q386 534 421 603 L131 603 L131 647 L442 647 Q482 746 494 835 L544 829 Q530 736 492 647 L633 647 Q690 710 741 804 L785 787 Q725 696 682 647 L865 647 L865 603 L474 603 Q436 525 401 477 L936 477 L936 432 L669 432 Z" /><glyph glyph-name="" unicode="&#x5239;" d="M504 491 Q436 546 336 604 Q228 521 88 458 Q73 481 57 495 Q184 545 297 627 Q182 692 95 731 L124 761 Q236 709 333 655 Q425 729 477 808 L519 791 Q459 706 371 632 Q475 573 534 524 L504 491 ZM231 254 Q178 122 86 20 Q71 43 51 55 Q143 144 195 273 L231 254 ZM339 351 L339 -11 Q339 -49 313 -60 Q286 -69 204 -68 Q201 -53 187 -26 Q209 -27 277 -27 Q293 -26 293 -12 L293 351 L69 351 L69 394 L293 394 L293 516 L339 516 L339 394 L561 394 L561 351 L339 351 ZM434 275 Q523 161 565 64 L523 44 Q485 142 396 259 L434 275 ZM650 718 L696 718 L696 173 L650 173 L650 718 ZM903 814 L903 -6 Q903 -53 868 -65 Q840 -74 726 -73 Q721 -51 709 -28 Q803 -31 833 -29 Q856 -28 856 -7 L856 814 L903 814 Z" /><glyph glyph-name="" unicode="&#x523a;" d="M348 704 L585 704 L585 658 L348 658 L348 553 L551 553 L551 352 Q551 311 528 300 Q507 291 406 291 Q404 306 391 336 Q472 334 492 336 Q507 336 507 353 L507 509 L348 509 L348 298 Q455 217 575 111 L549 71 Q481 137 348 249 L348 -74 L301 -74 L301 266 Q198 85 72 -1 Q62 23 45 40 Q214 152 301 355 L301 509 L143 509 L143 287 L97 287 L97 553 L301 553 L301 658 L62 658 L62 704 L301 704 L301 828 L348 828 L348 704 ZM721 168 L674 168 L674 714 L721 714 L721 168 ZM903 814 L903 -2 Q903 -52 866 -65 Q836 -75 709 -74 Q705 -53 691 -26 Q787 -29 830 -26 Q855 -25 855 -2 L855 814 L903 814 Z" /><glyph glyph-name="" unicode="&#x523b;" d="M517 554 Q385 309 110 159 Q98 179 76 199 Q252 283 376 428 Q134 415 114 406 Q103 444 98 454 Q118 456 153 495 Q210 552 275 659 L62 659 L62 704 L332 704 Q312 764 271 822 L315 836 Q364 768 381 710 L365 704 L597 704 L597 659 L332 659 Q253 537 179 461 L412 471 Q447 519 474 569 L517 554 ZM583 360 Q527 262 440 172 Q542 81 603 11 L566 -21 Q501 55 408 140 Q277 15 107 -70 Q90 -45 73 -30 Q389 112 539 378 L583 360 ZM732 161 L685 161 L685 713 L732 713 L732 161 ZM914 819 L914 0 Q914 -48 878 -62 Q847 -71 724 -70 Q718 -45 706 -25 Q799 -28 842 -25 Q867 -24 867 -1 L867 819 L914 819 Z" /><glyph glyph-name="" unicode="&#x5242;" d="M202 348 L247 348 L247 240 Q247 35 80 -68 Q71 -54 48 -35 Q202 57 202 241 L202 348 ZM441 348 L486 348 L486 -71 L441 -71 L441 348 ZM318 834 Q362 773 391 711 L613 711 L613 667 L510 667 Q477 571 400 496 Q535 419 596 379 L569 342 Q472 406 366 467 Q260 384 75 334 Q65 356 45 374 Q219 412 324 490 Q220 547 151 580 L178 613 Q267 571 360 519 Q427 580 461 667 L70 667 L70 711 L341 711 Q316 764 277 820 L318 834 ZM718 203 L674 203 L674 693 L718 693 L718 203 ZM904 824 L904 2 Q904 -46 868 -58 Q838 -68 712 -67 Q707 -46 696 -22 Q790 -25 835 -22 Q860 -21 860 2 L860 824 L904 824 Z" /><glyph glyph-name="" unicode="&#x524a;" d="M151 585 Q125 683 72 777 L114 793 Q170 692 194 603 L151 585 ZM457 220 L457 344 L142 344 L142 220 L457 220 ZM142 510 L142 388 L457 388 L457 510 L142 510 ZM504 -4 Q504 -48 472 -59 Q448 -69 329 -67 Q326 -49 313 -23 Q343 -24 437 -24 Q457 -23 457 -4 L457 176 L142 176 L142 -72 L96 -72 L96 556 L275 556 L275 833 L322 833 L322 556 L504 556 L504 -4 ZM406 600 Q462 696 497 802 L547 785 Q481 641 446 586 L406 600 ZM630 715 L677 715 L677 170 L630 170 L630 715 ZM906 814 L906 -2 Q906 -52 867 -66 Q834 -76 698 -75 Q689 -46 679 -27 Q777 -31 833 -28 Q859 -27 859 -3 L859 814 L906 814 Z" /><glyph glyph-name="" unicode="&#x524d;" d="M427 197 L427 318 L173 318 L173 197 L427 197 ZM173 479 L173 359 L427 359 L427 479 L173 479 ZM473 -6 Q473 -49 442 -59 Q418 -68 304 -68 Q293 -35 287 -23 Q379 -26 407 -24 Q427 -24 427 -5 L427 156 L173 156 L173 -69 L127 -69 L127 523 L473 523 L473 -6 ZM819 546 L866 546 L866 -2 Q866 -49 832 -61 Q801 -70 679 -70 Q675 -51 660 -23 Q771 -25 798 -23 Q819 -22 819 -3 L819 546 ZM662 105 L617 105 L617 513 L662 513 L662 105 ZM267 834 Q336 758 371 688 L325 669 Q294 737 225 817 L267 834 ZM940 669 L940 624 L59 624 L59 669 L637 669 Q696 750 737 839 L787 820 Q736 733 690 669 L940 669 Z" /><glyph glyph-name="" unicode="&#x5251;" d="M586 109 L588 66 L98 -26 L84 20 Q169 34 388 73 Q464 230 511 401 L556 388 Q489 196 435 82 L586 109 ZM512 486 L171 486 L171 529 L512 529 L512 486 ZM332 173 Q322 272 286 392 L324 400 Q362 285 374 183 L332 173 ZM150 367 Q201 245 216 150 L175 137 Q160 234 111 356 L150 367 ZM370 826 Q356 798 349 786 Q534 640 620 543 L588 507 Q493 618 327 749 Q223 582 62 466 Q47 493 33 507 Q227 636 329 841 L370 826 ZM732 163 L688 163 L688 712 L732 712 L732 163 ZM909 814 L909 -1 Q909 -50 871 -62 Q842 -71 707 -71 Q702 -48 689 -26 Q726 -27 838 -27 Q864 -26 864 -1 L864 814 L909 814 Z" /><glyph glyph-name="" unicode="&#x5254;" d="M159 481 L520 481 L520 596 L159 596 L159 481 ZM159 637 L520 637 L520 749 L159 749 L159 637 ZM595 343 Q594 326 593 319 Q568 5 525 -40 Q507 -61 470 -62 Q431 -64 361 -59 Q359 -34 349 -17 Q395 -22 455 -22 Q480 -22 490 -11 Q526 23 547 299 L460 299 Q394 56 255 -58 Q241 -39 222 -28 Q353 72 420 299 L332 299 Q251 109 105 4 Q90 25 73 35 Q207 123 288 299 L188 299 Q132 221 67 170 Q52 189 37 201 Q159 296 219 439 L113 439 L113 792 L567 792 L567 439 L269 439 Q247 390 218 343 L595 343 ZM733 174 L688 174 L688 721 L733 721 L733 174 ZM911 819 L911 1 Q911 -47 875 -61 Q850 -70 721 -70 Q716 -47 704 -23 Q796 -26 841 -23 Q865 -22 865 0 L865 819 L911 819 Z" /><glyph glyph-name="" unicode="&#x5267;" d="M367 423 L367 548 L170 548 Q170 489 167 423 L367 423 ZM170 736 L170 593 L515 593 L515 736 L170 736 ZM523 201 L251 201 L251 22 L523 22 L523 201 ZM412 423 L612 423 L612 378 L412 378 L412 245 L568 245 L568 -65 L523 -65 L523 -22 L251 -22 L251 -68 L207 -68 L207 245 L367 245 L367 378 L164 378 Q147 126 77 -25 Q59 -2 40 9 Q124 192 124 557 L124 780 L561 780 L561 548 L412 548 L412 423 ZM729 169 L684 169 L684 714 L729 714 L729 169 ZM903 814 L903 -9 Q903 -53 872 -66 Q846 -75 743 -75 Q736 -46 726 -29 Q817 -31 837 -29 Q857 -29 857 -9 L857 814 L903 814 Z" /><glyph glyph-name="" unicode="&#x5269;" d="M488 561 L488 441 Q565 478 595 505 L630 474 Q573 436 488 402 L488 303 Q488 289 492 285 Q497 281 513 281 L585 281 Q599 281 604 295 Q609 309 610 360 Q623 350 646 344 Q643 285 632 265 Q621 245 592 245 L509 245 Q472 245 460 256 Q448 268 448 303 L448 561 L488 561 ZM377 635 L653 635 L653 592 L377 592 L377 263 Q496 182 626 75 L598 36 Q516 112 377 217 L377 -72 L332 -72 L332 211 Q224 54 83 -42 Q67 -18 49 -5 Q222 96 332 282 L332 592 L62 592 L62 635 L332 635 L332 739 Q222 726 107 721 Q106 736 95 759 Q439 783 560 826 L596 789 Q509 761 377 744 L377 635 ZM64 313 Q125 326 219 348 L219 441 L81 441 L81 481 L219 481 L219 561 L260 561 L260 238 L219 238 L219 309 Q126 287 77 273 L64 313 ZM750 167 L705 167 L705 713 L750 713 L750 167 ZM907 819 L907 -3 Q907 -51 873 -63 Q840 -73 725 -72 Q722 -52 707 -26 Q770 -27 837 -27 Q861 -26 861 -4 L861 819 L907 819 Z" /><glyph glyph-name="" unicode="&#x526a;" d="M869 227 Q868 210 867 203 Q844 -14 807 -46 Q788 -64 745 -67 Q683 -69 594 -62 Q592 -40 578 -19 Q644 -26 728 -26 Q760 -26 770 -18 Q799 9 817 184 L483 184 Q450 72 362 14 Q268 -49 78 -76 Q70 -53 55 -34 Q235 -11 322 42 Q403 90 432 184 L87 184 L87 227 L869 227 ZM433 410 L433 482 L186 482 L186 410 L433 410 ZM186 588 L186 518 L433 518 L433 588 L186 588 ZM476 328 Q476 296 454 286 Q436 279 359 279 Q356 295 345 315 Q405 313 421 315 Q433 316 433 328 L433 375 L186 375 L186 280 L143 280 L143 625 L476 625 L476 328 ZM655 616 L655 357 L611 357 L611 616 L655 616 ZM849 327 Q849 292 824 281 Q803 274 712 274 Q710 288 697 313 Q772 311 791 313 Q805 313 805 327 L805 645 L849 645 L849 327 ZM933 726 L933 685 L68 685 L68 726 L311 726 Q285 777 243 820 L286 835 Q331 784 357 740 L326 726 L630 726 Q674 781 703 835 L749 820 Q717 769 682 726 L933 726 Z" /><glyph glyph-name="" unicode="&#x526f;" d="M142 310 L142 197 L323 197 L323 310 L142 310 ZM548 310 L367 310 L367 197 L548 197 L548 310 ZM548 36 L548 156 L367 156 L367 36 L548 36 ZM323 36 L323 156 L142 156 L142 36 L323 36 ZM97 351 L594 351 L594 -56 L548 -56 L548 -6 L142 -6 L142 -71 L97 -71 L97 351 ZM502 613 L180 613 L180 478 L502 478 L502 613 ZM548 655 L548 437 L135 437 L135 655 L548 655 ZM67 784 L612 784 L612 741 L67 741 L67 784 ZM737 167 L692 167 L692 713 L737 713 L737 167 ZM914 814 L914 -3 Q914 -53 877 -65 Q847 -75 720 -74 Q714 -50 703 -27 Q797 -30 842 -27 Q867 -27 867 -4 L867 814 L914 814 Z" /></font>
</defs>
</svg>
